<svg width="1440" height="558" viewBox="0 0 1440 558" fill="none" xmlns="http://www.w3.org/2000/svg">
<path d="M1448.31 -12.3757C1305.6 -12.3757 71.6651 -12.9999 -16 -13C-16 412.986 3.59362 476.762 88.9943 530.753C132.634 558.343 271.375 574.891 373.396 530.753C523.054 466.007 625.876 315.549 713.937 376.961C801.998 438.372 816.25 431.207 834.575 431.207C852.9 431.207 869.188 409.597 892.603 371.017C916.018 332.438 945.926 430.599 969.466 450.943C1062.56 531.4 1229.33 284.03 1335.96 345.232C1465.25 419.437 1450.19 249.108 1450.35 238.587C1451.4 171.554 1451.46 54.8908 1448.31 -12.3757Z" fill="#3DDC97"/>
</svg>
