<svg width="30" height="30" viewBox="0 0 30 30" fill="none" xmlns="http://www.w3.org/2000/svg">
<path fill-rule="evenodd" clip-rule="evenodd" d="M6.44755 6.58243C6.83496 6.18881 7.46811 6.18378 7.86172 6.57118L23.5412 22.0034C23.9348 22.3908 23.9399 23.0239 23.5525 23.4176C23.1651 23.8112 22.5319 23.8162 22.1383 23.4288L6.45879 7.99659C6.06518 7.60919 6.06015 6.97604 6.44755 6.58243Z" fill="white"/>
<path fill-rule="evenodd" clip-rule="evenodd" d="M22.4131 6.41298C22.8068 6.80038 22.786 7.45975 22.3667 7.88571L7.1846 23.3111C6.76536 23.7371 6.10641 23.7684 5.71279 23.3809C5.31917 22.9935 5.33995 22.3342 5.75919 21.9082L20.9413 6.48278C21.3606 6.05682 22.0195 6.02557 22.4131 6.41298Z" fill="white"/>
</svg>
