<svg width="50" height="53" viewBox="0 0 50 53" fill="none" xmlns="http://www.w3.org/2000/svg">
<path d="M49.5 32.9091C49.5 43.728 40.7127 52.5 29.871 52.5C19.0293 52.5 10.2419 43.728 10.2419 32.9091C10.2419 22.0902 19.0293 13.3182 29.871 13.3182C40.7127 13.3182 49.5 22.0902 49.5 32.9091Z" fill="#FF495C" stroke="white"/>
<path d="M2 18.2273L13.6129 22.0909C13.6129 22.0909 15.1613 19.7727 18.2581 17.4545C21.3548 15.1364 24.4516 14.3636 24.4516 14.3636L18.2581 2L14.3871 10.5L9.74194 8.18182L8.96774 15.9091L2 18.2273Z" fill="#FF495C" stroke="white"/>
<path d="M26.7743 32.9091C26.7743 41.4444 38.4226 48.3636 29.8711 48.3636C21.3196 48.3636 14.3872 41.4444 14.3872 32.9091C14.3872 24.3738 21.3196 17.4546 29.8711 17.4546C38.4226 17.4546 26.7743 24.3738 26.7743 32.9091Z" fill="#FF8B97"/>
</svg>
