<svg width="620" height="354" viewBox="0 0 620 354" fill="none" xmlns="http://www.w3.org/2000/svg">
<g clip-path="url(#clip0_5_853)">
<path d="M464.973 0.000586233H340.756C334.762 0.000583937 328.947 2.04058 324.265 5.78524C319.584 9.5299 316.315 14.7564 314.997 20.6056L252.233 299.087C251.548 302.125 251.536 305.275 252.198 308.318C252.859 311.361 254.178 314.222 256.061 316.701C257.945 319.18 260.348 321.217 263.101 322.668C265.855 324.12 268.893 324.952 272.002 325.105L399.697 331.399C406.535 331.736 413.261 329.572 418.622 325.313C423.982 321.053 427.61 314.988 428.829 308.249L464.432 111.36L467.081 112.117L473.894 74.7988L471.167 74.1169L481.105 19.158C481.531 16.804 481.432 14.385 480.816 12.0735C480.2 9.76209 479.082 7.61504 477.541 5.78547C476 3.9559 474.075 2.48886 471.903 1.48893C469.73 0.489006 467.364 -0.0191883 464.973 0.000586233Z" fill="#3F3D56"/>
<path d="M357.109 6.00391H342.609C338.445 6.00391 334.407 7.42848 331.163 10.0411C327.92 12.6538 325.668 16.2974 324.78 20.367L264.536 296.577C264.189 298.167 264.189 299.813 264.537 301.403C264.884 302.994 265.571 304.49 266.549 305.79C267.528 307.091 268.775 308.165 270.207 308.938C271.638 309.712 273.22 310.168 274.844 310.275L402.126 318.619C405.716 318.855 409.268 317.759 412.103 315.542C414.938 313.325 416.858 310.141 417.496 306.598L468.903 21.1089C469.236 19.2611 469.159 17.3628 468.678 15.5479C468.197 13.733 467.324 12.0457 466.12 10.6052C464.917 9.16474 463.411 8.00607 461.711 7.21103C460.011 6.41598 458.157 6.00391 456.28 6.00391H442.524C441.193 6.00391 439.899 6.44294 438.842 7.25302C437.785 8.0631 437.025 9.19905 436.679 10.485C436.373 11.6203 435.702 12.6231 434.769 13.3383C433.837 14.0534 432.694 14.441 431.519 14.441H366.217C363.916 14.441 361.699 13.572 360.011 12.0078C358.322 10.4435 357.286 8.29934 357.109 6.00391L357.109 6.00391Z" fill="#FF495C"/>
<path d="M541.089 245.634C521.226 277.03 527.323 316.534 527.323 316.534C527.323 316.534 565.623 305.135 585.486 273.74C605.348 242.345 599.251 202.841 599.251 202.841C599.251 202.841 560.951 214.239 541.089 245.634Z" fill="#FF8B97"/>
<path d="M556.401 250.929C555.303 288.067 528.154 317.396 528.154 317.396C528.154 317.396 502.785 286.512 503.884 249.375C504.982 212.237 532.131 182.908 532.131 182.908C532.131 182.908 557.5 213.791 556.401 250.929Z" fill="#FF495C"/>
<path d="M59.8599 204.088C66.1323 204.088 71.2171 200.626 71.2171 196.355C71.2171 192.085 66.1323 188.622 59.8599 188.622C53.5875 188.622 48.5027 192.085 48.5027 196.355C48.5027 200.626 53.5875 204.088 59.8599 204.088Z" fill="#FF495C"/>
<path d="M59.8599 196.355C59.8599 196.355 113.807 290.118 112.387 303.651L59.8599 196.355Z" fill="#FF495C"/>
<path d="M95.3512 202.823V257.673C84.0509 242.01 61.5117 225.882 19.275 212.79L95.3512 317.319V318.114C95.3512 318.114 95.4949 318.036 95.7624 317.885L95.892 318.063C95.892 318.063 96.0006 317.917 96.1948 317.637C105.058 312.501 179.395 266.193 95.3512 202.823Z" fill="#3F3D56"/>
<path d="M473.887 204.088C480.16 204.088 485.245 200.626 485.245 196.355C485.245 192.085 480.16 188.622 473.887 188.622C467.615 188.622 462.53 192.085 462.53 196.355C462.53 200.626 467.615 204.088 473.887 204.088Z" fill="#FF495C"/>
<path d="M473.887 196.355C473.887 196.355 527.834 290.118 526.415 303.651L473.887 196.355Z" fill="#FF495C"/>
<path d="M509.379 202.823V257.673C498.078 242.01 475.539 225.882 433.303 212.79L509.379 317.319V318.114C509.379 318.114 509.522 318.036 509.79 317.885L509.92 318.063C509.92 318.063 510.028 317.917 510.222 317.637C519.086 312.501 593.422 266.193 509.379 202.823Z" fill="#3F3D56"/>
<path d="M23.4543 302.104C29.4169 313.166 42.0716 317.914 42.0716 317.914C42.0716 317.914 45.0591 304.728 39.0965 293.667C33.1339 282.606 20.4792 277.857 20.4792 277.857C20.4792 277.857 17.4917 291.043 23.4543 302.104Z" fill="#FF8B97"/>
<path d="M27.5526 298.465C38.3175 304.944 42.4634 317.812 42.4634 317.812C42.4634 317.812 29.156 320.176 18.3911 313.698C7.62614 307.219 3.48024 294.351 3.48024 294.351C3.48024 294.351 16.7877 291.987 27.5526 298.465Z" fill="#FF495C"/>
<path d="M379.663 302.104C385.625 313.166 398.28 317.914 398.28 317.914C398.28 317.914 401.267 304.728 395.305 293.667C389.342 282.606 376.687 277.857 376.687 277.857C376.687 277.857 373.7 291.043 379.663 302.104Z" fill="#3F3D56"/>
<path d="M383.761 298.465C394.526 304.944 398.672 317.812 398.672 317.812C398.672 317.812 385.364 320.176 374.599 313.698C363.834 307.219 359.688 294.351 359.688 294.351C359.688 294.351 372.996 291.987 383.761 298.465Z" fill="#3F3D56"/>
<path d="M234.082 293.842C240.044 304.903 252.699 309.651 252.699 309.651C252.699 309.651 255.687 296.466 249.724 285.405C243.761 274.343 231.107 269.595 231.107 269.595C231.107 269.595 228.119 282.78 234.082 293.842Z" fill="#3F3D56"/>
<path d="M238.18 290.203C248.945 296.681 253.091 309.549 253.091 309.549C253.091 309.549 239.783 311.914 229.019 305.435C218.254 298.957 214.108 286.088 214.108 286.088C214.108 286.088 227.415 283.724 238.18 290.203Z" fill="#FF495C"/>
<path d="M169.551 293.842C175.514 304.903 188.169 309.651 188.169 309.651C188.169 309.651 191.156 296.466 185.193 285.405C179.231 274.343 166.576 269.595 166.576 269.595C166.576 269.595 163.589 282.78 169.551 293.842Z" fill="#FF8B97"/>
<path d="M173.65 290.203C184.415 296.681 188.56 309.549 188.56 309.549C188.56 309.549 175.253 311.914 164.488 305.435C153.723 298.957 149.577 286.088 149.577 286.088C149.577 286.088 162.885 283.724 173.65 290.203Z" fill="#FF495C"/>
<path d="M596.485 302.104C590.522 313.166 577.868 317.914 577.868 317.914C577.868 317.914 574.88 304.728 580.843 293.667C586.805 282.606 599.46 277.857 599.46 277.857C599.46 277.857 602.448 291.043 596.485 302.104Z" fill="#3F3D56"/>
<path d="M592.387 298.465C581.622 304.944 577.476 317.812 577.476 317.812C577.476 317.812 590.783 320.176 601.548 313.698C612.313 307.219 616.459 294.351 616.459 294.351C616.459 294.351 603.152 291.987 592.387 298.465Z" fill="#FF495C"/>
<path d="M620 325.972C620 325.972 605.151 321.57 575.617 317.34L576.148 308.301C580.594 257.398 545.756 181.564 545.756 181.564C559.174 219.291 565.831 259.092 565.418 299.134C560.798 291.301 551.957 282.898 535.102 277.884C535.102 277.884 557.172 296.341 563.669 315.747C541.398 312.993 512.545 310.577 477.163 309.869L484.454 292.502L470.235 307.087C470.235 307.087 463.764 263.948 451.037 262.412L460.885 304.662C460.885 304.662 449.767 296.326 447.237 297.206L453.66 309.663C449.711 309.672 445.692 309.702 441.603 309.755C444.651 258.915 411.016 185.695 411.016 185.695C424.435 223.423 431.091 263.224 430.678 303.266C426.058 295.432 417.217 287.029 400.363 282.015C400.363 282.015 415.537 294.706 424.424 310.105C402.076 310.725 377.824 312.028 351.68 314.229C348.645 314.14 345.559 314.064 342.423 314.001L345.835 305.872L347.156 303.312C347.082 303.289 347.007 303.272 346.931 303.264L349.714 296.633L340.671 305.909C338.639 307.141 336.601 308.544 335.22 309.525C335.072 308.656 334.866 307.484 334.6 306.08L343.356 268.519C337.715 269.199 333.305 278.052 330.14 287.699C326.942 277.317 322.321 267.27 316.297 266.544L325.472 305.905C325.323 306.647 325.187 307.349 325.063 308.001C322.243 305.968 314.739 300.763 312.581 301.319L309.938 298.608L316.318 313.805C313.258 313.819 310.158 313.845 307.018 313.884C306.497 313.826 305.976 313.768 305.456 313.711L310.062 302.739L299.947 313.114C298.3 312.939 296.659 312.767 295.025 312.598C292.92 301.359 286.758 273.87 276.644 272.65L285.741 311.672C284.235 311.527 282.737 311.385 281.244 311.246C277.996 309.132 274.196 306.974 272.844 307.443L274.487 310.629C233.986 307.04 197.929 305.6 166.34 305.532L172.763 293.074C170.233 292.195 159.115 300.53 159.115 300.53L168.963 258.281C161.049 259.236 155.554 276.278 152.53 289.031C149.687 282.421 146.143 277.293 141.905 276.781L147.453 300.584L135.546 288.37L142.837 305.738C107.455 306.446 78.6019 308.862 56.3313 311.616C62.828 292.209 84.8978 273.752 84.8978 273.752C68.0433 278.767 59.2021 287.169 54.5824 295.003C54.1695 254.961 60.8256 215.16 74.2442 177.432C74.2442 177.432 39.4064 253.267 43.8516 304.17L44.3833 313.209C14.8487 317.439 0 321.84 0 321.84L144.331 323.65L145.609 326.129C126.626 328.649 106.855 331.641 86.2975 335.105L485.26 330.103C485.26 330.103 482.146 329.181 475.953 327.778L620 325.972Z" fill="#3F3D56"/>
<path d="M114.21 354C114.21 354 209.199 340.057 268.051 354H114.21Z" fill="#3F3D56"/>
<path d="M477.646 342.085C477.646 342.085 533.906 327.812 568.763 342.085H477.646Z" fill="#3F3D56"/>
<path d="M391.282 266.179C391.036 266.179 390.789 266.171 390.543 266.155L381.739 265.577L295.47 259.922C294.036 259.83 292.646 259.392 291.417 258.647C290.188 257.902 289.158 256.871 288.413 255.641C287.204 253.677 286.806 251.319 287.302 249.067L332.303 42.7512C333.005 39.6038 334.754 36.7881 337.264 34.7656C339.775 32.743 342.898 31.6336 346.121 31.6192H431.028C432.506 31.6198 433.965 31.9446 435.303 32.5707C436.641 33.1969 437.826 34.1091 438.773 35.243C439.721 36.377 440.408 37.7051 440.786 39.1336C441.164 40.5621 441.225 42.0562 440.963 43.5107L402.565 256.751C402.211 258.71 401.354 260.543 400.079 262.071L399.972 262.328L399.861 262.329C398.919 263.389 397.788 264.266 396.527 264.916L396.465 264.945C394.858 265.757 393.082 266.18 391.282 266.179ZM346.121 32.652C343.133 32.6654 340.238 33.6938 337.911 35.5687C335.584 37.4436 333.962 40.0537 333.312 42.9713L288.311 249.286C287.9 251.196 288.205 253.19 289.168 254.888C290.132 256.587 291.686 257.872 293.535 258.499C294.184 258.715 294.858 258.847 295.54 258.891L390.609 265.124C392.468 265.246 394.326 264.868 395.989 264.027L396.048 264C397.188 263.415 398.21 262.625 399.065 261.67L399.233 261.473C400.423 260.07 401.222 258.378 401.549 256.567L439.947 43.3276L440.455 43.4191L439.947 43.3276C440.182 42.0219 440.127 40.6806 439.788 39.3982C439.448 38.1158 438.831 36.9236 437.981 35.9056C437.13 34.8876 436.067 34.0687 434.866 33.5065C433.665 32.9443 432.355 32.6526 431.028 32.652H346.121Z" fill="#3F3D56"/>
<path d="M299.174 242.038C299.174 242.038 282.973 260.938 286.378 262.172C289.784 263.406 305.681 249.902 304.659 245.127L299.174 242.038Z" fill="#FFB9B9"/>
<path d="M394.529 259.553C394.529 259.553 403.324 282.843 399.703 282.843C396.081 282.843 385.733 264.729 388.32 260.588L394.529 259.553Z" fill="#FFB9B9"/>
<path d="M400.001 118.584C398.549 116.529 396.763 114.734 395.23 112.739C391.697 108.139 390.475 102.01 385.733 98.4826C381.041 94.9922 373.596 91.5568 367.725 91.8321C359.987 92.1948 353.849 98.1994 348.515 103.818C344.439 108.112 340.362 112.406 336.286 116.7C333.337 119.806 330.28 123.104 329.217 127.253C328.195 131.242 329.192 135.526 331.062 139.194C333.006 142.914 335.731 146.169 339.052 148.735C343.146 143.096 348.88 135.311 348.88 135.311L350.216 154.676C357.151 156.975 364.6 157.427 371.909 156.919L374.073 148.979L376.345 156.479C385.079 155.321 393.853 152.305 399.259 145.487C405.236 137.95 405.554 126.439 400.001 118.584Z" fill="#2F2E41"/>
<path d="M366.59 135.86C375.448 135.86 382.629 128.677 382.629 119.816C382.629 110.955 375.448 103.772 366.59 103.772C357.732 103.772 350.551 110.955 350.551 119.816C350.551 128.677 357.732 135.86 366.59 135.86Z" fill="#FFB9B9"/>
<path d="M356.243 127.579C356.243 127.579 357.277 140 350.551 141.035C343.825 142.07 336.582 141.035 336.582 145.175C336.582 149.316 341.756 187.097 341.756 187.097L354.69 186.062L372.799 168.465L382.629 149.316C382.629 149.316 370.729 144.14 375.903 128.614L356.243 127.579Z" fill="#FFB9B9"/>
<path d="M348.482 179.851L343.308 165.877L344.343 146.728C344.343 146.728 355.703 145.175 355.455 135.86L346.93 139.482L327.269 142.588V160.702C327.269 160.702 320.543 171.57 328.304 182.439L331.926 205.211L369.177 202.623L381.077 187.097L396.081 157.597L380.56 146.211L382.629 143.105L374.712 137.941L375.903 147.763L372.282 153.974C372.282 153.974 355.725 157.079 348.482 179.851Z" fill="white"/>
<path d="M330.373 143.623L327.269 142.588C327.269 142.588 321.061 145.175 321.061 153.456C321.061 161.737 296.226 243.509 296.226 243.509L307.609 246.615L323.13 208.834L332.443 177.263L330.373 143.623Z" fill="white"/>
<path d="M391.942 157.597H396.081C396.081 157.597 398.668 155.526 398.151 170.535C397.633 185.544 399.703 264.729 399.703 264.729L384.699 263.694L381.077 178.298L391.942 157.597Z" fill="white"/>
<path d="M381.773 265.061L353.499 263.207L346.628 262.758L330.98 261.73C330.743 260.889 330.536 260.161 330.371 259.551C325.198 240.403 330.892 213.493 330.892 213.493C330.892 213.493 329.855 210.906 330.892 209.351C331.925 207.797 331.409 208.318 329.339 206.248C327.268 204.177 329.339 206.248 330.371 203.66C331.409 201.068 330.371 203.66 330.371 201.59C330.424 200.461 330.056 199.353 329.339 198.481C329.765 198.145 330.229 197.861 330.722 197.634C340.567 192.914 372.166 198.724 372.166 198.724C372.166 198.724 372.145 198.749 372.109 198.801C371.862 199.163 370.922 200.743 372.28 202.106C373.834 203.66 371.247 203.66 370.731 205.21C370.21 206.764 370.731 205.21 371.247 206.764C371.763 208.318 370.21 210.384 370.21 210.384C383.529 221.58 384.231 244.989 381.773 265.061Z" fill="#2F2E41"/>
<path d="M353.499 263.207L346.628 262.758C347.794 257.455 348.481 254.377 348.481 254.377L353.499 263.207Z" fill="#2F2E41"/>
<path d="M349.258 108.171C349.258 108.171 362.193 123.697 388.062 114.899L380.818 101.96L363.745 96.7849L349.258 108.171Z" fill="#2F2E41"/>
<path d="M229.712 336.515C229.712 336.515 237.021 342.672 240.869 342.287C244.716 341.902 252.025 341.902 248.947 346.136C245.87 350.369 233.174 352.678 227.788 353.063C222.402 353.447 210.476 353.832 211.246 351.523C212.015 349.214 212.785 338.439 215.862 337.669C218.94 336.9 229.712 336.515 229.712 336.515Z" fill="#575A89"/>
<path d="M187.759 330.469C187.759 330.469 193.145 338.365 196.954 339.029C200.763 339.692 207.804 341.658 203.702 344.908C199.6 348.158 186.752 346.969 181.46 345.891C176.169 344.814 164.579 341.978 165.94 339.961C167.301 337.944 170.938 327.772 174.109 327.858C177.28 327.944 187.759 330.469 187.759 330.469Z" fill="#575A89"/>
<path d="M233.994 217.547C233.994 217.547 238.945 251.466 237.791 257.624C236.637 263.781 235.867 273.402 235.867 273.402C235.867 273.402 236.637 281.483 235.867 285.332C235.098 289.18 230.481 325.739 230.481 326.509C230.481 327.279 231.251 329.588 230.481 331.512C229.712 333.436 228.173 331.897 230.481 334.975C232.79 338.054 231.251 338.824 230.866 338.824C230.481 338.824 215.478 340.363 214.708 338.824C213.939 337.284 215.093 336.899 214.708 334.975C214.323 333.051 213.939 332.666 213.169 332.281C212.4 331.897 210.861 332.666 212.015 330.742C213.169 328.818 215.862 326.509 215.093 325.354C214.323 324.2 215.478 315.734 215.478 315.734C215.478 315.734 216.247 296.877 216.632 285.332C217.016 273.787 213.169 261.857 213.169 261.857C212.69 271.303 209.183 280.344 203.167 287.641C193.164 299.571 188.163 321.891 188.163 321.891C188.163 321.891 185.855 325.354 187.009 328.433C188.163 331.512 191.625 329.588 188.163 331.512C184.701 333.436 172.775 330.742 171.62 329.588C170.466 328.433 173.159 326.894 172.39 323.815C171.62 320.736 168.543 321.506 171.236 319.967C173.929 318.427 174.698 318.812 174.698 317.273C174.698 315.734 181.623 282.253 192.395 272.632L193.164 237.612C193.164 237.612 183.546 212.983 193.549 210.674C203.552 208.365 233.994 217.547 233.994 217.547Z" fill="#2F2E41"/>
<path d="M227.019 126.395C227.019 126.395 220.479 142.558 222.018 144.867C223.557 147.176 203.167 137.171 203.167 137.171C203.167 137.171 209.707 121.008 209.707 119.084C209.707 117.159 227.019 126.395 227.019 126.395Z" fill="#FFB9B9"/>
<path d="M222.21 130.436C230.071 130.436 236.444 124.061 236.444 116.197C236.444 108.333 230.071 101.958 222.21 101.958C214.349 101.958 207.976 108.333 207.976 116.197C207.976 124.061 214.349 130.436 222.21 130.436Z" fill="#FFB9B9"/>
<path d="M203.167 130.629C203.167 130.629 213.169 129.474 218.171 135.631C223.172 141.789 223.941 143.328 223.941 143.328C223.941 143.328 235.867 162.57 233.559 172.191C232.996 173.059 232.483 173.959 232.02 174.884C231.251 176.424 231.251 197.974 232.02 201.438C232.79 204.901 233.559 206.056 232.79 211.059C232.02 216.062 238.945 224.143 230.866 225.682C222.787 227.222 216.632 226.067 213.939 222.604C211.246 219.14 213.554 216.831 205.09 216.831C196.627 216.831 191.241 211.059 191.241 211.059C191.241 211.059 195.473 206.441 193.934 205.671C192.395 204.901 193.934 202.977 194.703 201.053C195.473 199.129 195.473 197.59 194.318 197.59C193.164 197.59 193.934 196.82 194.703 194.896C195.473 192.972 181.238 159.876 189.702 150.255C198.166 140.634 202.397 135.247 202.397 135.247C202.397 135.247 200.859 129.474 203.167 130.629Z" fill="#2F2E41"/>
<path d="M225.095 167.188V184.12L237.406 224.913C237.406 224.913 245.485 246.079 237.406 246.079C229.327 246.079 229.76 225.877 229.76 225.877L212.4 195.281C212.4 195.281 205.475 171.036 206.244 169.112C207.014 167.188 225.095 167.188 225.095 167.188Z" fill="#FFB9B9"/>
<path d="M218.555 142.174C218.555 142.174 230.097 146.792 227.019 159.106C223.941 171.421 227.019 171.036 227.019 171.036C227.019 171.036 211.246 169.497 206.244 172.96L205.09 168.342C205.09 168.342 200.474 141.789 218.555 142.174Z" fill="#2F2E41"/>
<path d="M227.071 105.508C227.959 105.823 228.912 105.912 229.843 105.767C230.774 105.622 231.655 105.248 232.405 104.677C233.855 103.482 234.471 101.277 233.618 99.6024C232.881 98.1562 231.305 97.3628 229.794 96.7712C226.462 95.4671 222.951 94.6742 219.381 94.4192C217.68 94.2981 215.892 94.3173 214.374 95.095C213.622 95.4798 212.969 96.0351 212.225 96.4337C210.857 97.1666 209.264 97.3296 207.785 97.8013C206.272 98.2951 204.883 99.1081 203.711 100.185C202.54 101.263 201.613 102.579 200.994 104.046C200.592 105.042 200.311 106.083 200.158 107.146C199.715 110.056 200.024 113.032 201.055 115.789C202.695 120.157 206.135 123.975 206.329 128.637C208.434 127.109 209.215 124.352 210.902 122.371C212.157 120.908 213.871 119.913 215.764 119.55C216.288 119.518 216.792 119.334 217.214 119.021C217.507 118.67 217.691 118.241 217.743 117.786L219.183 110.983C219.477 109.598 219.847 108.089 220.985 107.247C221.693 106.794 222.496 106.511 223.332 106.42C225.319 106.073 227.33 105.889 229.347 105.871" fill="#2F2E41"/>
</g>
<defs>
<clipPath id="clip0_5_853">
<rect width="620" height="354" fill="white"/>
</clipPath>
</defs>
</svg>
