<svg width="30" height="31" viewBox="0 0 30 31" fill="#e6e6e6" xmlns="http://www.w3.org/2000/svg">
<path fill-rule="evenodd" clip-rule="evenodd" d="M15 7.5C10.4905 7.49997 9.49996 10.1121 9.49996 11C9.49996 11.2716 9.549 11.611 9.63705 12.0541C9.66772 12.2084 9.70861 12.3998 9.75255 12.6054C9.81622 12.9034 9.88627 13.2312 9.9409 13.5197C10.1434 14.5892 10.3006 15.8839 9.97163 17.2364C9.65644 18.5321 8.84583 19.7521 7.99499 20.759C7.44995 21.404 6.85988 21.9947 6.30945 22.5H23.6905C23.14 21.9947 22.55 21.404 22.0049 20.759C21.1541 19.7521 20.3435 18.5321 20.0283 17.2364C19.699 15.8825 19.8564 14.7118 20.0613 13.6956C20.1113 13.4475 20.1619 13.2157 20.21 12.9951C20.3682 12.2698 20.5 11.6655 20.5 11C20.5 9.72493 19.1401 7.50003 15 7.5ZM7.49996 11C7.49996 8.88791 9.50945 5.49997 15 5.5C19.8644 5.50003 22.5 8.27507 22.5 11C22.5 11.9036 22.3065 12.7829 22.1397 13.5408C22.0975 13.7325 22.057 13.9164 22.0218 14.0909C21.8378 15.0035 21.7452 15.8328 21.9716 16.7637C22.179 17.6162 22.7593 18.553 23.5326 19.4682C24.2932 20.3683 25.1739 21.1703 25.8764 21.7543C26.4415 22.2239 26.5183 22.9305 26.3411 23.4513C26.1626 23.9758 25.6588 24.5 24.9015 24.5H5.09841C4.34114 24.5 3.83733 23.9758 3.65884 23.4513C3.48159 22.9305 3.55847 22.2239 4.12349 21.7543C4.826 21.1703 5.70676 20.3683 6.46733 19.4682C7.24061 18.553 7.82091 17.6162 8.02829 16.7637C8.25505 15.8314 8.16222 14.8762 7.97582 13.8918C7.91896 13.5915 7.86499 13.3413 7.81012 13.0869C7.76643 12.8844 7.72217 12.6792 7.67542 12.444C7.58289 11.9784 7.49996 11.4784 7.49996 11Z" fill="#8A8A8E"/>
<path d="M17 5.5C17 6.60457 16.1046 7.5 15 7.5C13.8954 7.5 13 6.60457 13 5.5C13 4.39543 13.8954 3.5 15 3.5C16.1046 3.5 17 4.39543 17 5.5Z" fill="#8A8A8E"/>
<path d="M18.5 25.5C18.5 26.5 16.8899 27.5 15 27.5C13.1101 27.5 11.5 26.5 11.5 25.5C12.5 25.5 13.8954 25.5 15 25.5C16.1046 25.5 17 25.5 18.5 25.5Z" fill="#8A8A8E"/>
</svg>
