<svg width="358" height="277" viewBox="0 0 358 277" fill="none" xmlns="http://www.w3.org/2000/svg">
<g id="Bidding">
<g id="undraw_online_payments_re_y8f2 1" clip-path="url(#clip0_5_1052)">
<path id="Vector" d="M11.3396 208.059C13.1128 189.96 23.8298 171.894 40.8818 165.574C34.5807 184.32 35.1133 204.69 42.3853 223.081C45.2155 230.163 49.1008 237.746 46.8019 245.018C45.3716 249.543 41.6759 253.073 37.5008 255.328C33.3254 257.584 28.6562 258.729 24.0452 259.852L23.1523 260.631C15.3576 244.2 9.56647 226.158 11.3396 208.059Z" fill="#F0F0F0"/>
<path id="Vector_2" d="M41.0614 165.911C31.4336 177.275 25.3739 191.788 24.3144 206.667C24.0853 209.883 24.1329 213.166 24.9167 216.311C25.7043 219.37 27.2967 222.162 29.5284 224.398C31.5673 226.524 33.8992 228.462 35.3858 231.047C36.9528 233.772 37.0921 236.91 36.1452 239.872C34.9867 243.496 32.595 246.488 30.1545 249.332C27.4448 252.49 24.5802 255.728 23.5008 259.849C23.37 260.348 22.6028 260.116 22.7334 259.618C24.6113 252.447 31.4143 248.225 34.5417 241.729C36.0011 238.698 36.5558 235.209 35.0323 232.089C33.7 229.361 31.2971 227.36 29.214 225.225C27.0267 222.983 25.3298 220.505 24.4102 217.486C23.4695 214.397 23.2934 211.109 23.4393 207.901C23.8242 200.628 25.3503 193.46 27.9616 186.661C30.8989 178.885 35.1448 171.668 40.5156 165.324C40.8482 164.931 41.3918 165.521 41.0614 165.911L41.0614 165.911Z" fill="white"/>
<path id="Vector_3" d="M24.4036 201.812C21.9121 201.276 19.6924 199.871 18.141 197.849C16.5895 195.827 15.8074 193.319 15.9342 190.774C15.9403 190.67 15.9865 190.573 16.0629 190.502C16.1394 190.432 16.2402 190.394 16.3441 190.396C16.4481 190.399 16.547 190.442 16.62 190.516C16.693 190.59 16.7345 190.689 16.7357 190.793C16.6132 193.163 17.342 195.499 18.7905 197.379C20.2391 199.259 22.3119 200.559 24.635 201.045C25.1396 201.151 24.9054 201.918 24.4036 201.812V201.812Z" fill="white"/>
<path id="Vector_4" d="M28.3526 223.456C32.7546 220.669 35.9447 216.326 37.2866 211.291C37.4191 210.793 38.1863 211.025 38.0539 211.523C36.6477 216.759 33.3188 221.272 28.7316 224.162C28.2941 224.437 27.9175 223.729 28.3526 223.456Z" fill="white"/>
<path id="Vector_5" d="M31.6621 179.624C32.5828 180.033 33.5906 180.206 34.595 180.129C35.5993 180.052 36.5687 179.726 37.4162 179.182C37.8499 178.901 38.2261 179.609 37.7952 179.888C36.8561 180.485 35.785 180.843 34.6756 180.931C33.5661 181.019 32.452 180.834 31.4307 180.392C31.3309 180.358 31.2477 180.288 31.1979 180.195C31.1481 180.102 31.1355 179.994 31.1627 179.892C31.1938 179.791 31.2637 179.706 31.3572 179.656C31.4507 179.606 31.5603 179.594 31.662 179.624H31.6621Z" fill="white"/>
<path id="Vector_6" d="M94.1654 196.429C93.8996 196.612 93.6337 196.795 93.3677 196.985C89.8065 199.462 86.4523 202.224 83.3384 205.245C83.0939 205.474 82.8496 205.711 82.6123 205.947C75.1876 213.304 69.1934 221.975 64.9342 231.52C63.2429 235.319 61.843 239.242 60.7469 243.254C59.2333 248.795 58.0331 254.923 54.8706 259.506C54.546 259.987 54.1919 260.449 53.8103 260.887L24.1713 261.659C24.1031 261.627 24.0347 261.602 23.9661 261.57L22.7842 261.655C22.8262 261.444 22.8744 261.226 22.9165 261.015C22.9404 260.893 22.9709 260.77 22.9948 260.648C23.0128 260.566 23.0312 260.485 23.0428 260.41C23.0487 260.383 23.0549 260.356 23.061 260.335C23.0726 260.26 23.0913 260.192 23.1031 260.124C23.369 258.906 23.644 257.688 23.928 256.469C23.9278 256.462 23.9278 256.462 23.9342 256.455C26.1218 247.175 29.1033 237.996 33.3833 229.561C33.5121 229.307 33.6405 229.047 33.7829 228.793C35.7332 225.001 37.9901 221.376 40.5311 217.952C41.9285 216.082 43.4196 214.284 44.9989 212.564C49.0879 208.13 53.849 204.365 59.1077 201.41C69.5918 195.52 81.8428 193.049 93.2929 196.181C93.5858 196.262 93.8724 196.342 94.1654 196.429Z" fill="#F0F0F0"/>
<path id="Vector_7" d="M94.1086 196.807C79.5795 200.084 66.0031 208.024 56.1992 219.266C54.0796 221.696 52.141 224.346 50.8738 227.328C49.6609 230.245 49.2511 233.433 49.6871 236.562C50.035 239.487 50.7297 242.439 50.3604 245.398C49.9713 248.516 48.193 251.106 45.6536 252.901C42.5466 255.097 38.8357 256.046 35.1746 256.848C31.1096 257.738 26.8733 258.598 23.5301 261.239C23.1251 261.559 22.6523 260.912 23.0567 260.592C28.8732 255.998 36.8472 256.722 43.2552 253.418C46.2453 251.877 48.7889 249.425 49.4507 246.017C50.0295 243.037 49.3158 239.992 48.9379 237.033C48.5411 233.926 48.6781 230.926 49.7618 227.962C50.8704 224.929 52.7094 222.198 54.7576 219.724C59.4438 214.148 64.9776 209.344 71.1561 205.488C78.1833 201.048 85.9182 197.842 94.0263 196.01C94.5281 195.897 94.6072 196.695 94.1086 196.807H94.1086Z" fill="white"/>
<path id="Vector_8" d="M59.1931 215.443C57.5268 213.515 56.6003 211.057 56.579 208.508C56.5576 205.96 57.4429 203.487 59.0767 201.531C59.4086 201.136 60.0375 201.633 59.7051 202.028C58.1804 203.847 57.356 206.151 57.3807 208.524C57.4054 210.897 58.2776 213.183 59.8399 214.97C60.1789 215.359 59.5302 215.83 59.1931 215.443V215.443Z" fill="white"/>
<path id="Vector_9" d="M49.3154 235.102C54.5079 235.527 59.67 233.98 63.7723 230.768C64.1785 230.45 64.6514 231.097 64.2457 231.415C59.9705 234.749 54.5953 236.348 49.1928 235.894C48.6779 235.85 48.8033 235.058 49.3154 235.102H49.3154Z" fill="white"/>
<path id="Vector_10" d="M78.3472 202.098C78.8365 202.978 79.5368 203.723 80.3852 204.266C81.2336 204.809 82.2036 205.133 83.2081 205.209C83.7233 205.246 83.5974 206.037 83.0855 206.001C81.9761 205.912 80.9053 205.553 79.9666 204.955C79.0279 204.358 78.2498 203.539 77.7005 202.571C77.6411 202.484 77.6169 202.378 77.633 202.274C77.6491 202.17 77.7042 202.076 77.7872 202.011C77.8731 201.949 77.9802 201.923 78.085 201.939C78.1899 201.955 78.2841 202.012 78.3472 202.098V202.098Z" fill="white"/>
<path id="Vector_11" d="M268.12 45.8797C267.678 44.573 262.128 40.1313 265.529 39.3847L268.317 43.1031L281.138 30.2823L282.428 31.5718L268.12 45.8797Z" fill="#FF495C"/>
<path id="Vector_12" d="M268.12 89.4759C267.678 88.1692 262.128 83.7274 265.529 82.9809L268.317 86.6992L281.138 73.8784L282.428 75.1679L268.12 89.4759Z" fill="#FF495C"/>
<path id="Vector_13" d="M268.12 133.695C267.678 132.388 262.128 127.946 265.529 127.2L268.317 130.918L281.138 118.097L282.428 119.387L268.12 133.695Z" fill="#FF495C"/>
<path id="Vector_14" d="M256.314 97.9449C258.499 97.9449 260.27 96.1736 260.27 93.9886C260.27 91.8036 258.499 90.0323 256.314 90.0323C254.129 90.0323 252.358 91.8036 252.358 93.9886C252.358 96.1736 254.129 97.9449 256.314 97.9449Z" fill="#3F3D56"/>
<path id="Vector_15" d="M256.314 54.8212C258.499 54.8212 260.27 53.0499 260.27 50.8649C260.27 48.6799 258.499 46.9086 256.314 46.9086C254.129 46.9086 252.358 48.6799 252.358 50.8649C252.358 53.0499 254.129 54.8212 256.314 54.8212Z" fill="#3F3D56"/>
<path id="Vector_16" d="M357.793 41.7653H294.097V42.5566H357.793V41.7653Z" fill="#3F3D56"/>
<path id="Vector_17" d="M258.292 143.915C260.477 143.915 262.248 142.144 262.248 139.958C262.248 137.773 260.477 136.002 258.292 136.002C256.107 136.002 254.336 137.773 254.336 139.958C254.336 142.144 256.107 143.915 258.292 143.915Z" fill="#3F3D56"/>
<path id="Vector_18" d="M357.793 85.3614H294.097V86.1527H357.793V85.3614Z" fill="#3F3D56"/>
<path id="Vector_19" d="M357.793 129.58H294.097V130.372H357.793V129.58Z" fill="#3F3D56"/>
<path id="Vector_20" d="M278.113 139.59H258.331V119.413H271.782V120.204H259.122V138.798H277.321V129.699H278.113V139.59Z" fill="#3F3D56"/>
<path id="Vector_21" d="M278.113 95.279H258.331V75.1019H271.782V75.8931H259.122V94.4878H277.321V85.3883H278.113V95.279Z" fill="#3F3D56"/>
<path id="Vector_22" d="M278.113 50.1772H258.331V30H271.782V30.7913H259.122V49.3859H277.321V40.2864H278.113V50.1772Z" fill="#3F3D56"/>
<path id="Vector_23" d="M148.957 101.914C148.957 101.914 143.67 124.236 150.132 124.236C156.593 124.236 171.866 98.9773 171.866 98.9773L166.579 92.5157L157.09 105.69L156.593 98.9773L148.957 101.914Z" fill="#A0616A"/>
<path id="Vector_24" d="M170.457 99.9477C173.298 99.9477 175.601 97.645 175.601 94.8045C175.601 91.964 173.298 89.6613 170.457 89.6613C167.617 89.6613 165.314 91.964 165.314 94.8045C165.314 97.645 167.617 99.9477 170.457 99.9477Z" fill="#A0616A"/>
<path id="Vector_25" d="M144.474 253.946L151.32 253.946L154.577 227.539L144.473 227.539L144.474 253.946Z" fill="#A0616A"/>
<path id="Vector_26" d="M144.233 261.088L165.286 261.087V260.821C165.286 258.647 164.422 256.563 162.886 255.027C161.349 253.49 159.265 252.627 157.091 252.626H157.091L153.245 249.709L146.071 252.627L144.233 252.627L144.233 261.088Z" fill="#2F2E41"/>
<path id="Vector_27" d="M70.8329 245.405L76.9585 248.461L91.6648 226.288L82.6239 221.776L70.8329 245.405Z" fill="#A0616A"/>
<path id="Vector_28" d="M67.4277 251.687L86.265 261.088L86.3839 260.849C87.3542 258.905 87.5124 256.655 86.8237 254.593C86.135 252.532 84.6557 250.829 82.7113 249.858L82.7108 249.858L80.5728 245.531L72.85 244.937L71.2057 244.117L67.4277 251.687Z" fill="#2F2E41"/>
<path id="Vector_29" d="M225.45 261.113H0V262H225.45V261.113Z" fill="#CCCCCC"/>
<path id="Vector_30" d="M100.213 142.41C100.213 142.41 97.4766 175.306 96.8892 182.355C96.4864 186.774 95.4988 191.119 93.9521 195.278C93.9521 195.278 92.7773 197.628 92.7773 199.977L79.4624 224.176C79.4624 224.176 75.3936 227.166 75.981 229.516C76.5685 231.866 73.5279 233.275 73.5279 233.275L87.5497 235.978C87.5497 235.978 86.9623 234.215 88.7246 233.628C90.4868 233.041 91.8896 227.946 91.8896 227.946L111.575 195.865L125.673 166.494C125.673 166.494 133.897 192.928 135.659 195.865C135.659 195.865 142.121 228.761 143.295 231.698C144.47 234.635 145.058 234.635 144.47 235.81C143.883 236.985 143.883 238.16 144.47 238.747C145.058 239.335 156.219 238.747 156.219 238.747L153.282 197.04L147.995 147.11L120.973 138.886L100.213 142.41Z" fill="#2F2E41"/>
<path id="Vector_31" d="M126.668 63.8785C133.481 63.8785 139.004 58.3556 139.004 51.5427C139.004 44.7298 133.481 39.2069 126.668 39.2069C119.855 39.2069 114.332 44.7298 114.332 51.5427C114.332 58.3556 119.855 63.8785 126.668 63.8785Z" fill="#A0616A"/>
<path id="Vector_32" d="M149.17 81.906L134.485 73.0088C134.485 73.0088 134.077 67.4839 129.893 67.224C127.793 67.0934 124.64 66.8939 119.91 66.5889C118.91 66.5244 118.235 71.9941 117.09 71.9199L101.589 76.0318L103.938 115.976C103.938 115.976 100.414 131.837 101.589 134.774C102.763 137.711 98.6514 138.886 99.8263 139.473C101.001 140.061 99.8263 144.172 99.8263 144.172C99.8263 144.172 122.736 155.921 147.995 147.11L145.645 139.473C145.965 138.475 146.025 137.412 145.819 136.384C145.614 135.356 145.149 134.397 144.47 133.599C144.47 133.599 146.82 130.074 143.883 127.137C143.883 127.137 145.058 121.851 142.12 119.501L141.533 111.277L143.295 107.165L149.17 81.906Z" fill="#E6E6E6"/>
<path id="Vector_33" d="M115.964 58.5898L115.619 57.7889C115.574 57.6854 111.212 47.3723 115.079 41.0109C116.869 38.0659 120.123 36.4032 124.752 36.0694C131.995 35.5457 136.952 37.2638 139.49 41.1724C139.916 41.8349 140.155 42.5997 140.182 43.3865C140.21 44.1733 140.025 44.9531 139.647 45.6438C139.269 46.3344 138.712 46.9106 138.035 47.3115C137.357 47.7125 136.584 47.9234 135.797 47.9223H135.699L134.369 46.1943L134.291 46.3624C133.809 47.4048 132.703 47.9754 131.407 47.8504C131.186 47.8346 130.991 48.0249 130.834 48.4321C130.782 48.6102 130.682 48.7709 130.545 48.8971C130.409 49.0234 130.241 49.1107 130.06 49.1498C129.102 49.3362 127.737 48.13 127.126 47.5288C127.103 47.6672 127.05 47.7988 126.971 47.915C126.892 48.0311 126.789 48.1289 126.669 48.2018C126.025 48.5733 125.023 48.088 124.736 47.9335C122.444 48.4203 120.961 48.2901 120.326 47.547C119.895 50.5947 118.97 56.0806 117.862 56.3847C117.746 56.4113 117.625 56.4 117.516 56.3524C117.407 56.3048 117.316 56.2234 117.257 56.1202C116.99 55.7737 116.751 55.601 116.602 55.6495C116.242 55.7642 116.029 56.9519 115.998 57.7184L115.964 58.5898Z" fill="#2F2E41"/>
<path id="Vector_34" d="M142.708 82.4934L148.568 81.5414C152.789 85.5971 155.664 90.8501 156.806 96.5915C158.568 105.99 159.156 107.752 159.156 107.752L145.058 111.277L137.421 96.5915L142.708 82.4934Z" fill="#E6E6E6"/>
<path id="Vector_35" d="M116.706 94.7183L113.085 140.625L205.498 147.915L209.119 102.008L116.706 94.7183Z" fill="white"/>
<path id="Vector_36" d="M126.579 98.2749C124.318 96.6599 121.446 96.5431 120.349 96.5663C120.684 97.6109 121.724 100.29 123.985 101.906C126.253 103.525 129.12 103.638 130.215 103.615C129.881 102.571 128.841 99.8911 126.579 98.2749Z" fill="#FF495C"/>
<path id="Vector_37" d="M135.501 127.486L120.662 126.316C120.223 126.281 119.782 126.333 119.364 126.469C118.946 126.605 118.558 126.822 118.224 127.107C117.889 127.393 117.614 127.742 117.415 128.133C117.215 128.525 117.094 128.953 117.06 129.391C117.025 129.83 117.077 130.271 117.213 130.689C117.349 131.107 117.566 131.495 117.851 131.829C118.137 132.164 118.486 132.439 118.878 132.638C119.269 132.838 119.697 132.959 120.135 132.993V132.993L134.974 134.164C135.86 134.234 136.737 133.949 137.412 133.372C138.088 132.795 138.506 131.974 138.576 131.088C138.646 130.203 138.361 129.326 137.785 128.65C137.208 127.975 136.386 127.556 135.501 127.486V127.486Z" fill="#FF495C"/>
<path id="Vector_38" d="M205.476 97.546L122.279 90.9824C121.311 90.9062 120.338 91.0214 119.415 91.3213C118.492 91.6212 117.637 92.1001 116.899 92.7305C116.16 93.3608 115.554 94.1305 115.113 94.9953C114.672 95.8602 114.406 96.8034 114.33 97.7711L111.13 138.304C110.977 140.259 111.606 142.195 112.879 143.686C114.152 145.177 115.965 146.102 117.92 146.257L201.117 152.82C202.085 152.896 203.058 152.781 203.981 152.481C204.905 152.181 205.76 151.702 206.498 151.072C207.236 150.442 207.843 149.672 208.283 148.807C208.724 147.942 208.99 146.999 209.066 146.031L212.107 107.507L212.168 106.72L212.265 105.495C212.341 104.527 212.226 103.554 211.926 102.631C211.626 101.708 211.147 100.853 210.517 100.114C209.886 99.3763 209.117 98.7695 208.252 98.3288C207.387 97.8882 206.444 97.6221 205.476 97.546V97.546ZM203.019 132.812L202.492 139.489C202.396 140.669 201.837 141.762 200.936 142.53C200.036 143.298 198.869 143.679 197.689 143.588L186.558 142.711C185.379 142.615 184.286 142.056 183.517 141.155C182.749 140.255 182.369 139.088 182.459 137.908L182.986 131.23C183.083 130.051 183.643 128.958 184.543 128.19C185.443 127.422 186.61 127.041 187.79 127.131L198.917 128.009C200.096 128.106 201.189 128.665 201.958 129.565C202.726 130.464 203.108 131.632 203.019 132.812V132.812ZM116.323 129.33C116.41 128.249 116.921 127.247 117.746 126.543C118.57 125.839 119.64 125.491 120.721 125.575L135.559 126.746C136.095 126.787 136.618 126.934 137.097 127.177C137.576 127.421 138.003 127.756 138.353 128.165C138.702 128.573 138.968 129.047 139.134 129.558C139.301 130.069 139.365 130.608 139.323 131.144C139.282 131.68 139.135 132.202 138.891 132.681C138.647 133.161 138.311 133.587 137.902 133.936C137.494 134.286 137.02 134.551 136.509 134.717C135.997 134.883 135.458 134.947 134.923 134.905L134.915 134.907L120.076 133.735C119.541 133.693 119.018 133.545 118.54 133.301C118.061 133.057 117.635 132.72 117.286 132.311C116.938 131.902 116.673 131.428 116.508 130.916C116.343 130.405 116.28 129.865 116.323 129.33V129.33ZM119.5 96.3017L119.399 95.8866L119.826 95.8475C119.992 95.8295 123.94 95.4752 127.012 97.67C130.085 99.8648 131.027 103.716 131.068 103.877L131.165 104.293L130.74 104.336C130.135 104.381 129.528 104.377 128.924 104.324C127.003 104.211 125.148 103.585 123.552 102.509C120.479 100.314 119.537 96.4637 119.5 96.3017V96.3017Z" fill="#FF495C"/>
<path id="Vector_39" d="M190.537 137.24L185.714 136.86C185.37 136.833 185.03 136.944 184.768 137.169C184.506 137.393 184.343 137.712 184.316 138.056C184.289 138.4 184.399 138.741 184.623 139.003C184.847 139.266 185.166 139.429 185.51 139.457L190.332 139.837C190.676 139.864 191.017 139.753 191.279 139.528C191.541 139.304 191.704 138.985 191.731 138.641C191.758 138.297 191.647 137.956 191.424 137.694C191.2 137.431 190.881 137.268 190.537 137.24V137.24Z" fill="#FF495C"/>
<path id="Vector_40" d="M199.44 137.943L194.618 137.562C194.274 137.536 193.934 137.647 193.672 137.871C193.41 138.096 193.247 138.415 193.22 138.758C193.193 139.102 193.303 139.443 193.527 139.705C193.75 139.968 194.069 140.131 194.413 140.159L199.236 140.539C199.579 140.566 199.92 140.454 200.182 140.23C200.444 140.006 200.606 139.687 200.633 139.343C200.66 138.999 200.55 138.659 200.326 138.396C200.103 138.134 199.784 137.971 199.44 137.943V137.943Z" fill="#FF495C"/>
<path id="Vector_41" d="M190.8 133.901L185.978 133.521C185.634 133.495 185.294 133.606 185.032 133.83C184.77 134.054 184.607 134.373 184.58 134.717C184.553 135.061 184.663 135.402 184.887 135.664C185.111 135.927 185.429 136.09 185.773 136.118L190.596 136.498C190.94 136.525 191.28 136.414 191.542 136.19C191.804 135.965 191.967 135.646 191.994 135.302C192.021 134.958 191.911 134.617 191.687 134.355C191.463 134.092 191.144 133.929 190.8 133.901V133.901Z" fill="#FF495C"/>
<path id="Vector_42" d="M199.704 134.604L194.881 134.223C194.537 134.197 194.197 134.308 193.934 134.532C193.672 134.756 193.51 135.076 193.483 135.42C193.455 135.764 193.566 136.104 193.79 136.367C194.013 136.629 194.332 136.792 194.676 136.82L199.499 137.201C199.843 137.227 200.183 137.116 200.446 136.892C200.708 136.668 200.87 136.348 200.897 136.004C200.925 135.661 200.814 135.32 200.59 135.057C200.367 134.795 200.048 134.632 199.704 134.604V134.604Z" fill="#FF495C"/>
<path id="Vector_43" d="M191.064 130.563L186.241 130.182C185.897 130.156 185.557 130.267 185.294 130.491C185.032 130.715 184.87 131.034 184.843 131.378C184.815 131.722 184.926 132.063 185.15 132.326C185.373 132.588 185.692 132.751 186.036 132.779L190.859 133.16C191.203 133.186 191.543 133.075 191.805 132.85C192.067 132.626 192.229 132.307 192.257 131.963C192.284 131.619 192.173 131.279 191.95 131.016C191.726 130.754 191.407 130.591 191.064 130.563V130.563Z" fill="#FF495C"/>
<path id="Vector_44" d="M199.967 131.265L195.144 130.885C194.801 130.858 194.46 130.97 194.198 131.194C193.936 131.418 193.774 131.737 193.747 132.081C193.72 132.425 193.83 132.765 194.054 133.028C194.277 133.29 194.596 133.453 194.94 133.481L199.762 133.862C200.106 133.888 200.446 133.777 200.708 133.553C200.97 133.328 201.133 133.009 201.16 132.666C201.187 132.322 201.077 131.981 200.853 131.719C200.629 131.456 200.311 131.293 199.967 131.265V131.265Z" fill="#FF495C"/>
<path id="Vector_45" d="M113.093 110.56L113.031 111.349L210.694 119.021L210.756 118.232L113.093 110.56Z" fill="white"/>
<path id="Vector_46" d="M212.168 106.72L212.107 107.507L208.708 107.24L172.495 104.396L172.56 103.607L208.769 106.453L212.168 106.72Z" fill="#3F3D56"/>
<path id="Vector_47" d="M92.7773 98.3538C92.7773 98.3538 87.4905 120.676 93.9521 120.676C100.414 120.676 115.687 95.4166 115.687 95.4166L110.4 88.955L100.911 102.13L100.414 95.4167L92.7773 98.3538Z" fill="#A0616A"/>
<path id="Vector_48" d="M114.278 96.3871C117.118 96.3871 119.421 94.0844 119.421 91.2438C119.421 88.4033 117.118 86.1006 114.278 86.1006C111.437 86.1006 109.135 88.4033 109.135 91.2438C109.135 94.0844 111.437 96.3871 114.278 96.3871Z" fill="#A0616A"/>
<path id="Vector_49" d="M105.868 79.5563L102.343 76.0318C102.343 76.0318 95.2941 80.1437 94.7067 84.2557C94.1193 88.3676 91.1822 101.291 91.1822 101.291L102.049 102.172L105.574 96.8852L105.868 79.5563Z" fill="#E6E6E6"/>
</g>
</g>
<defs>
<clipPath id="clip0_5_1052">
<rect width="357.793" height="232" fill="white" transform="translate(0 30)"/>
</clipPath>
</defs>
</svg>
