<svg width="358" height="233" viewBox="0 0 358 233" fill="none" xmlns="http://www.w3.org/2000/svg">
<g clip-path="url(#clip0_222_5066)">
<path d="M11.4431 178.559C13.2162 160.46 23.9333 142.394 40.9853 136.074C34.6842 154.82 35.2168 175.19 42.4888 193.581C45.319 200.663 49.2043 208.246 46.9054 215.518C45.4751 220.043 41.7794 223.573 37.6042 225.828C33.4289 228.084 28.7597 229.229 24.1487 230.352L23.2557 231.131C15.461 214.7 9.66994 196.658 11.4431 178.559Z" fill="#F0F0F0"/>
<path d="M41.1649 136.411C31.5371 147.775 25.4773 162.288 24.4178 177.167C24.1888 180.383 24.2364 183.666 25.0202 186.811C25.8078 189.87 27.4001 192.662 29.6318 194.898C31.6708 197.024 34.0027 198.962 35.4893 201.547C37.0563 204.272 37.1956 207.41 36.2487 210.372C35.0901 213.996 32.6985 216.988 30.258 219.832C27.5482 222.99 24.6836 226.228 23.6042 230.349C23.4735 230.848 22.7063 230.616 22.8369 230.118C24.7148 222.947 31.5177 218.725 34.6452 212.229C36.1045 209.198 36.6593 205.709 35.1357 202.589C33.8035 199.861 31.4006 197.86 29.3175 195.725C27.1302 193.483 25.4333 191.005 24.5137 187.986C23.573 184.897 23.3969 181.609 23.5427 178.401C23.9276 171.128 25.4537 163.96 28.0651 157.161C31.0024 149.385 35.2483 142.168 40.6191 135.824C40.9517 135.431 41.4953 136.021 41.1649 136.411L41.1649 136.411Z" fill="white"/>
<path d="M24.5071 172.312C22.0155 171.776 19.7959 170.371 18.2444 168.349C16.693 166.327 15.9109 163.819 16.0377 161.274C16.0438 161.17 16.0899 161.073 16.1664 161.002C16.2429 160.932 16.3437 160.894 16.4476 160.896C16.5515 160.899 16.6504 160.942 16.7235 161.016C16.7965 161.09 16.838 161.189 16.8391 161.293C16.7167 163.663 17.4455 165.999 18.894 167.879C20.3426 169.759 22.4154 171.059 24.7384 171.545C25.2431 171.651 25.0089 172.418 24.5071 172.312Z" fill="white"/>
<path d="M28.456 193.956C32.858 191.169 36.0481 186.826 37.39 181.792C37.5225 181.293 38.2898 181.525 38.1574 182.023C36.7512 187.259 33.4223 191.772 28.835 194.662C28.3976 194.937 28.0209 194.229 28.456 193.956Z" fill="white"/>
<path d="M31.7655 150.124C32.6862 150.533 33.6941 150.706 34.6984 150.629C35.7027 150.552 36.6721 150.226 37.5196 149.682C37.9533 149.401 38.3295 150.109 37.8986 150.388C36.9595 150.985 35.8885 151.343 34.779 151.431C33.6695 151.519 32.5555 151.334 31.5341 150.892C31.4343 150.858 31.3511 150.788 31.3013 150.695C31.2515 150.602 31.2389 150.494 31.2661 150.392C31.2972 150.291 31.3672 150.206 31.4607 150.156C31.5542 150.106 31.6637 150.094 31.7655 150.124H31.7655Z" fill="white"/>
<path d="M94.2689 166.929C94.0031 167.112 93.7372 167.295 93.4712 167.485C89.9099 169.962 86.5558 172.724 83.4418 175.745C83.1974 175.974 82.9531 176.211 82.7157 176.447C75.2911 183.804 69.2969 192.475 65.0377 202.02C63.3463 205.819 61.9465 209.742 60.8503 213.754C59.3368 219.295 58.1366 225.423 54.9741 230.006C54.6495 230.487 54.2954 230.949 53.9138 231.387L24.2748 232.159C24.2066 232.127 24.1382 232.102 24.0696 232.07L22.8876 232.155C22.9297 231.944 22.9779 231.726 23.02 231.515C23.0439 231.393 23.0744 231.27 23.0983 231.148C23.1163 231.066 23.1347 230.985 23.1463 230.91C23.1522 230.883 23.1584 230.856 23.1645 230.835C23.1761 230.76 23.1948 230.692 23.2065 230.624C23.4725 229.406 23.7474 228.188 24.0314 226.969C24.0313 226.962 24.0313 226.962 24.0377 226.955C26.2252 217.675 29.2068 208.496 33.4867 200.061C33.6156 199.807 33.7439 199.547 33.8863 199.293C35.8366 195.501 38.0936 191.876 40.6345 188.452C42.0319 186.582 43.5231 184.784 45.1023 183.064C49.1913 178.63 53.9525 174.865 59.2112 171.91C69.6952 166.02 81.9463 163.549 93.3964 166.681C93.6893 166.762 93.9758 166.842 94.2689 166.929Z" fill="#F0F0F0"/>
<path d="M94.212 167.307C79.6829 170.584 66.1065 178.524 56.3026 189.766C54.183 192.196 52.2444 194.846 50.9772 197.828C49.7643 200.745 49.3546 203.933 49.7906 207.062C50.1385 209.987 50.8331 212.939 50.4639 215.898C50.0747 219.016 48.2964 221.606 45.757 223.401C42.65 225.597 38.9392 226.546 35.278 227.348C31.2131 228.238 26.9767 229.098 23.6336 231.739C23.2285 232.059 22.7557 231.412 23.1602 231.092C28.9767 226.498 36.9506 227.222 43.3586 223.918C46.3487 222.377 48.8923 219.925 49.5542 216.517C50.1329 213.537 49.4192 210.492 49.0413 207.533C48.6445 204.426 48.7815 201.426 49.8652 198.462C50.9738 195.429 52.8129 192.698 54.861 190.224C59.5473 184.648 65.081 179.844 71.2596 175.988C78.2867 171.548 86.0216 168.342 94.1297 166.51C94.6316 166.397 94.7106 167.195 94.212 167.307H94.212Z" fill="white"/>
<path d="M59.2966 185.943C57.6303 184.015 56.7037 181.557 56.6824 179.008C56.6611 176.46 57.5463 173.987 59.1801 172.031C59.5121 171.636 60.141 172.133 59.8086 172.528C58.2838 174.347 57.4594 176.651 57.4841 179.024C57.5088 181.397 58.381 183.683 59.9433 185.47C60.2824 185.859 59.6337 186.33 59.2966 185.943Z" fill="white"/>
<path d="M49.4188 205.602C54.6114 206.027 59.7735 204.48 63.8758 201.268C64.282 200.95 64.7549 201.597 64.3492 201.915C60.074 205.249 54.6987 206.848 49.2963 206.394C48.7814 206.35 48.9067 205.558 49.4188 205.602H49.4188Z" fill="white"/>
<path d="M78.4507 172.598C78.9399 173.478 79.6402 174.223 80.4887 174.766C81.3371 175.309 82.3071 175.633 83.3116 175.709C83.8268 175.746 83.7008 176.537 83.189 176.501C82.0796 176.412 81.0088 176.053 80.07 175.455C79.1313 174.858 78.3533 174.039 77.8039 173.071C77.7445 172.984 77.7204 172.878 77.7365 172.774C77.7526 172.67 77.8077 172.576 77.8906 172.511C77.9766 172.449 78.0836 172.423 78.1885 172.439C78.2934 172.455 78.3876 172.512 78.4507 172.598Z" fill="white"/>
<path d="M268.224 16.3797C267.781 15.073 262.232 10.6313 265.632 9.88472L268.421 13.6031L281.242 0.782288L282.531 2.07176L268.224 16.3797Z" fill="#FF495C"/>
<path d="M268.224 59.9759C267.781 58.6692 262.232 54.2274 265.632 53.4809L268.421 57.1992L281.242 44.3784L282.531 45.6679L268.224 59.9759Z" fill="#FF495C"/>
<path d="M268.224 104.195C267.781 102.888 262.232 98.4463 265.632 97.6998L268.421 101.418L281.242 88.5973L282.531 89.8868L268.224 104.195Z" fill="#FF495C"/>
<path d="M256.417 68.4449C258.602 68.4449 260.374 66.6736 260.374 64.4886C260.374 62.3036 258.602 60.5323 256.417 60.5323C254.232 60.5323 252.461 62.3036 252.461 64.4886C252.461 66.6736 254.232 68.4449 256.417 68.4449Z" fill="#3F3D56"/>
<path d="M256.417 25.3212C258.602 25.3212 260.374 23.5499 260.374 21.3649C260.374 19.1799 258.602 17.4086 256.417 17.4086C254.232 17.4086 252.461 19.1799 252.461 21.3649C252.461 23.5499 254.232 25.3212 256.417 25.3212Z" fill="#3F3D56"/>
<path d="M357.897 12.2654H294.2V13.0566H357.897V12.2654Z" fill="#3F3D56"/>
<path d="M258.396 114.415C260.581 114.415 262.352 112.644 262.352 110.458C262.352 108.273 260.581 106.502 258.396 106.502C256.211 106.502 254.439 108.273 254.439 110.458C254.439 112.644 256.211 114.415 258.396 114.415Z" fill="#3F3D56"/>
<path d="M357.897 55.8614H294.2V56.6527H357.897V55.8614Z" fill="#3F3D56"/>
<path d="M357.897 100.08H294.2V100.872H357.897V100.08Z" fill="#3F3D56"/>
<path d="M278.216 110.09H258.434V89.9125H271.886V90.7038H259.226V109.298H277.425V100.199H278.216V110.09Z" fill="#3F3D56"/>
<path d="M278.216 65.779H258.434V45.6019H271.886V46.3931H259.226V64.9878H277.425V55.8883H278.216V65.779Z" fill="#3F3D56"/>
<path d="M278.216 20.6772H258.434V0.5H271.886V1.29126H259.226V19.8859H277.425V10.7864H278.216V20.6772Z" fill="#3F3D56"/>
<path d="M149.06 72.4144C149.06 72.4144 143.773 94.7364 150.235 94.7364C156.697 94.7364 171.97 69.4773 171.97 69.4773L166.683 63.0157L157.194 76.1902L156.697 69.4773L149.06 72.4144Z" fill="#A0616A"/>
<path d="M170.561 70.4477C173.401 70.4477 175.704 68.145 175.704 65.3045C175.704 62.464 173.401 60.1613 170.561 60.1613C167.72 60.1613 165.418 62.464 165.418 65.3045C165.418 68.145 167.72 70.4477 170.561 70.4477Z" fill="#A0616A"/>
<path d="M144.578 224.446L151.423 224.446L154.681 198.039L144.576 198.039L144.578 224.446Z" fill="#A0616A"/>
<path d="M144.337 231.588L165.389 231.587V231.321C165.389 229.147 164.526 227.063 162.989 225.527C161.452 223.99 159.368 223.127 157.195 223.126H157.194L153.349 220.209L146.174 223.127L144.336 223.127L144.337 231.588Z" fill="#2F2E41"/>
<path d="M70.9363 215.905L77.0619 218.961L91.7683 196.788L82.7273 192.276L70.9363 215.905Z" fill="#A0616A"/>
<path d="M67.5312 222.187L86.3684 231.588L86.4873 231.349C87.4577 229.405 87.6159 227.155 86.9271 225.093C86.2384 223.032 84.7591 221.329 82.8147 220.358L82.8143 220.358L80.6763 216.031L72.9535 215.437L71.3091 214.617L67.5312 222.187Z" fill="#2F2E41"/>
<path d="M225.554 231.613H0.103455V232.5H225.554V231.613Z" fill="#CCCCCC"/>
<path d="M100.316 112.91C100.316 112.91 97.5801 145.806 96.9927 152.855C96.5899 157.274 95.6022 161.619 94.0556 165.778C94.0556 165.778 92.8807 168.128 92.8807 170.477L79.5659 194.676C79.5659 194.676 75.4971 197.666 76.0845 200.016C76.6719 202.366 73.6314 203.775 73.6314 203.775L87.6532 206.478C87.6532 206.478 87.0658 204.715 88.828 204.128C90.5903 203.541 91.9931 198.446 91.9931 198.446L111.678 166.365L125.776 136.994C125.776 136.994 134 163.428 135.762 166.365C135.762 166.365 142.224 199.261 143.399 202.198C144.574 205.135 145.161 205.135 144.574 206.31C143.986 207.485 143.986 208.66 144.574 209.247C145.161 209.835 156.322 209.247 156.322 209.247L153.385 167.54L148.098 117.61L121.077 109.386L100.316 112.91Z" fill="#2F2E41"/>
<path d="M126.771 34.3785C133.584 34.3785 139.107 28.8556 139.107 22.0427C139.107 15.2298 133.584 9.70691 126.771 9.70691C119.958 9.70691 114.435 15.2298 114.435 22.0427C114.435 28.8556 119.958 34.3785 126.771 34.3785Z" fill="#A0616A"/>
<path d="M149.273 52.406L134.588 43.5088C134.588 43.5088 134.181 37.9839 129.997 37.724C127.896 37.5934 124.744 37.3939 120.013 37.0889C119.013 37.0244 118.339 42.4941 117.193 42.4199L101.692 46.5318L104.042 86.4763C104.042 86.4763 100.517 102.337 101.692 105.274C102.867 108.211 98.7549 109.386 99.9297 109.973C101.105 110.561 99.9297 114.672 99.9297 114.672C99.9297 114.672 122.839 126.421 148.098 117.61L145.748 109.973C146.068 108.975 146.128 107.912 145.923 106.884C145.717 105.856 145.253 104.897 144.574 104.099C144.574 104.099 146.923 100.574 143.986 97.6373C143.986 97.6373 145.161 92.3505 142.224 90.0008L141.636 81.777L143.399 77.665L149.273 52.406Z" fill="#E6E6E6"/>
<path d="M116.067 29.0898L115.722 28.2889C115.678 28.1854 111.315 17.8723 115.182 11.5109C116.972 8.56592 120.227 6.90322 124.856 6.56941C132.099 6.0457 137.056 7.76382 139.594 11.6724C140.019 12.3349 140.258 13.0997 140.286 13.8865C140.313 14.6733 140.129 15.4531 139.751 16.1438C139.373 16.8344 138.816 17.4106 138.138 17.8115C137.461 18.2125 136.688 18.4234 135.9 18.4223H135.803L134.472 16.6943L134.395 16.8624C133.913 17.9048 132.806 18.4754 131.51 18.3504C131.29 18.3346 131.095 18.5249 130.938 18.9321C130.885 19.1102 130.785 19.2709 130.649 19.3971C130.513 19.5234 130.345 19.6107 130.163 19.6498C129.206 19.8362 127.841 18.63 127.23 18.0288C127.206 18.1672 127.153 18.2988 127.074 18.415C126.995 18.5311 126.893 18.6289 126.773 18.7018C126.129 19.0733 125.127 18.588 124.839 18.4335C122.548 18.9203 121.065 18.7901 120.429 18.047C119.998 21.0947 119.074 26.5806 117.965 26.8847C117.849 26.9113 117.728 26.9 117.619 26.8524C117.51 26.8048 117.419 26.7234 117.36 26.6202C117.093 26.2737 116.855 26.101 116.706 26.1495C116.345 26.2642 116.132 27.4519 116.102 28.2184L116.067 29.0898Z" fill="#2F2E41"/>
<path d="M142.811 52.9934L148.671 52.0414C152.892 56.0971 155.768 61.3501 156.909 67.0915C158.672 76.4902 159.259 78.2525 159.259 78.2525L145.161 81.777L137.525 67.0915L142.811 52.9934Z" fill="#E6E6E6"/>
<path d="M116.809 65.2183L113.188 111.125L205.602 118.415L209.223 72.5081L116.809 65.2183Z" fill="white"/>
<path d="M126.683 68.7749C124.421 67.1599 121.55 67.0431 120.453 67.0663C120.787 68.1109 121.827 70.7898 124.089 72.4056C126.356 74.0247 129.224 74.1379 130.319 74.1153C129.984 73.0711 128.944 70.3911 126.683 68.7749Z" fill="#FF495C"/>
<path d="M135.604 97.9862L120.765 96.8157C120.327 96.7811 119.886 96.8332 119.468 96.9691C119.049 97.1049 118.662 97.3218 118.327 97.6074C117.993 97.8929 117.718 98.2416 117.518 98.6334C117.318 99.0253 117.198 99.4526 117.163 99.8911C117.129 100.33 117.181 100.771 117.317 101.189C117.452 101.607 117.669 101.995 117.955 102.329C118.241 102.664 118.589 102.939 118.981 103.138C119.373 103.338 119.8 103.459 120.239 103.493L135.078 104.664C135.963 104.734 136.84 104.449 137.516 103.872C138.191 103.295 138.61 102.474 138.68 101.588C138.75 100.703 138.465 99.8259 137.888 99.1504C137.311 98.4749 136.49 98.0561 135.604 97.9862Z" fill="#FF495C"/>
<path d="M205.58 68.046L122.382 61.4824C121.415 61.4062 120.442 61.5214 119.518 61.8213C118.595 62.1212 117.74 62.6001 117.002 63.2305C116.264 63.8608 115.657 64.6305 115.216 65.4953C114.776 66.3602 114.51 67.3034 114.434 68.2711L111.234 108.804C111.08 110.759 111.709 112.695 112.982 114.186C114.255 115.677 116.069 116.602 118.024 116.757L201.221 123.32C202.188 123.396 203.162 123.281 204.085 122.981C205.008 122.681 205.863 122.202 206.601 121.572C207.339 120.942 207.946 120.172 208.387 119.307C208.827 118.442 209.094 117.499 209.17 116.531L212.21 78.0067L212.271 77.2196L212.368 75.9949C212.445 75.0272 212.329 74.0539 212.029 73.1308C211.73 72.2076 211.251 71.3525 210.62 70.6144C209.99 69.8763 209.22 69.2695 208.355 68.8288C207.491 68.3882 206.547 68.1221 205.58 68.046ZM203.123 103.312L202.596 109.989C202.499 111.169 201.94 112.262 201.04 113.03C200.14 113.798 198.972 114.179 197.792 114.088L186.662 113.211C185.482 113.115 184.389 112.556 183.621 111.655C182.853 110.755 182.472 109.588 182.563 108.408L183.09 101.73C183.187 100.551 183.746 99.4578 184.646 98.6898C185.546 97.9217 186.714 97.5411 187.893 97.631L199.02 98.509C200.199 98.6058 201.293 99.165 202.061 100.065C202.83 100.964 203.212 102.132 203.123 103.312ZM116.427 99.8296C116.513 98.7491 117.025 97.7469 117.849 97.0429C118.673 96.339 119.743 95.9908 120.824 96.0747L135.662 97.246C136.198 97.2874 136.721 97.434 137.2 97.6775C137.68 97.9209 138.106 98.2564 138.456 98.6649C138.806 99.0733 139.071 99.5466 139.238 100.058C139.404 100.569 139.469 101.108 139.427 101.644C139.385 102.18 139.238 102.702 138.994 103.181C138.75 103.661 138.414 104.087 138.006 104.436C137.597 104.786 137.124 105.051 136.612 105.217C136.101 105.383 135.562 105.447 135.026 105.405L135.018 105.407L120.18 104.235C119.644 104.193 119.122 104.045 118.643 103.801C118.164 103.557 117.738 103.22 117.39 102.811C117.041 102.402 116.777 101.928 116.611 101.416C116.446 100.905 116.384 100.365 116.427 99.8296ZM119.604 66.8017L119.502 66.3866L119.929 66.3475C120.096 66.3295 124.043 65.9752 127.116 68.17C130.188 70.3648 131.13 74.2155 131.171 74.3766L131.269 74.7927L130.843 74.8356C130.238 74.8806 129.631 74.8765 129.027 74.8236C127.107 74.7112 125.251 74.0845 123.655 73.0093C120.583 70.8145 119.641 66.9637 119.604 66.8017Z" fill="#FF495C"/>
<path d="M190.64 107.74L185.818 107.36C185.474 107.333 185.133 107.444 184.871 107.669C184.609 107.893 184.446 108.212 184.419 108.556C184.392 108.9 184.503 109.241 184.726 109.503C184.95 109.766 185.269 109.929 185.613 109.957L190.436 110.337C190.78 110.364 191.12 110.253 191.382 110.028C191.645 109.804 191.807 109.485 191.834 109.141C191.861 108.797 191.751 108.456 191.527 108.194C191.303 107.931 190.984 107.768 190.64 107.74Z" fill="#FF495C"/>
<path d="M199.544 108.443L194.721 108.062C194.377 108.036 194.037 108.147 193.775 108.371C193.513 108.596 193.351 108.915 193.323 109.258C193.296 109.602 193.407 109.943 193.63 110.205C193.854 110.468 194.173 110.631 194.516 110.659L199.339 111.039C199.683 111.066 200.023 110.954 200.285 110.73C200.547 110.506 200.709 110.187 200.737 109.843C200.764 109.499 200.653 109.159 200.43 108.896C200.206 108.634 199.888 108.471 199.544 108.443Z" fill="#FF495C"/>
<path d="M190.904 104.401L186.081 104.021C185.737 103.995 185.397 104.106 185.135 104.33C184.873 104.554 184.711 104.873 184.684 105.217C184.656 105.561 184.767 105.902 184.99 106.164C185.214 106.427 185.533 106.59 185.876 106.618L190.699 106.998C191.043 107.025 191.383 106.914 191.646 106.69C191.908 106.465 192.07 106.146 192.098 105.802C192.125 105.458 192.014 105.117 191.79 104.855C191.567 104.592 191.248 104.429 190.904 104.401Z" fill="#FF495C"/>
<path d="M199.807 105.104L194.985 104.723C194.641 104.697 194.3 104.808 194.038 105.032C193.776 105.256 193.613 105.576 193.586 105.92C193.559 106.264 193.669 106.604 193.893 106.867C194.117 107.129 194.436 107.292 194.78 107.32L199.602 107.701C199.946 107.727 200.287 107.616 200.549 107.392C200.811 107.168 200.974 106.848 201.001 106.504C201.028 106.161 200.918 105.82 200.694 105.557C200.47 105.295 200.151 105.132 199.807 105.104Z" fill="#FF495C"/>
<path d="M191.167 101.063L186.345 100.682C186.001 100.656 185.66 100.767 185.398 100.991C185.136 101.215 184.973 101.534 184.946 101.878C184.919 102.222 185.029 102.563 185.253 102.826C185.477 103.088 185.796 103.251 186.14 103.279L190.962 103.66C191.306 103.686 191.646 103.575 191.908 103.35C192.17 103.126 192.333 102.807 192.36 102.463C192.387 102.119 192.277 101.779 192.053 101.516C191.83 101.254 191.511 101.091 191.167 101.063Z" fill="#FF495C"/>
<path d="M200.071 101.765L195.248 101.385C194.904 101.358 194.564 101.47 194.302 101.694C194.04 101.918 193.877 102.237 193.85 102.581C193.823 102.925 193.934 103.265 194.157 103.528C194.381 103.79 194.699 103.953 195.043 103.981L199.866 104.362C200.21 104.388 200.55 104.277 200.812 104.053C201.074 103.828 201.236 103.509 201.263 103.166C201.29 102.822 201.18 102.481 200.957 102.219C200.733 101.956 200.414 101.793 200.071 101.765Z" fill="#FF495C"/>
<path d="M113.197 81.0603L113.135 81.8495L210.797 89.5213L210.859 88.7322L113.197 81.0603Z" fill="white"/>
<path d="M212.271 77.2195L212.21 78.0068L208.811 77.7402L172.598 74.8956L172.663 74.1075L208.873 76.9529L212.271 77.2195Z" fill="#3F3D56"/>
<path d="M92.8808 68.8538C92.8808 68.8538 87.594 91.1757 94.0556 91.1757C100.517 91.1757 115.79 65.9166 115.79 65.9166L110.503 59.455L101.014 72.6295L100.517 65.9167L92.8808 68.8538Z" fill="#A0616A"/>
<path d="M114.381 66.8871C117.222 66.8871 119.524 64.5844 119.524 61.7438C119.524 58.9033 117.222 56.6006 114.381 56.6006C111.541 56.6006 109.238 58.9033 109.238 61.7438C109.238 64.5844 111.541 66.8871 114.381 66.8871Z" fill="#A0616A"/>
<path d="M105.971 50.0563L102.447 46.5318C102.447 46.5318 95.3976 50.6437 94.8102 54.7557C94.2227 58.8676 91.2856 71.7909 91.2856 71.7909L102.153 72.672L105.677 67.3852L105.971 50.0563Z" fill="#E6E6E6"/>
</g>
<defs>
<clipPath id="clip0_222_5066">
<rect width="357.793" height="232" fill="white" transform="translate(0.103455 0.5)"/>
</clipPath>
</defs>
</svg>
