<svg width="75" height="75" viewBox="0 0 198 210" fill="none" xmlns="http://www.w3.org/2000/svg">
<path d="M197 128.848C197 173.113 161.026 209 116.645 209C72.264 209 36.2903 173.113 36.2903 128.848C36.2903 84.5844 72.264 48.697 116.645 48.697C161.026 48.697 197 84.5844 197 128.848Z" fill="#FF495C" stroke="#FF8B97" stroke-width="2"/>
<path d="M4 68.0081L50.9355 83.6142C50.9355 83.6142 57.1936 74.2506 69.7097 64.8869C82.2258 55.5233 94.7419 52.4021 94.7419 52.4021L69.7097 2.46268L54.0645 36.796L35.2903 27.4324L32.1613 58.6445L4 68.0081Z" fill="#FF495C" stroke="#FF8B97" stroke-width="2"/>
<path d="M104.129 128.848C104.129 163.324 151.207 191.273 116.645 191.273C82.0828 191.273 54.0645 163.324 54.0645 128.848C54.0645 94.3725 82.0828 66.4242 116.645 66.4242C151.207 66.4242 104.129 94.3725 104.129 128.848Z" fill="#FF8B97"/>
<path d="M111.04 184C99.9567 184 91.0817 181.917 84.415 177.75C77.7484 173.5 74.415 167.042 74.415 158.375C74.415 153.792 75.2067 150.292 76.79 147.875C78.3734 145.458 80.7067 144.25 83.79 144.25C86.04 144.25 87.8734 144.833 89.29 146C90.7067 147.167 91.415 148.667 91.415 150.5C91.415 152.167 91.29 153.625 91.04 154.875C91.04 155.208 90.9567 155.792 90.79 156.625C90.7067 157.458 90.665 158.333 90.665 159.25C90.665 163 92.54 165.792 96.29 167.625C100.123 169.458 105.457 170.375 112.29 170.375C119.373 170.375 124.915 169.125 128.915 166.625C132.915 164.042 134.915 160.458 134.915 155.875C134.915 153.042 133.998 150.625 132.165 148.625C130.332 146.542 128.04 144.833 125.29 143.5C122.54 142.083 118.665 140.375 113.665 138.375C107.248 135.875 101.998 133.5 97.915 131.25C93.915 129 90.4567 125.958 87.54 122.125C84.7067 118.208 83.29 113.375 83.29 107.625C83.29 101.625 84.8734 96.2917 88.04 91.625C91.29 86.9583 95.915 83.3333 101.915 80.75C107.998 78.1667 115.123 76.875 123.29 76.875C129.373 76.875 134.957 77.7917 140.04 79.625C145.123 81.375 149.165 84.0833 152.165 87.75C155.248 91.4167 156.79 95.9167 156.79 101.25C156.79 106.5 155.998 110.458 154.415 113.125C152.832 115.792 150.498 117.125 147.415 117.125C145.248 117.125 143.415 116.458 141.915 115.125C140.498 113.792 139.79 112.208 139.79 110.375C139.79 108.792 139.915 107.333 140.165 106C140.415 103.5 140.54 101.917 140.54 101.25C140.54 97.75 138.832 95.0833 135.415 93.25C131.998 91.4167 127.748 90.5 122.665 90.5C115.498 90.5 109.998 91.8333 106.165 94.5C102.415 97.0833 100.54 100.75 100.54 105.5C100.54 108.667 101.498 111.375 103.415 113.625C105.415 115.875 107.873 117.75 110.79 119.25C113.707 120.75 117.79 122.542 123.04 124.625C129.373 127.208 134.457 129.542 138.29 131.625C142.123 133.708 145.373 136.542 148.04 140.125C150.79 143.708 152.165 148.125 152.165 153.375C152.165 163.208 148.415 170.792 140.915 176.125C133.498 181.375 123.54 184 111.04 184Z" fill="#3DDC97"/>
<path d="M84.415 177.75L83.8775 178.593L83.885 178.598L84.415 177.75ZM76.79 147.875L75.9536 147.327H75.9536L76.79 147.875ZM89.29 146L89.9257 145.228H89.9257L89.29 146ZM91.04 154.875L90.0595 154.679L90.04 154.776V154.875H91.04ZM90.79 156.625L89.8095 156.429L89.7999 156.477L89.795 156.525L90.79 156.625ZM96.29 167.625L95.8508 168.523L95.8586 168.527L96.29 167.625ZM128.915 166.625L129.445 167.473L129.451 167.469L129.458 167.465L128.915 166.625ZM132.165 148.625L131.414 149.286L131.421 149.293L131.428 149.301L132.165 148.625ZM125.29 143.5L124.832 144.389L124.843 144.395L124.854 144.4L125.29 143.5ZM113.665 138.375L114.036 137.446L114.028 137.443L113.665 138.375ZM97.915 131.25L97.4248 132.122L97.4324 132.126L97.915 131.25ZM87.54 122.125L86.7298 122.711L86.7369 122.721L86.7442 122.731L87.54 122.125ZM88.04 91.625L87.2194 91.0535L87.2126 91.0635L88.04 91.625ZM101.915 80.75L101.524 79.8295L101.52 79.8315L101.915 80.75ZM140.04 79.625L139.701 80.5657L139.708 80.5682L139.715 80.5705L140.04 79.625ZM152.165 87.75L151.391 88.3833L151.4 88.3936L152.165 87.75ZM141.915 115.125L141.23 115.853L141.24 115.863L141.251 115.872L141.915 115.125ZM140.165 106L141.148 106.184L141.156 106.142L141.16 106.099L140.165 106ZM135.415 93.25L135.888 92.3688L135.415 93.25ZM106.165 94.5L106.732 95.3235L106.736 95.3209L106.165 94.5ZM103.415 113.625L102.654 114.273L102.661 114.281L102.668 114.289L103.415 113.625ZM110.79 119.25L111.247 118.361L111.247 118.361L110.79 119.25ZM123.04 124.625L123.418 123.699L123.409 123.696L123.04 124.625ZM148.04 140.125L147.238 140.722L147.242 140.728L147.247 140.734L148.04 140.125ZM140.915 176.125L141.493 176.941L141.495 176.94L140.915 176.125ZM111.04 183C100.071 183 91.4003 180.937 84.945 176.902L83.885 178.598C90.7631 182.897 99.8426 185 111.04 185V183ZM84.9526 176.907C78.6055 172.861 75.415 166.739 75.415 158.375H73.415C73.415 167.344 76.8912 174.139 83.8775 178.593L84.9526 176.907ZM75.415 158.375C75.415 153.882 76.1955 150.607 77.6265 148.423L75.9536 147.327C74.2179 149.976 73.415 153.702 73.415 158.375H75.415ZM77.6265 148.423C79.0107 146.31 81.0168 145.25 83.79 145.25V143.25C80.3966 143.25 77.7361 144.606 75.9536 147.327L77.6265 148.423ZM83.79 145.25C85.8623 145.25 87.4545 145.784 88.6543 146.772L89.9257 145.228C88.2923 143.883 86.2178 143.25 83.79 143.25V145.25ZM88.6543 146.772C89.8406 147.749 90.415 148.966 90.415 150.5H92.415C92.415 148.367 91.5728 146.584 89.9257 145.228L88.6543 146.772ZM90.415 150.5C90.415 152.12 90.2933 153.51 90.0595 154.679L92.0206 155.071C92.2868 153.74 92.415 152.214 92.415 150.5H90.415ZM90.04 154.875C90.04 155.097 89.977 155.591 89.8095 156.429L91.7706 156.821C91.9364 155.992 92.04 155.319 92.04 154.875H90.04ZM89.795 156.525C89.7081 157.395 89.665 158.303 89.665 159.25H91.665C91.665 158.363 91.7053 157.522 91.7851 156.725L89.795 156.525ZM89.665 159.25C89.665 161.3 90.1804 163.134 91.2411 164.714C92.2978 166.287 93.8556 167.548 95.8508 168.523L96.7292 166.727C94.9745 165.869 93.7198 164.817 92.9014 163.599C92.0872 162.386 91.665 160.95 91.665 159.25H89.665ZM95.8586 168.527C99.8842 170.452 105.388 171.375 112.29 171.375V169.375C105.525 169.375 100.363 168.464 96.7215 166.723L95.8586 168.527ZM112.29 171.375C119.473 171.375 125.225 170.11 129.445 167.473L128.385 165.777C124.605 168.14 119.274 169.375 112.29 169.375V171.375ZM129.458 167.465C133.729 164.706 135.915 160.813 135.915 155.875H133.915C133.915 160.103 132.101 163.377 128.373 165.785L129.458 167.465ZM135.915 155.875C135.915 152.804 134.913 150.142 132.902 147.949L131.428 149.301C133.084 151.107 133.915 153.28 133.915 155.875H135.915ZM132.916 147.964C130.986 145.772 128.584 143.986 125.726 142.6L124.854 144.4C127.496 145.681 129.677 147.312 131.414 149.286L132.916 147.964ZM125.748 142.611C122.957 141.173 119.048 139.451 114.036 137.447L113.294 139.303C118.282 141.299 122.124 142.994 124.832 144.389L125.748 142.611ZM114.028 137.443C107.635 134.952 102.429 132.595 98.3976 130.374L97.4324 132.126C101.568 134.405 106.862 136.798 113.302 139.307L114.028 137.443ZM98.4053 130.378C94.5301 128.199 91.1741 125.25 88.3359 121.519L86.7442 122.731C89.7393 126.667 93.3 129.801 97.4248 132.122L98.4053 130.378ZM88.3503 121.539C85.6623 117.823 84.29 113.205 84.29 107.625H82.29C82.29 113.545 83.7511 118.593 86.7298 122.711L88.3503 121.539ZM84.29 107.625C84.29 101.812 85.8206 96.6767 88.8675 92.1865L87.2126 91.0635C83.9261 95.9066 82.29 101.438 82.29 107.625H84.29ZM88.8606 92.1965C91.989 87.7046 96.4558 84.1893 102.31 81.6685L101.52 79.8315C95.3743 82.4774 90.5911 86.2121 87.2194 91.0535L88.8606 92.1965ZM102.306 81.6704C108.24 79.1504 115.227 77.875 123.29 77.875V75.875C115.02 75.875 107.757 77.1829 101.524 79.8296L102.306 81.6704ZM123.29 77.875C129.272 77.875 134.739 78.7762 139.701 80.5657L140.379 78.6843C135.174 76.8071 129.475 75.875 123.29 75.875V77.875ZM139.715 80.5705C144.647 82.2684 148.524 84.8789 151.391 88.3832L152.939 87.1168C149.806 83.2877 145.6 80.4816 140.366 78.6795L139.715 80.5705ZM151.4 88.3936C154.314 91.8594 155.79 96.1237 155.79 101.25H157.79C157.79 95.7097 156.183 90.9739 152.93 87.1064L151.4 88.3936ZM155.79 101.25C155.79 106.43 155.003 110.175 153.555 112.614L155.275 113.636C156.993 110.741 157.79 106.57 157.79 101.25H155.79ZM153.555 112.614C152.151 114.98 150.143 116.125 147.415 116.125V118.125C150.854 118.125 153.513 116.603 155.275 113.636L153.555 112.614ZM147.415 116.125C145.472 116.125 143.881 115.535 142.579 114.378L141.251 115.872C142.949 117.382 145.025 118.125 147.415 118.125V116.125ZM142.6 114.397C141.371 113.239 140.79 111.914 140.79 110.375H138.79C138.79 112.502 139.626 114.344 141.23 115.853L142.6 114.397ZM140.79 110.375C140.79 108.844 140.911 107.448 141.148 106.184L139.182 105.816C138.919 107.219 138.79 108.74 138.79 110.375H140.79ZM141.16 106.099C141.408 103.616 141.54 101.977 141.54 101.25H139.54C139.54 101.856 139.422 103.384 139.17 105.9L141.16 106.099ZM141.54 101.25C141.54 99.3296 141.069 97.5966 140.101 96.0856C139.136 94.5799 137.713 93.3482 135.888 92.3688L134.942 94.1312C136.534 94.9852 137.673 96.0035 138.417 97.1644C139.157 98.3201 139.54 99.6704 139.54 101.25H141.54ZM135.888 92.3688C132.288 90.437 127.864 89.5 122.665 89.5V91.5C127.633 91.5 131.709 92.3963 134.942 94.1312L135.888 92.3688ZM122.665 89.5C115.396 89.5 109.663 90.8487 105.594 93.6791L106.736 95.3209C110.334 92.818 115.601 91.5 122.665 91.5V89.5ZM105.598 93.6765C101.563 96.4558 99.54 100.438 99.54 105.5H101.54C101.54 101.062 103.267 97.7108 106.732 95.3235L105.598 93.6765ZM99.54 105.5C99.54 108.886 100.572 111.829 102.654 114.273L104.176 112.977C102.425 110.921 101.54 108.447 101.54 105.5H99.54ZM102.668 114.289C104.757 116.64 107.316 118.588 110.333 120.139L111.247 118.361C108.431 116.912 106.073 115.11 104.162 112.961L102.668 114.289ZM110.333 120.139C113.291 121.661 117.409 123.466 122.671 125.554L123.409 123.696C118.171 121.617 114.122 119.839 111.247 118.361L110.333 120.139ZM122.662 125.551C128.978 128.127 134.024 130.445 137.813 132.504L138.768 130.746C134.889 128.639 129.768 126.289 123.418 123.699L122.662 125.551ZM137.813 132.504C141.515 134.516 144.656 137.252 147.238 140.722L148.842 139.528C146.091 135.831 142.731 132.901 138.768 130.746L137.813 132.504ZM147.247 140.734C149.842 144.115 151.165 148.308 151.165 153.375H153.165C153.165 147.942 151.738 143.302 148.833 139.516L147.247 140.734ZM151.165 153.375C151.165 162.911 147.551 170.179 140.336 175.31L141.495 176.94C149.279 171.404 153.165 163.506 153.165 153.375H151.165ZM140.337 175.309C133.142 180.402 123.409 183 111.04 183V185C123.671 185 133.854 182.348 141.493 176.941L140.337 175.309Z" fill="#FF8B97"/>
</svg>
