<svg width="130" height="138" viewBox="0 0 130 138" fill="none" xmlns="http://www.w3.org/2000/svg">
<path d="M129 85.2121C129 113.813 105.792 137 77.1612 137C48.5306 137 25.3225 113.813 25.3225 85.2121C25.3225 56.6114 48.5306 33.4243 77.1612 33.4243C105.792 33.4243 129 56.6114 129 85.2121Z" fill="#FF495C" stroke="#FF8B97" stroke-width="2"/>
<path d="M4 45.6364L34.4839 55.7879C34.4839 55.7879 38.5484 49.697 46.6774 43.6061C54.8064 37.5152 62.9355 35.4848 62.9355 35.4848L46.6774 3L36.5161 25.3333L24.3226 19.2424L22.2903 39.5455L4 45.6364Z" fill="#FF495C" stroke="#FF8B97" stroke-width="2"/>
<path d="M69.0322 85.2121C69.0322 107.638 99.609 125.818 77.1613 125.818C54.7136 125.818 36.5161 107.638 36.5161 85.2121C36.5161 62.786 54.7136 44.606 77.1613 44.606C99.609 44.606 69.0322 62.786 69.0322 85.2121Z" fill="#FF8B97"/>
</svg>
