<svg width="125" height="45" viewBox="0 0 247 63" fill="none" xmlns="http://www.w3.org/2000/svg">
<path d="M19.3975 62.52C13.6341 62.52 9.01912 61.4367 5.55246 59.27C2.08579 57.06 0.352456 53.7017 0.352456 49.195C0.352456 46.8117 0.764123 44.9917 1.58746 43.735C2.41079 42.4783 3.62412 41.85 5.22746 41.85C6.39746 41.85 7.35079 42.1533 8.08746 42.76C8.82412 43.3667 9.19246 44.1467 9.19246 45.1C9.19246 45.9667 9.12746 46.725 8.99746 47.375C8.99746 47.5483 8.95412 47.8517 8.86746 48.285C8.82412 48.7183 8.80246 49.1733 8.80246 49.65C8.80246 51.6 9.77746 53.0517 11.7275 54.005C13.7208 54.9583 16.4941 55.435 20.0475 55.435C23.7308 55.435 26.6125 54.785 28.6925 53.485C30.7725 52.1417 31.8125 50.2783 31.8125 47.895C31.8125 46.4217 31.3358 45.165 30.3825 44.125C29.4291 43.0417 28.2375 42.1533 26.8075 41.46C25.3775 40.7233 23.3625 39.835 20.7625 38.795C17.4258 37.495 14.6958 36.26 12.5725 35.09C10.4925 33.92 8.69412 32.3383 7.17746 30.345C5.70412 28.3083 4.96746 25.795 4.96746 22.805C4.96746 19.685 5.79079 16.9117 7.43746 14.485C9.12746 12.0583 11.5325 10.1733 14.6525 8.83C17.8158 7.48666 21.5208 6.815 25.7675 6.815C28.9308 6.815 31.8341 7.29166 34.4775 8.245C37.1208 9.155 39.2225 10.5633 40.7825 12.47C42.3858 14.3767 43.1875 16.7167 43.1875 19.49C43.1875 22.22 42.7758 24.2783 41.9525 25.665C41.1291 27.0517 39.9158 27.745 38.3125 27.745C37.1858 27.745 36.2325 27.3983 35.4525 26.705C34.7158 26.0117 34.3475 25.1883 34.3475 24.235C34.3475 23.4117 34.4125 22.6533 34.5425 21.96C34.6725 20.66 34.7375 19.8367 34.7375 19.49C34.7375 17.67 33.8491 16.2833 32.0725 15.33C30.2958 14.3767 28.0858 13.9 25.4425 13.9C21.7158 13.9 18.8558 14.5933 16.8625 15.98C14.9125 17.3233 13.9375 19.23 13.9375 21.7C13.9375 23.3467 14.4358 24.755 15.4325 25.925C16.4725 27.095 17.7508 28.07 19.2675 28.85C20.7841 29.63 22.9075 30.5617 25.6375 31.645C28.9308 32.9883 31.5741 34.2017 33.5675 35.285C35.5608 36.3683 37.2508 37.8417 38.6375 39.705C40.0675 41.5683 40.7825 43.865 40.7825 46.595C40.7825 51.7083 38.8325 55.6517 34.9325 58.425C31.0758 61.155 25.8975 62.52 19.3975 62.52ZM58.3378 62.325C54.0911 62.325 50.7761 61.1333 48.3928 58.75C46.0528 56.3233 44.8828 53.1383 44.8828 49.195C44.8828 45.685 45.5761 42.6083 46.9628 39.965C48.3495 37.3217 50.1478 35.285 52.3578 33.855C54.5678 32.425 56.8861 31.71 59.3128 31.71C61.6961 31.71 63.5378 32.425 64.8378 33.855C66.1811 35.2417 66.8528 37.04 66.8528 39.25C66.8528 41.07 66.4411 42.6083 65.6178 43.865C64.8378 45.1217 63.7978 45.75 62.4978 45.75C61.6745 45.75 61.0028 45.555 60.4828 45.165C60.0061 44.775 59.7678 44.2333 59.7678 43.54C59.7678 43.2367 59.8111 42.89 59.8978 42.5C59.9845 42.11 60.0495 41.8283 60.0928 41.655C60.3095 41.005 60.4178 40.3983 60.4178 39.835C60.4178 39.2717 60.2661 38.8383 59.9628 38.535C59.7028 38.2317 59.3128 38.08 58.7928 38.08C57.7961 38.08 56.8645 38.535 55.9978 39.445C55.1311 40.3117 54.4378 41.5033 53.9178 43.02C53.3978 44.5367 53.1378 46.205 53.1378 48.025C53.1378 53.0517 55.3261 55.565 59.7028 55.565C61.4795 55.565 63.3861 54.98 65.4228 53.81C67.5028 52.5967 69.5395 50.7983 71.5328 48.415C72.0528 47.8083 72.6378 47.505 73.2878 47.505C73.8511 47.505 74.2845 47.765 74.5878 48.285C74.9345 48.805 75.1078 49.52 75.1078 50.43C75.1078 52.0767 74.6961 53.42 73.8728 54.46C71.8361 56.9733 69.3878 58.9233 66.5278 60.31C63.7111 61.6533 60.9811 62.325 58.3378 62.325ZM105.52 47.505C106.084 47.505 106.517 47.765 106.82 48.285C107.167 48.805 107.34 49.52 107.34 50.43C107.34 52.1633 106.929 53.5067 106.105 54.46C104.112 56.7567 102.054 58.6417 99.9305 60.115C97.8505 61.5883 95.4671 62.325 92.7805 62.325C90.5705 62.325 88.9021 61.6967 87.7755 60.44C86.6488 59.14 86.0855 57.2767 86.0855 54.85C86.0855 53.6367 86.3888 51.47 86.9955 48.35C87.5588 45.62 87.8405 43.735 87.8405 42.695C87.8405 42.0017 87.6021 41.655 87.1255 41.655C86.5621 41.655 85.7605 42.3917 84.7205 43.865C83.6805 45.295 82.6405 47.2017 81.6005 49.585C80.5605 51.9683 79.7155 54.4817 79.0655 57.125C78.2421 60.5917 76.2055 62.325 72.9555 62.325C71.6555 62.325 70.7888 61.87 70.3555 60.96C69.9655 60.0067 69.7705 58.3167 69.7705 55.89C69.7705 54.5033 69.7921 53.3983 69.8355 52.575L69.9005 47.375C69.9005 40.7017 70.5721 33.7467 71.9155 26.51C73.3021 19.2733 75.3171 13.2067 77.9605 8.31C80.6471 3.37 83.8538 0.899996 87.5805 0.899996C89.5738 0.899996 91.1771 1.76666 92.3905 3.5C93.6471 5.19 94.2755 7.4 94.2755 10.13C94.2755 14.5067 92.9971 19.0567 90.4405 23.78C87.8838 28.46 83.7238 33.9417 77.9605 40.225C77.8305 42.4783 77.7655 44.7967 77.7655 47.18C79.1955 43.4967 80.7771 40.5067 82.5105 38.21C84.2871 35.87 86.0205 34.2017 87.7105 33.205C89.4438 32.2083 91.0255 31.71 92.4555 31.71C95.2721 31.71 96.6805 33.1183 96.6805 35.935C96.6805 37.625 96.2038 40.68 95.2505 45.1C94.4271 48.87 94.0155 51.3617 94.0155 52.575C94.0155 54.3083 94.6438 55.175 95.9005 55.175C96.7671 55.175 97.7855 54.655 98.9555 53.615C100.169 52.5317 101.772 50.7983 103.765 48.415C104.285 47.8083 104.87 47.505 105.52 47.505ZM86.2155 7.335C85.4355 7.335 84.5688 8.46167 83.6155 10.715C82.6621 12.925 81.7305 15.9367 80.8205 19.75C79.9538 23.52 79.2388 27.6367 78.6755 32.1C81.3621 28.9367 83.5721 25.4917 85.3055 21.765C87.0821 18.0383 87.9705 14.6583 87.9705 11.625C87.9705 10.2383 87.8188 9.17666 87.5155 8.44C87.2121 7.70333 86.7788 7.335 86.2155 7.335ZM106.279 62.325C104.633 62.325 103.463 61.4583 102.769 59.725C102.119 57.9917 101.794 55.2183 101.794 51.405C101.794 45.7717 102.596 40.42 104.199 35.35C104.589 34.0933 105.218 33.1833 106.084 32.62C106.994 32.0133 108.251 31.71 109.854 31.71C110.721 31.71 111.328 31.8183 111.674 32.035C112.021 32.2517 112.194 32.6633 112.194 33.27C112.194 33.9633 111.869 35.5233 111.219 37.95C110.786 39.6833 110.439 41.2 110.179 42.5C109.919 43.7567 109.703 45.3383 109.529 47.245C110.699 43.865 112.086 41.005 113.689 38.665C115.336 36.325 117.004 34.5917 118.694 33.465C120.428 32.295 122.053 31.71 123.569 31.71C125.086 31.71 126.148 32.0567 126.754 32.75C127.404 33.4433 127.729 34.505 127.729 35.935C127.729 37.3217 127.318 39.835 126.494 43.475C126.148 45.035 125.909 46.205 125.779 46.985C127.946 41.655 130.351 37.7767 132.994 35.35C135.638 32.9233 138.108 31.71 140.404 31.71C143.221 31.71 144.629 33.1183 144.629 35.935C144.629 37.625 144.153 40.68 143.199 45.1C142.376 48.87 141.964 51.3617 141.964 52.575C141.964 54.3083 142.593 55.175 143.849 55.175C144.716 55.175 145.734 54.655 146.904 53.615C148.118 52.5317 149.721 50.7983 151.714 48.415C152.234 47.8083 152.819 47.505 153.469 47.505C154.033 47.505 154.466 47.765 154.769 48.285C155.116 48.805 155.289 49.52 155.289 50.43C155.289 52.1633 154.878 53.5067 154.054 54.46C152.191 56.7567 150.176 58.6417 148.009 60.115C145.886 61.5883 143.459 62.325 140.729 62.325C138.519 62.325 136.851 61.6967 135.724 60.44C134.598 59.14 134.034 57.2767 134.034 54.85C134.034 53.6367 134.338 51.47 134.944 48.35C135.508 45.62 135.789 43.735 135.789 42.695C135.789 42.0017 135.551 41.655 135.074 41.655C134.511 41.655 133.709 42.3917 132.669 43.865C131.629 45.295 130.589 47.2017 129.549 49.585C128.509 51.9683 127.664 54.4817 127.014 57.125C126.538 59.205 125.974 60.5917 125.324 61.285C124.718 61.9783 123.721 62.325 122.334 62.325C120.904 62.325 119.821 61.6533 119.084 60.31C118.391 58.9233 118.044 57.255 118.044 55.305C118.044 53.6583 118.261 51.275 118.694 48.155C119.041 45.3817 119.214 43.5617 119.214 42.695C119.214 42.0017 118.976 41.655 118.499 41.655C117.849 41.655 117.026 42.435 116.029 43.995C115.033 45.555 114.058 47.5483 113.104 49.975C112.194 52.4017 111.458 54.785 110.894 57.125C110.418 59.1617 109.854 60.5483 109.204 61.285C108.598 61.9783 107.623 62.325 106.279 62.325ZM182.776 42.045C183.339 42.045 183.772 42.3267 184.076 42.89C184.379 43.4533 184.531 44.1683 184.531 45.035C184.531 47.115 183.902 48.35 182.646 48.74C180.046 49.65 177.186 50.17 174.066 50.3C173.242 53.94 171.617 56.865 169.191 59.075C166.764 61.2417 164.012 62.325 160.936 62.325C158.336 62.325 156.104 61.6967 154.241 60.44C152.421 59.1833 151.034 57.515 150.081 55.435C149.127 53.355 148.651 51.1017 148.651 48.675C148.651 45.3817 149.279 42.4567 150.536 39.9C151.792 37.3 153.526 35.285 155.736 33.855C157.946 32.3817 160.394 31.645 163.081 31.645C166.374 31.645 169.017 32.7933 171.011 35.09C173.047 37.3433 174.239 40.1383 174.586 43.475C176.622 43.345 179.049 42.9117 181.866 42.175C182.212 42.0883 182.516 42.045 182.776 42.045ZM161.456 55.435C162.842 55.435 164.034 54.8717 165.031 53.745C166.071 52.6183 166.764 50.9933 167.111 48.87C165.767 47.96 164.727 46.7683 163.991 45.295C163.297 43.8217 162.951 42.2617 162.951 40.615C162.951 39.9217 163.016 39.2283 163.146 38.535H162.821C161.087 38.535 159.636 39.38 158.466 41.07C157.339 42.7167 156.776 45.0567 156.776 48.09C156.776 50.4733 157.231 52.2933 158.141 53.55C159.094 54.8067 160.199 55.435 161.456 55.435ZM211.694 42.045C212.257 42.045 212.69 42.3267 212.994 42.89C213.297 43.4533 213.449 44.1683 213.449 45.035C213.449 47.115 212.82 48.35 211.564 48.74C208.964 49.65 206.104 50.17 202.984 50.3C202.16 53.94 200.535 56.865 198.109 59.075C195.682 61.2417 192.93 62.325 189.854 62.325C187.254 62.325 185.022 61.6967 183.159 60.44C181.339 59.1833 179.952 57.515 178.999 55.435C178.045 53.355 177.569 51.1017 177.569 48.675C177.569 45.3817 178.197 42.4567 179.454 39.9C180.71 37.3 182.444 35.285 184.654 33.855C186.864 32.3817 189.312 31.645 191.999 31.645C195.292 31.645 197.935 32.7933 199.929 35.09C201.965 37.3433 203.157 40.1383 203.504 43.475C205.54 43.345 207.967 42.9117 210.784 42.175C211.13 42.0883 211.434 42.045 211.694 42.045ZM190.374 55.435C191.76 55.435 192.952 54.8717 193.949 53.745C194.989 52.6183 195.682 50.9933 196.029 48.87C194.685 47.96 193.645 46.7683 192.909 45.295C192.215 43.8217 191.869 42.2617 191.869 40.615C191.869 39.9217 191.934 39.2283 192.064 38.535H191.739C190.005 38.535 188.554 39.38 187.384 41.07C186.257 42.7167 185.694 45.0567 185.694 48.09C185.694 50.4733 186.149 52.2933 187.059 53.55C188.012 54.8067 189.117 55.435 190.374 55.435ZM244.467 47.505C245.031 47.505 245.464 47.765 245.767 48.285C246.114 48.805 246.287 49.52 246.287 50.43C246.287 52.0333 245.876 53.3767 245.052 54.46C243.016 57.1033 240.481 59.1833 237.447 60.7C234.457 62.2167 231.077 62.975 227.307 62.975C224.361 62.975 221.804 62.5417 219.637 61.675C217.471 60.765 215.802 59.5517 214.632 58.035C213.506 56.475 212.942 54.7417 212.942 52.835C212.942 49.975 214.091 47.44 216.387 45.23C218.684 43.02 221.977 40.8967 226.267 38.86L215.607 39.12C214.654 39.1633 213.917 38.8383 213.397 38.145C212.921 37.4083 212.682 36.5417 212.682 35.545C212.682 34.505 212.921 33.595 213.397 32.815C213.917 31.9917 214.611 31.58 215.477 31.58C217.471 31.58 220.136 31.7317 223.472 32.035C224.166 32.0783 225.422 32.165 227.242 32.295C229.106 32.425 230.666 32.49 231.922 32.49C232.356 32.49 233.179 32.3167 234.392 31.97C234.609 31.9267 235.021 31.8183 235.627 31.645C236.277 31.4717 236.819 31.385 237.252 31.385C237.946 31.385 238.509 31.6883 238.942 32.295C239.419 32.9017 239.657 33.8333 239.657 35.09C239.657 36.4767 239.332 37.56 238.682 38.34C238.032 39.12 237.014 39.8133 235.627 40.42C231.684 42.11 228.412 43.93 225.812 45.88C223.212 47.7867 221.912 49.6933 221.912 51.6C221.912 52.8133 222.476 53.81 223.602 54.59C224.729 55.37 226.397 55.76 228.607 55.76C231.034 55.76 233.482 55.1533 235.952 53.94C238.466 52.7267 240.719 50.885 242.712 48.415C243.232 47.8083 243.817 47.505 244.467 47.505Z" fill="#F2F2F7"/>
</svg>
