<svg width="225" height="290" viewBox="0 0 225 290" fill="none" xmlns="http://www.w3.org/2000/svg">
<g clip-path="url(#clip0_5_1213)">
<path d="M225 187.172L184.713 157.96C184.713 157.96 161.636 119.01 157.725 94.0819C153.813 69.1539 136.212 24.751 136.212 24.751V1.38105C136.212 1.38105 115.873 -6.40893 114.309 15.0135C112.744 36.436 118.611 64.0904 118.611 64.0904C118.611 64.0904 124.478 99.1454 111.179 108.104L62.6786 187.172C62.6786 187.172 109.224 229.628 145.599 235.081L225 290V187.172Z" fill="#FFB8B8"/>
<path d="M15.5467 75.1911H14.2186C2.2534 75.1911 -4.47242 89.2581 3.38979 98.24C5.9203 101.131 9.76655 103.132 15.5467 103.235V75.1911Z" fill="#FFB8B8"/>
<path d="M15.5467 103.235H14.2186C2.2534 103.235 -4.47242 117.302 3.38979 126.284C5.9203 129.175 9.76655 131.176 15.5467 131.279V103.235Z" fill="#FFB8B8"/>
<path d="M15.5467 131.279H14.2186C2.2534 131.279 -4.47242 145.346 3.38979 154.328C5.9203 157.219 9.76655 159.22 15.5467 159.323V131.279Z" fill="#FFB8B8"/>
<path d="M15.5467 159.323H14.2186C2.2534 159.323 -4.47242 173.39 3.38979 182.372C5.9203 185.263 9.76655 187.264 15.5467 187.367V159.323Z" fill="#FFB8B8"/>
<path d="M119.393 68.4952H118.229V36.7399C118.229 34.3263 117.752 31.9364 116.824 29.7065C115.897 27.4766 114.537 25.4505 112.823 23.7439C111.11 22.0372 109.075 20.6834 106.836 19.7598C104.597 18.8362 102.197 18.3608 99.7728 18.3608H32.2123C29.7886 18.3608 27.3886 18.8362 25.1493 19.7598C22.9101 20.6834 20.8755 22.0372 19.1617 23.7439C17.4478 25.4505 16.0884 27.4766 15.1608 29.7065C14.2333 31.9364 13.7559 34.3263 13.7559 36.7399V210.952C13.7559 213.365 14.2333 215.755 15.1608 217.985C16.0884 220.215 17.4478 222.241 19.1617 223.948C20.8755 225.655 22.9101 227.008 25.1493 227.932C27.3886 228.856 29.7886 229.331 32.2123 229.331H99.7728C102.197 229.331 104.597 228.856 106.836 227.932C109.075 227.008 111.11 225.655 112.823 223.948C114.537 222.241 115.897 220.215 116.824 217.985C117.752 215.755 118.229 213.365 118.229 210.952V91.0992H119.393V68.4952Z" fill="#3F3D56"/>
<path d="M114.301 36.8683V210.823C114.298 212.857 113.842 214.866 112.967 216.704C112.092 218.543 110.819 220.166 109.239 221.456C108.89 221.741 108.526 222.008 108.148 222.254C105.888 223.754 103.233 224.553 100.517 224.549H32.6315C31.531 224.551 30.4344 224.42 29.3655 224.159C26.3656 223.431 23.6982 221.72 21.7911 219.302C19.8839 216.884 18.8475 213.898 18.8478 210.823V36.8683C18.8482 33.2281 20.3005 29.737 22.8853 27.163C25.4702 24.589 28.9759 23.1427 32.6315 23.1424H40.8688C40.4632 24.1324 40.3084 25.2066 40.418 26.2702C40.5275 27.3339 40.8981 28.3543 41.4971 29.2417C42.0961 30.1291 42.9051 30.8562 43.8527 31.3589C44.8004 31.8615 45.8577 32.1244 46.9314 32.1242H85.6343C86.7077 32.1231 87.7643 31.8595 88.7114 31.3565C89.6585 30.8536 90.4671 30.1267 91.0662 29.2398C91.6652 28.3529 92.0364 27.3331 92.147 26.2699C92.2577 25.2068 92.1045 24.1328 91.7009 23.1424H100.517C104.173 23.1427 107.678 24.5889 110.263 27.163C112.848 29.737 114.3 33.2281 114.301 36.8683Z" fill="#FF495C"/>
<path d="M52.3281 154.23C52.3281 154.23 58.9918 172.663 53.8089 182.985C48.626 193.308 61.9535 205.105 61.9535 205.105C61.9535 205.105 96.7532 187.409 92.3107 178.561C87.8682 169.714 80.464 157.917 81.9448 150.543L52.3281 154.23Z" fill="#FFB8B8"/>
<path d="M65.2854 161.234C78.3709 161.234 88.9788 150.671 88.9788 137.64C88.9788 124.609 78.3709 114.046 65.2854 114.046C52.1999 114.046 41.592 124.609 41.592 137.64C41.592 150.671 52.1999 161.234 65.2854 161.234Z" fill="#FFB8B8"/>
<path d="M111.352 220.432C110.729 221.224 110.02 221.945 109.239 222.582C108.89 222.867 108.526 223.134 108.148 223.381C105.962 224.83 103.341 225.285 100.517 225.285H40.5559L41.5924 196.626L48.2574 181.88C49.7536 183.048 51.3549 184.077 53.041 184.953C53.4399 185.167 53.8624 185.381 54.3044 185.592C60.5469 188.595 70.7516 191.235 80.6434 183.882C83.7569 181.568 86.839 178.261 89.7608 173.665L108.23 184.092L109.2 195.387L111.352 220.432Z" fill="white"/>
<path d="M55.7203 170.845L54.7933 180.493L54.3044 185.592L53.5729 193.183L50.4477 225.675H32.6315C31.531 225.677 30.4344 225.546 29.3655 225.285L22.3407 192.937L22.5441 192.805L55.7203 170.845Z" fill="#2F2E41"/>
<path d="M114.301 177.474V211.949C114.298 213.984 113.842 215.992 112.967 217.831C112.092 219.669 110.819 221.292 109.239 222.582C108.89 222.867 108.526 223.134 108.148 223.381C105.888 224.881 103.233 225.679 100.517 225.675H76.6773C77.1975 214.781 78.1167 204.147 79.1923 194.885C79.6539 190.939 80.1428 187.243 80.6434 183.882C82.2549 173.046 83.9837 165.688 85.2236 164.695L93.4219 170.082L114.301 177.474Z" fill="#2F2E41"/>
<path d="M39.3707 219.482L38.5181 225.675H32.6315C31.531 225.677 30.4344 225.546 29.3655 225.285C26.3656 224.557 23.6982 222.846 21.7911 220.428C19.8839 218.01 18.8475 215.024 18.8478 211.949V210.702L21.6014 192.937L22.5441 192.805L26.784 192.201L39.3707 219.482Z" fill="#2F2E41"/>
<path d="M114.301 181.969V211.949C114.298 213.983 113.842 215.992 112.967 217.831C112.092 219.669 110.819 221.292 109.239 222.582C108.89 222.867 108.526 223.134 108.148 223.381L104.526 207.684L109.2 195.387L114.301 181.969Z" fill="#2F2E41"/>
<path d="M87.8795 116.3C84.2967 110.507 78.6885 106.237 72.1343 104.314L67.3203 108.149L69.1919 103.676C67.618 103.437 66.0251 103.345 64.434 103.402L60.1027 108.948L61.8953 103.592C54.4112 104.542 47.2961 108.602 42.9832 114.794C37.4704 122.71 36.5402 133.718 41.9622 141.695C43.4506 137.141 45.2571 132.867 46.7455 128.312C47.0889 128.458 48.3905 128.449 50.2721 128.329L52.083 124.121L52.5888 128.151C58.2015 127.664 66.5265 126.595 71.8476 125.615L71.3302 122.524L74.4258 125.093C76.056 124.719 77.0239 124.38 76.9439 124.121C80.9013 130.474 84.8224 134.532 88.7797 140.885C90.2819 131.924 92.9338 124.475 87.8795 116.3Z" fill="#2F2E41"/>
<path d="M86.5675 140.093C87.4533 140.093 88.1714 138.663 88.1714 136.899C88.1714 135.135 87.4533 133.705 86.5675 133.705C85.6817 133.705 84.9636 135.135 84.9636 136.899C84.9636 138.663 85.6817 140.093 86.5675 140.093Z" fill="#FFB8B8"/>
<path d="M138.755 220.28C155.064 220.28 168.285 190.809 168.285 154.454C168.285 118.1 155.064 88.6289 138.755 88.6289C122.445 88.6289 109.224 118.1 109.224 154.454C109.224 190.809 122.445 220.28 138.755 220.28Z" fill="#FFB8B8"/>
<path opacity="0.2" d="M32.5458 72.2699C30.9986 72.2699 29.4862 71.813 28.1997 70.9571C26.9133 70.1011 25.9106 68.8845 25.3185 67.461C24.7264 66.0376 24.5715 64.4713 24.8734 62.9602C25.1752 61.4491 25.9202 60.061 27.0143 58.9716C28.1083 57.8821 29.5022 57.1402 31.0196 56.8396C32.5371 56.539 34.11 56.6933 35.5394 57.2829C36.9688 57.8725 38.1906 58.871 39.0501 60.152C39.9097 61.4331 40.3685 62.9392 40.3685 64.4799C40.3661 66.5452 39.5412 68.5253 38.0747 69.9857C36.6081 71.4461 34.6198 72.2675 32.5458 72.2699ZM32.5458 57.4689C31.1533 57.4689 29.7921 57.8801 28.6343 58.6505C27.4765 59.4209 26.5741 60.5158 26.0413 61.7969C25.5084 63.078 25.369 64.4877 25.6406 65.8477C25.9123 67.2077 26.5828 68.4569 27.5674 69.4374C28.5521 70.4179 29.8065 71.0857 31.1723 71.3562C32.538 71.6267 33.9536 71.4879 35.24 70.9572C36.5265 70.4266 37.6261 69.528 38.3997 68.375C39.1733 67.2221 39.5862 65.8666 39.5862 64.4799C39.5841 62.6211 38.8417 60.8391 37.5218 59.5247C36.2019 58.2104 34.4124 57.471 32.5458 57.4689Z" fill="black"/>
<path opacity="0.2" d="M29.4167 63.7009C30.0648 63.7009 30.5901 63.1778 30.5901 62.5324C30.5901 61.8871 30.0648 61.3639 29.4167 61.3639C28.7686 61.3639 28.2433 61.8871 28.2433 62.5324C28.2433 63.1778 28.7686 63.7009 29.4167 63.7009Z" fill="black"/>
<path opacity="0.2" d="M35.2837 63.7009C35.9318 63.7009 36.4571 63.1778 36.4571 62.5324C36.4571 61.8871 35.9318 61.3639 35.2837 61.3639C34.6357 61.3639 34.1103 61.8871 34.1103 62.5324C34.1103 63.1778 34.6357 63.7009 35.2837 63.7009Z" fill="black"/>
<path opacity="0.2" d="M35.2837 67.2064H29.4167C29.3129 67.2064 29.2134 67.1654 29.1401 67.0923C29.0667 67.0193 29.0255 66.9202 29.0255 66.8169C29.0255 66.7136 29.0667 66.6146 29.1401 66.5415C29.2134 66.4685 29.3129 66.4274 29.4167 66.4274H35.2837C35.3875 66.4274 35.4869 66.4685 35.5603 66.5415C35.6336 66.6146 35.6749 66.7136 35.6749 66.8169C35.6749 66.9202 35.6336 67.0193 35.5603 67.0923C35.4869 67.1654 35.3875 67.2064 35.2837 67.2064Z" fill="black"/>
<path opacity="0.2" d="M100.603 72.2699C99.0562 72.2699 97.5438 71.813 96.2574 70.9571C94.9709 70.1011 93.9683 68.8845 93.3762 67.461C92.7841 66.0376 92.6292 64.4713 92.931 62.9602C93.2329 61.4491 93.9779 60.061 95.0719 58.9716C96.1659 57.8821 97.5598 57.1402 99.0773 56.8396C100.595 56.539 102.168 56.6933 103.597 57.2829C105.026 57.8725 106.248 58.871 107.108 60.152C107.967 61.4331 108.426 62.9392 108.426 64.4799C108.424 66.5452 107.599 68.5253 106.132 69.9857C104.666 71.4461 102.677 72.2676 100.603 72.2699ZM100.603 57.4689C99.211 57.4689 97.8497 57.8801 96.692 58.6505C95.5342 59.4209 94.6318 60.5158 94.0989 61.7969C93.566 63.078 93.4266 64.4877 93.6983 65.8477C93.9699 67.2077 94.6404 68.4569 95.6251 69.4374C96.6097 70.4179 97.8642 71.0857 99.2299 71.3562C100.596 71.6267 102.011 71.4879 103.298 70.9572C104.584 70.4266 105.684 69.528 106.457 68.375C107.231 67.2221 107.644 65.8666 107.644 64.4799C107.642 62.6212 106.899 60.8391 105.579 59.5248C104.26 58.2104 102.47 57.4711 100.603 57.4689Z" fill="black"/>
<path opacity="0.2" d="M97.4743 63.7009C98.1224 63.7009 98.6478 63.1778 98.6478 62.5324C98.6478 61.8871 98.1224 61.3639 97.4743 61.3639C96.8263 61.3639 96.3009 61.8871 96.3009 62.5324C96.3009 63.1778 96.8263 63.7009 97.4743 63.7009Z" fill="black"/>
<path opacity="0.2" d="M103.341 63.7009C103.989 63.7009 104.515 63.1778 104.515 62.5324C104.515 61.8871 103.989 61.3639 103.341 61.3639C102.693 61.3639 102.168 61.8871 102.168 62.5324C102.168 63.1778 102.693 63.7009 103.341 63.7009Z" fill="black"/>
<path opacity="0.2" d="M103.341 67.9854C103.273 67.9854 103.205 67.9675 103.146 67.9335C102.327 67.4164 101.378 67.1418 100.408 67.1418C99.4382 67.1418 98.4885 67.4164 97.6696 67.9335C97.625 67.9591 97.5759 67.9758 97.5249 67.9825C97.4739 67.9892 97.422 67.9859 97.3724 67.9726C97.3227 67.9593 97.2761 67.9364 97.2353 67.9052C97.1945 67.874 97.1603 67.8351 97.1346 67.7907C97.109 67.7463 97.0923 67.6973 97.0857 67.6465C97.0791 67.5957 97.0826 67.5441 97.096 67.4947C97.1095 67.4452 97.1325 67.3989 97.164 67.3583C97.1954 67.3178 97.2346 67.2838 97.2792 67.2583C98.2177 66.6753 99.3017 66.3663 100.408 66.3663C101.514 66.3663 102.598 66.6753 103.537 67.2583C103.611 67.3011 103.67 67.3673 103.703 67.4466C103.736 67.5259 103.742 67.6138 103.719 67.6967C103.697 67.7796 103.648 67.8529 103.579 67.9051C103.511 67.9573 103.427 67.9855 103.341 67.9854Z" fill="black"/>
<path d="M66.9657 80.2959C63.8245 80.2959 60.7538 79.3684 58.1419 77.6305C55.53 75.8926 53.4943 73.4225 52.2922 70.5324C51.0901 67.6424 50.7756 64.4624 51.3884 61.3944C52.0013 58.3264 53.5139 55.5082 55.7351 53.2963C57.9563 51.0844 60.7863 49.5781 63.8672 48.9678C66.9481 48.3575 70.1416 48.6707 73.0437 49.8678C75.9459 51.0649 78.4264 53.0921 80.1715 55.693C81.9167 58.2939 82.8482 61.3518 82.8482 64.4799C82.8434 68.6731 81.1685 72.6932 78.191 75.6582C75.2135 78.6233 71.1766 80.2912 66.9657 80.2959ZM66.9657 50.2455C64.1386 50.2455 61.375 51.0803 59.0243 52.6444C56.6736 54.2085 54.8415 56.4316 53.7596 59.0326C52.6777 61.6336 52.3946 64.4957 52.9462 67.2569C53.4977 70.0181 54.8591 72.5545 56.8582 74.5452C58.8573 76.5359 61.4043 77.8916 64.1771 78.4408C66.9499 78.9901 69.824 78.7082 72.4359 77.6308C75.0479 76.5534 77.2803 74.729 78.851 72.3881C80.4216 70.0473 81.26 67.2952 81.26 64.4799C81.2557 60.706 79.7484 57.0879 77.0686 54.4194C74.3888 51.7508 70.7555 50.2497 66.9657 50.2455V50.2455Z" fill="white"/>
<path d="M60.6128 62.8983C61.9285 62.8983 62.9951 61.8362 62.9951 60.5259C62.9951 59.2157 61.9285 58.1535 60.6128 58.1535C59.297 58.1535 58.2304 59.2157 58.2304 60.5259C58.2304 61.8362 59.297 62.8983 60.6128 62.8983Z" fill="white"/>
<path d="M72.5246 62.8983C73.8404 62.8983 74.907 61.8362 74.907 60.5259C74.907 59.2157 73.8404 58.1535 72.5246 58.1535C71.2089 58.1535 70.1422 59.2157 70.1422 60.5259C70.1422 61.8362 71.2089 62.8983 72.5246 62.8983Z" fill="white"/>
<path d="M66.9743 72.2014C64.8381 72.2014 62.5736 71.4303 60.1808 69.8881C60.0044 69.7739 59.8807 69.5946 59.8369 69.3897C59.7932 69.1848 59.8329 68.9709 59.9474 68.7951C60.0618 68.6193 60.2417 68.496 60.4475 68.4521C60.6532 68.4083 60.868 68.4476 61.0447 68.5614C65.2538 71.2786 68.8402 71.2983 72.0112 68.6216C72.1719 68.4863 72.3799 68.4201 72.5896 68.4374C72.7993 68.4548 72.9935 68.5543 73.1296 68.7141C73.2656 68.874 73.3324 69.081 73.3152 69.2899C73.2981 69.4987 73.1984 69.6922 73.038 69.8279C71.1644 71.4103 69.1376 72.2014 66.9743 72.2014Z" fill="white"/>
<path d="M93.1719 90.5762H82.8482V88.9949H91.5836V80.2961H93.1719V90.5762Z" fill="white"/>
<path d="M42.3479 48.6638H40.7596V38.3833H51.0833V39.965H42.3479V48.6638Z" fill="white"/>
</g>
<defs>
<clipPath id="clip0_5_1213">
<rect width="225" height="290" fill="white"/>
</clipPath>
</defs>
</svg>
