<svg width="348" height="48" viewBox="0 0 348 48" fill="none" xmlns="http://www.w3.org/2000/svg">
<path d="M3.058 18C2.80867 18 2.60333 17.9193 2.442 17.758C2.28067 17.5967 2.2 17.3913 2.2 17.142V1.676C2.2 1.42667 2.28067 1.22133 2.442 1.06C2.60333 0.898666 2.80867 0.818 3.058 0.818H7.018C8.27933 0.818 9.43067 1.03067 10.472 1.456C11.528 1.86667 12.4373 2.46067 13.2 3.238C13.9627 4.00067 14.5493 4.90267 14.96 5.944C15.3853 6.98533 15.598 8.13667 15.598 9.398C15.598 10.6593 15.3853 11.818 14.96 12.874C14.5493 13.9153 13.9627 14.8247 13.2 15.602C12.4373 16.3647 11.528 16.9587 10.472 17.384C9.43067 17.7947 8.27933 18 7.018 18H3.058ZM3.916 16.46H7.018C8.36733 16.46 9.55533 16.1593 10.582 15.558C11.6233 14.942 12.4373 14.106 13.024 13.05C13.6107 11.9793 13.904 10.762 13.904 9.398C13.904 8.034 13.6107 6.824 13.024 5.768C12.4373 4.69733 11.6233 3.86133 10.582 3.26C9.55533 2.65867 8.36733 2.358 7.018 2.358H3.916V16.46ZM23.9797 18.11C22.8064 18.11 21.7577 17.846 20.8337 17.318C19.9097 16.79 19.1837 16.064 18.6557 15.14C18.1277 14.216 17.8637 13.1673 17.8637 11.994C17.8637 10.806 18.1277 9.75 18.6557 8.826C19.1837 7.902 19.9097 7.176 20.8337 6.648C21.7577 6.12 22.8064 5.856 23.9797 5.856C25.153 5.856 26.1944 6.12 27.1037 6.648C28.0277 7.176 28.7537 7.902 29.2817 8.826C29.8097 9.75 30.081 10.806 30.0957 11.994C30.0957 13.1673 29.8244 14.216 29.2817 15.14C28.7537 16.064 28.0277 16.79 27.1037 17.318C26.1944 17.846 25.153 18.11 23.9797 18.11ZM23.9797 16.57C24.8304 16.57 25.593 16.372 26.2677 15.976C26.9424 15.58 27.4704 15.0373 27.8517 14.348C28.233 13.6587 28.4237 12.874 28.4237 11.994C28.4237 11.114 28.233 10.3293 27.8517 9.64C27.4704 8.936 26.9424 8.386 26.2677 7.99C25.593 7.594 24.8304 7.396 23.9797 7.396C23.129 7.396 22.3664 7.594 21.6917 7.99C21.017 8.386 20.4817 8.936 20.0857 9.64C19.7044 10.3293 19.5137 11.114 19.5137 11.994C19.5137 12.874 19.7044 13.6587 20.0857 14.348C20.4817 15.0373 21.017 15.58 21.6917 15.976C22.3664 16.372 23.129 16.57 23.9797 16.57ZM43.3004 18C43.051 18 42.8457 17.9193 42.6844 17.758C42.523 17.5967 42.4424 17.3987 42.4424 17.164V11.444C42.4424 10.5347 42.2664 9.78667 41.9144 9.2C41.577 8.61333 41.1077 8.17333 40.5064 7.88C39.9197 7.58667 39.2524 7.44 38.5044 7.44C37.7857 7.44 37.133 7.57933 36.5464 7.858C35.9744 8.13667 35.5197 8.518 35.1824 9.002C34.845 9.486 34.6764 10.036 34.6764 10.652H33.4664C33.4957 9.728 33.745 8.90667 34.2144 8.188C34.6837 7.45467 35.307 6.88267 36.0844 6.472C36.8617 6.04667 37.727 5.834 38.6804 5.834C39.7217 5.834 40.653 6.054 41.4744 6.494C42.2957 6.91933 42.941 7.55 43.4104 8.386C43.8944 9.222 44.1364 10.2413 44.1364 11.444V17.164C44.1364 17.3987 44.0557 17.5967 43.8944 17.758C43.733 17.9193 43.535 18 43.3004 18ZM33.8404 18C33.5764 18 33.3637 17.9267 33.2024 17.78C33.0557 17.6187 32.9824 17.4133 32.9824 17.164V6.824C32.9824 6.56 33.0557 6.35467 33.2024 6.208C33.3637 6.04667 33.5764 5.966 33.8404 5.966C34.0897 5.966 34.2877 6.04667 34.4344 6.208C34.5957 6.35467 34.6764 6.56 34.6764 6.824V17.164C34.6764 17.4133 34.5957 17.6187 34.4344 17.78C34.2877 17.9267 34.0897 18 33.8404 18ZM46.033 6.318C45.857 6.318 45.703 6.23733 45.571 6.076C45.4537 5.91467 45.439 5.73133 45.527 5.526C45.747 5.01267 45.879 4.58 45.923 4.228C45.967 3.876 45.9744 3.57533 45.945 3.326C45.9157 3.062 45.8717 2.81267 45.813 2.578C45.7544 2.34333 45.725 2.07933 45.725 1.786C45.725 1.434 45.835 1.15533 46.055 0.949999C46.275 0.729999 46.5464 0.62 46.869 0.62C47.2357 0.62 47.529 0.781333 47.749 1.104C47.969 1.412 48.079 1.83733 48.079 2.38C48.079 2.71733 48.0057 3.106 47.859 3.546C47.727 3.986 47.5584 4.41867 47.353 4.844C47.1477 5.26933 46.9277 5.62133 46.693 5.9C46.4584 6.17867 46.2384 6.318 46.033 6.318ZM55.4369 18C54.6595 18 53.9629 17.8167 53.3469 17.45C52.7455 17.0833 52.2689 16.5847 51.9169 15.954C51.5649 15.3087 51.3889 14.5753 51.3889 13.754V2.996C51.3889 2.74667 51.4622 2.54133 51.6089 2.38C51.7702 2.21867 51.9755 2.138 52.2249 2.138C52.4742 2.138 52.6795 2.21867 52.8409 2.38C53.0022 2.54133 53.0829 2.74667 53.0829 2.996V13.754C53.0829 14.502 53.3029 15.118 53.7429 15.602C54.1829 16.0713 54.7475 16.306 55.4369 16.306H56.0309C56.2655 16.306 56.4562 16.3867 56.6029 16.548C56.7495 16.7093 56.8229 16.9147 56.8229 17.164C56.8229 17.4133 56.7349 17.6187 56.5589 17.78C56.3829 17.9267 56.1629 18 55.8989 18H55.4369ZM49.9589 7.88C49.7389 7.88 49.5555 7.814 49.4089 7.682C49.2622 7.53533 49.1889 7.35933 49.1889 7.154C49.1889 6.934 49.2622 6.758 49.4089 6.626C49.5555 6.47933 49.7389 6.406 49.9589 6.406H55.5689C55.7889 6.406 55.9722 6.47933 56.1189 6.626C56.2655 6.758 56.3389 6.934 56.3389 7.154C56.3389 7.35933 56.2655 7.53533 56.1189 7.682C55.9722 7.814 55.7889 7.88 55.5689 7.88H49.9589ZM66.0677 13.094C65.8037 13.094 65.5911 13.0133 65.4297 12.852C65.2831 12.6907 65.2097 12.4853 65.2097 12.236V1.676C65.2097 1.412 65.2831 1.20667 65.4297 1.06C65.5911 0.898666 65.8037 0.818 66.0677 0.818C66.3171 0.818 66.5151 0.898666 66.6617 1.06C66.8231 1.20667 66.9037 1.412 66.9037 1.676V12.236C66.9037 12.4853 66.8231 12.6907 66.6617 12.852C66.5151 13.0133 66.3171 13.094 66.0677 13.094ZM75.5277 18C75.2784 18 75.0731 17.9193 74.9117 17.758C74.7504 17.5967 74.6697 17.3987 74.6697 17.164V11.444C74.6697 10.5347 74.4937 9.78667 74.1417 9.2C73.8044 8.61333 73.3351 8.17333 72.7337 7.88C72.1471 7.58667 71.4797 7.44 70.7317 7.44C70.0131 7.44 69.3604 7.57933 68.7737 7.858C68.2017 8.13667 67.7471 8.518 67.4097 9.002C67.0724 9.486 66.9037 10.036 66.9037 10.652H65.6937C65.7231 9.728 65.9724 8.90667 66.4417 8.188C66.9111 7.45467 67.5344 6.88267 68.3117 6.472C69.0891 6.04667 69.9544 5.834 70.9077 5.834C71.9491 5.834 72.8804 6.054 73.7017 6.494C74.5231 6.91933 75.1684 7.55 75.6377 8.386C76.1217 9.222 76.3637 10.2413 76.3637 11.444V17.164C76.3637 17.3987 76.2831 17.5967 76.1217 17.758C75.9604 17.9193 75.7624 18 75.5277 18ZM66.0677 18C65.8037 18 65.5911 17.9267 65.4297 17.78C65.2831 17.6187 65.2097 17.4133 65.2097 17.164V6.824C65.2097 6.56 65.2831 6.35467 65.4297 6.208C65.5911 6.04667 65.8037 5.966 66.0677 5.966C66.3171 5.966 66.5151 6.04667 66.6617 6.208C66.8231 6.35467 66.9037 6.56 66.9037 6.824V17.164C66.9037 17.4133 66.8231 17.6187 66.6617 17.78C66.5151 17.9267 66.3171 18 66.0677 18ZM80.9004 18C80.6364 18 80.4237 17.9267 80.2624 17.78C80.1157 17.6187 80.0424 17.406 80.0424 17.142V6.824C80.0424 6.56 80.1157 6.35467 80.2624 6.208C80.4237 6.04667 80.6364 5.966 80.9004 5.966C81.1497 5.966 81.3477 6.04667 81.4944 6.208C81.6557 6.35467 81.7364 6.56 81.7364 6.824V17.142C81.7364 17.406 81.6557 17.6187 81.4944 17.78C81.3477 17.9267 81.1497 18 80.9004 18ZM80.8784 3.678C80.5557 3.678 80.2771 3.56067 80.0424 3.326C79.8077 3.09133 79.6904 2.80533 79.6904 2.468C79.6904 2.10133 79.8077 1.81533 80.0424 1.61C80.2917 1.39 80.5777 1.28 80.9004 1.28C81.2084 1.28 81.4797 1.39 81.7144 1.61C81.9637 1.81533 82.0884 2.10133 82.0884 2.468C82.0884 2.80533 81.9711 3.09133 81.7364 3.326C81.5017 3.56067 81.2157 3.678 80.8784 3.678ZM90.3498 18C89.5724 18 88.8758 17.8167 88.2598 17.45C87.6584 17.0833 87.1818 16.5847 86.8298 15.954C86.4778 15.3087 86.3018 14.5753 86.3018 13.754V2.996C86.3018 2.74667 86.3751 2.54133 86.5218 2.38C86.6831 2.21867 86.8884 2.138 87.1378 2.138C87.3871 2.138 87.5924 2.21867 87.7538 2.38C87.9151 2.54133 87.9958 2.74667 87.9958 2.996V13.754C87.9958 14.502 88.2158 15.118 88.6558 15.602C89.0958 16.0713 89.6604 16.306 90.3498 16.306H90.9438C91.1784 16.306 91.3691 16.3867 91.5158 16.548C91.6624 16.7093 91.7358 16.9147 91.7358 17.164C91.7358 17.4133 91.6478 17.6187 91.4718 17.78C91.2958 17.9267 91.0758 18 90.8118 18H90.3498ZM84.8718 7.88C84.6518 7.88 84.4684 7.814 84.3218 7.682C84.1751 7.53533 84.1018 7.35933 84.1018 7.154C84.1018 6.934 84.1751 6.758 84.3218 6.626C84.4684 6.47933 84.6518 6.406 84.8718 6.406H90.4818C90.7018 6.406 90.8851 6.47933 91.0318 6.626C91.1784 6.758 91.2518 6.934 91.2518 7.154C91.2518 7.35933 91.1784 7.53533 91.0318 7.682C90.8851 7.814 90.7018 7.88 90.4818 7.88H84.8718ZM104.325 18.11C103.459 18.11 102.601 17.9633 101.751 17.67C100.9 17.3767 100.211 16.9367 99.6827 16.35C99.5213 16.174 99.4553 15.976 99.4847 15.756C99.514 15.536 99.624 15.3453 99.8147 15.184C100.02 15.0373 100.233 14.9787 100.453 15.008C100.673 15.0373 100.856 15.1327 101.003 15.294C101.355 15.7047 101.817 16.02 102.389 16.24C102.975 16.46 103.621 16.57 104.325 16.57C105.41 16.57 106.195 16.3867 106.679 16.02C107.163 15.6387 107.412 15.184 107.427 14.656C107.427 14.128 107.177 13.6953 106.679 13.358C106.18 13.006 105.359 12.7347 104.215 12.544C102.733 12.3093 101.648 11.8987 100.959 11.312C100.269 10.7253 99.9247 10.0287 99.9247 9.222C99.9247 8.474 100.123 7.85067 100.519 7.352C100.915 6.85333 101.443 6.47933 102.103 6.23C102.763 5.98067 103.489 5.856 104.281 5.856C105.263 5.856 106.107 6.02467 106.811 6.362C107.529 6.69933 108.109 7.154 108.549 7.726C108.695 7.91667 108.754 8.11467 108.725 8.32C108.695 8.52533 108.578 8.694 108.373 8.826C108.197 8.92867 107.991 8.96533 107.757 8.936C107.537 8.892 107.346 8.782 107.185 8.606C106.818 8.18067 106.393 7.87267 105.909 7.682C105.425 7.47667 104.867 7.374 104.237 7.374C103.43 7.374 102.785 7.54267 102.301 7.88C101.817 8.20267 101.575 8.61333 101.575 9.112C101.575 9.44933 101.663 9.74267 101.839 9.992C102.029 10.2413 102.345 10.4613 102.785 10.652C103.239 10.8427 103.87 11.004 104.677 11.136C105.777 11.312 106.642 11.576 107.273 11.928C107.918 12.2653 108.373 12.6687 108.637 13.138C108.915 13.5927 109.055 14.0913 109.055 14.634C109.055 15.3233 108.849 15.932 108.439 16.46C108.043 16.9733 107.485 17.3767 106.767 17.67C106.063 17.9633 105.249 18.11 104.325 18.11ZM121.892 18C121.643 18 121.437 17.9193 121.276 17.758C121.115 17.5967 121.034 17.3987 121.034 17.164V11.444C121.034 10.5347 120.858 9.78667 120.506 9.2C120.169 8.61333 119.699 8.17333 119.098 7.88C118.511 7.58667 117.844 7.44 117.096 7.44C116.377 7.44 115.725 7.57933 115.138 7.858C114.566 8.13667 114.111 8.518 113.774 9.002C113.437 9.486 113.268 10.036 113.268 10.652H112.058C112.087 9.728 112.337 8.90667 112.806 8.188C113.275 7.45467 113.899 6.88267 114.676 6.472C115.453 6.04667 116.319 5.834 117.272 5.834C118.313 5.834 119.245 6.054 120.066 6.494C120.887 6.91933 121.533 7.55 122.002 8.386C122.486 9.222 122.728 10.2413 122.728 11.444V17.164C122.728 17.3987 122.647 17.5967 122.486 17.758C122.325 17.9193 122.127 18 121.892 18ZM112.432 18C112.168 18 111.955 17.9267 111.794 17.78C111.647 17.6187 111.574 17.4133 111.574 17.164V6.824C111.574 6.56 111.647 6.35467 111.794 6.208C111.955 6.04667 112.168 5.966 112.432 5.966C112.681 5.966 112.879 6.04667 113.026 6.208C113.187 6.35467 113.268 6.56 113.268 6.824V17.164C113.268 17.4133 113.187 17.6187 113.026 17.78C112.879 17.9267 112.681 18 112.432 18ZM131.533 18.11C130.359 18.11 129.311 17.846 128.387 17.318C127.463 16.79 126.737 16.064 126.209 15.14C125.681 14.216 125.417 13.1673 125.417 11.994C125.417 10.806 125.681 9.75 126.209 8.826C126.737 7.902 127.463 7.176 128.387 6.648C129.311 6.12 130.359 5.856 131.533 5.856C132.706 5.856 133.747 6.12 134.657 6.648C135.581 7.176 136.307 7.902 136.835 8.826C137.363 9.75 137.634 10.806 137.649 11.994C137.649 13.1673 137.377 14.216 136.835 15.14C136.307 16.064 135.581 16.79 134.657 17.318C133.747 17.846 132.706 18.11 131.533 18.11ZM131.533 16.57C132.383 16.57 133.146 16.372 133.821 15.976C134.495 15.58 135.023 15.0373 135.405 14.348C135.786 13.6587 135.977 12.874 135.977 11.994C135.977 11.114 135.786 10.3293 135.405 9.64C135.023 8.936 134.495 8.386 133.821 7.99C133.146 7.594 132.383 7.396 131.533 7.396C130.682 7.396 129.919 7.594 129.245 7.99C128.57 8.386 128.035 8.936 127.639 9.64C127.257 10.3293 127.067 11.114 127.067 11.994C127.067 12.874 127.257 13.6587 127.639 14.348C128.035 15.0373 128.57 15.58 129.245 15.976C129.919 16.372 130.682 16.57 131.533 16.57ZM146.013 18.11C144.84 18.11 143.791 17.846 142.867 17.318C141.943 16.79 141.217 16.064 140.689 15.14C140.161 14.216 139.897 13.1673 139.897 11.994C139.897 10.806 140.161 9.75 140.689 8.826C141.217 7.902 141.943 7.176 142.867 6.648C143.791 6.12 144.84 5.856 146.013 5.856C147.187 5.856 148.228 6.12 149.137 6.648C150.061 7.176 150.787 7.902 151.315 8.826C151.843 9.75 152.115 10.806 152.129 11.994C152.129 13.1673 151.858 14.216 151.315 15.14C150.787 16.064 150.061 16.79 149.137 17.318C148.228 17.846 147.187 18.11 146.013 18.11ZM146.013 16.57C146.864 16.57 147.627 16.372 148.301 15.976C148.976 15.58 149.504 15.0373 149.885 14.348C150.267 13.6587 150.457 12.874 150.457 11.994C150.457 11.114 150.267 10.3293 149.885 9.64C149.504 8.936 148.976 8.386 148.301 7.99C147.627 7.594 146.864 7.396 146.013 7.396C145.163 7.396 144.4 7.594 143.725 7.99C143.051 8.386 142.515 8.936 142.119 9.64C141.738 10.3293 141.547 11.114 141.547 11.994C141.547 12.874 141.738 13.6587 142.119 14.348C142.515 15.0373 143.051 15.58 143.725 15.976C144.4 16.372 145.163 16.57 146.013 16.57ZM156.006 17.428L154.62 16.68L162.804 6.274L163.948 7.242L156.006 17.428ZM155.236 18C154.723 18 154.466 17.7433 154.466 17.23C154.466 16.7167 154.723 16.46 155.236 16.46H163.398C163.911 16.46 164.168 16.7167 164.168 17.23C164.168 17.7433 163.911 18 163.398 18H155.236ZM155.148 7.506C154.635 7.506 154.378 7.24933 154.378 6.736C154.378 6.22267 154.635 5.966 155.148 5.966H163.31C163.823 5.966 164.08 6.22267 164.08 6.736C164.08 7.24933 163.823 7.506 163.31 7.506H155.148ZM171.709 18.11C170.521 18.11 169.465 17.8533 168.541 17.34C167.631 16.812 166.913 16.086 166.385 15.162C165.871 14.238 165.615 13.182 165.615 11.994C165.615 10.7913 165.857 9.73533 166.341 8.826C166.839 7.902 167.521 7.176 168.387 6.648C169.252 6.12 170.249 5.856 171.379 5.856C172.493 5.856 173.461 6.11267 174.283 6.626C175.119 7.12467 175.764 7.82133 176.219 8.716C176.673 9.61067 176.901 10.63 176.901 11.774C176.901 12.0087 176.827 12.1993 176.681 12.346C176.534 12.478 176.343 12.544 176.109 12.544H166.759V11.136H176.285L175.339 11.818C175.353 10.9673 175.199 10.2047 174.877 9.53C174.554 8.85533 174.092 8.32733 173.491 7.946C172.904 7.56467 172.2 7.374 171.379 7.374C170.543 7.374 169.809 7.572 169.179 7.968C168.548 8.364 168.057 8.914 167.705 9.618C167.367 10.3073 167.199 11.0993 167.199 11.994C167.199 12.8887 167.389 13.6807 167.771 14.37C168.167 15.0593 168.702 15.602 169.377 15.998C170.051 16.394 170.829 16.592 171.709 16.592C172.237 16.592 172.765 16.504 173.293 16.328C173.835 16.1373 174.268 15.9027 174.591 15.624C174.752 15.492 174.935 15.426 175.141 15.426C175.346 15.4113 175.522 15.4627 175.669 15.58C175.859 15.756 175.955 15.9467 175.955 16.152C175.969 16.3573 175.889 16.5333 175.713 16.68C175.229 17.0907 174.613 17.4353 173.865 17.714C173.117 17.978 172.398 18.11 171.709 18.11ZM179.754 18.352C179.402 18.352 179.102 18.2273 178.852 17.978C178.603 17.7287 178.478 17.428 178.478 17.076C178.478 16.7093 178.603 16.4013 178.852 16.152C179.116 15.9027 179.417 15.778 179.754 15.778C180.106 15.778 180.407 15.91 180.656 16.174C180.906 16.4233 181.03 16.724 181.03 17.076C181.03 17.4133 180.906 17.714 180.656 17.978C180.422 18.2273 180.121 18.352 179.754 18.352ZM190.814 18C190.564 18 190.359 17.9193 190.198 17.758C190.036 17.5967 189.956 17.3913 189.956 17.142V1.676C189.956 1.42667 190.036 1.22133 190.198 1.06C190.359 0.898666 190.564 0.818 190.814 0.818C191.063 0.818 191.268 0.898666 191.43 1.06C191.591 1.22133 191.672 1.42667 191.672 1.676V8.54H202.408V1.676C202.408 1.42667 202.488 1.22133 202.65 1.06C202.811 0.898666 203.016 0.818 203.266 0.818C203.515 0.818 203.72 0.898666 203.882 1.06C204.043 1.22133 204.124 1.42667 204.124 1.676V17.142C204.124 17.3913 204.043 17.5967 203.882 17.758C203.72 17.9193 203.515 18 203.266 18C203.016 18 202.811 17.9193 202.65 17.758C202.488 17.5967 202.408 17.3913 202.408 17.142V10.08H191.672V17.142C191.672 17.3913 191.591 17.5967 191.43 17.758C191.268 17.9193 191.063 18 190.814 18ZM209.1 18C208.836 18 208.623 17.9267 208.462 17.78C208.315 17.6187 208.242 17.406 208.242 17.142V6.824C208.242 6.56 208.315 6.35467 208.462 6.208C208.623 6.04667 208.836 5.966 209.1 5.966C209.349 5.966 209.547 6.04667 209.694 6.208C209.855 6.35467 209.936 6.56 209.936 6.824V17.142C209.936 17.406 209.855 17.6187 209.694 17.78C209.547 17.9267 209.349 18 209.1 18ZM209.078 3.678C208.755 3.678 208.477 3.56067 208.242 3.326C208.007 3.09133 207.89 2.80533 207.89 2.468C207.89 2.10133 208.007 1.81533 208.242 1.61C208.491 1.39 208.777 1.28 209.1 1.28C209.408 1.28 209.679 1.39 209.914 1.61C210.163 1.81533 210.288 2.10133 210.288 2.468C210.288 2.80533 210.171 3.09133 209.936 3.326C209.701 3.56067 209.415 3.678 209.078 3.678ZM218.549 18C217.772 18 217.075 17.8167 216.459 17.45C215.858 17.0833 215.381 16.5847 215.029 15.954C214.677 15.3087 214.501 14.5753 214.501 13.754V2.996C214.501 2.74667 214.575 2.54133 214.721 2.38C214.883 2.21867 215.088 2.138 215.337 2.138C215.587 2.138 215.792 2.21867 215.953 2.38C216.115 2.54133 216.195 2.74667 216.195 2.996V13.754C216.195 14.502 216.415 15.118 216.855 15.602C217.295 16.0713 217.86 16.306 218.549 16.306H219.143C219.378 16.306 219.569 16.3867 219.715 16.548C219.862 16.7093 219.935 16.9147 219.935 17.164C219.935 17.4133 219.847 17.6187 219.671 17.78C219.495 17.9267 219.275 18 219.011 18H218.549ZM213.071 7.88C212.851 7.88 212.668 7.814 212.521 7.682C212.375 7.53533 212.301 7.35933 212.301 7.154C212.301 6.934 212.375 6.758 212.521 6.626C212.668 6.47933 212.851 6.406 213.071 6.406H218.681C218.901 6.406 219.085 6.47933 219.231 6.626C219.378 6.758 219.451 6.934 219.451 7.154C219.451 7.35933 219.378 7.53533 219.231 7.682C219.085 7.814 218.901 7.88 218.681 7.88H213.071ZM233.822 18.22C232.884 18.22 232.011 18.088 231.204 17.824C230.412 17.5453 229.723 17.1567 229.136 16.658C228.55 16.1593 228.102 15.58 227.794 14.92C227.677 14.6853 227.67 14.4727 227.772 14.282C227.89 14.0767 228.08 13.9373 228.344 13.864C228.55 13.8053 228.748 13.8273 228.938 13.93C229.144 14.0327 229.298 14.1867 229.4 14.392C229.62 14.8173 229.943 15.1987 230.368 15.536C230.794 15.8733 231.3 16.1373 231.886 16.328C232.473 16.504 233.118 16.592 233.822 16.592C234.6 16.592 235.289 16.4673 235.89 16.218C236.492 15.954 236.961 15.58 237.298 15.096C237.65 14.5973 237.826 13.996 237.826 13.292C237.826 12.3973 237.496 11.6273 236.836 10.982C236.176 10.3367 235.142 9.926 233.734 9.75C232.018 9.54467 230.676 9.01667 229.708 8.166C228.74 7.30067 228.256 6.24467 228.256 4.998C228.256 4.10333 228.491 3.326 228.96 2.666C229.444 2.006 230.104 1.5 230.94 1.148C231.776 0.781333 232.737 0.598 233.822 0.598C234.629 0.598 235.362 0.729999 236.022 0.993999C236.682 1.24333 237.254 1.58067 237.738 2.006C238.237 2.41667 238.64 2.87133 238.948 3.37C239.095 3.60467 239.139 3.832 239.08 4.052C239.036 4.272 238.912 4.44067 238.706 4.558C238.486 4.66067 238.259 4.67533 238.024 4.602C237.804 4.52867 237.636 4.38933 237.518 4.184C237.298 3.84667 237.02 3.53133 236.682 3.238C236.36 2.93 235.964 2.688 235.494 2.512C235.025 2.336 234.46 2.24067 233.8 2.226C232.642 2.226 231.71 2.47533 231.006 2.974C230.302 3.458 229.95 4.16933 229.95 5.108C229.95 5.60667 230.082 6.06867 230.346 6.494C230.61 6.90467 231.043 7.264 231.644 7.572C232.26 7.86533 233.082 8.08533 234.108 8.232C235.942 8.496 237.298 9.06067 238.178 9.926C239.073 10.7767 239.52 11.8913 239.52 13.27C239.52 14.062 239.374 14.766 239.08 15.382C238.802 15.998 238.398 16.5187 237.87 16.944C237.357 17.3547 236.748 17.67 236.044 17.89C235.355 18.11 234.614 18.22 233.822 18.22ZM247.849 18.11C246.69 18.11 245.656 17.846 244.747 17.318C243.852 16.7753 243.141 16.042 242.613 15.118C242.099 14.194 241.843 13.1527 241.843 11.994C241.843 10.8207 242.092 9.772 242.591 8.848C243.089 7.924 243.771 7.198 244.637 6.67C245.502 6.12733 246.499 5.856 247.629 5.856C248.523 5.856 249.345 6.032 250.093 6.384C250.855 6.736 251.523 7.264 252.095 7.968C252.256 8.144 252.315 8.33467 252.271 8.54C252.227 8.73067 252.102 8.89933 251.897 9.046C251.735 9.16333 251.552 9.20733 251.347 9.178C251.156 9.134 250.987 9.024 250.841 8.848C249.99 7.88 248.919 7.396 247.629 7.396C246.807 7.396 246.081 7.594 245.451 7.99C244.835 8.386 244.351 8.92867 243.999 9.618C243.661 10.3073 243.493 11.0993 243.493 11.994C243.493 12.874 243.676 13.6587 244.043 14.348C244.409 15.0373 244.923 15.58 245.583 15.976C246.243 16.372 246.998 16.57 247.849 16.57C248.421 16.57 248.941 16.4967 249.411 16.35C249.895 16.1887 250.32 15.9467 250.687 15.624C250.863 15.4773 251.046 15.3967 251.237 15.382C251.427 15.3673 251.603 15.426 251.765 15.558C251.941 15.7193 252.036 15.9027 252.051 16.108C252.08 16.3133 252.014 16.4893 251.853 16.636C250.782 17.6187 249.447 18.11 247.849 18.11ZM256.015 13.094C255.751 13.094 255.538 13.0133 255.377 12.852C255.23 12.6907 255.157 12.4853 255.157 12.236V1.676C255.157 1.412 255.23 1.20667 255.377 1.06C255.538 0.898666 255.751 0.818 256.015 0.818C256.264 0.818 256.462 0.898666 256.609 1.06C256.77 1.20667 256.851 1.412 256.851 1.676V12.236C256.851 12.4853 256.77 12.6907 256.609 12.852C256.462 13.0133 256.264 13.094 256.015 13.094ZM265.475 18C265.225 18 265.02 17.9193 264.859 17.758C264.697 17.5967 264.617 17.3987 264.617 17.164V11.444C264.617 10.5347 264.441 9.78667 264.089 9.2C263.751 8.61333 263.282 8.17333 262.681 7.88C262.094 7.58667 261.427 7.44 260.679 7.44C259.96 7.44 259.307 7.57933 258.721 7.858C258.149 8.13667 257.694 8.518 257.357 9.002C257.019 9.486 256.851 10.036 256.851 10.652H255.641C255.67 9.728 255.919 8.90667 256.389 8.188C256.858 7.45467 257.481 6.88267 258.259 6.472C259.036 6.04667 259.901 5.834 260.855 5.834C261.896 5.834 262.827 6.054 263.649 6.494C264.47 6.91933 265.115 7.55 265.585 8.386C266.069 9.222 266.311 10.2413 266.311 11.444V17.164C266.311 17.3987 266.23 17.5967 266.069 17.758C265.907 17.9193 265.709 18 265.475 18ZM256.015 18C255.751 18 255.538 17.9267 255.377 17.78C255.23 17.6187 255.157 17.4133 255.157 17.164V6.824C255.157 6.56 255.23 6.35467 255.377 6.208C255.538 6.04667 255.751 5.966 256.015 5.966C256.264 5.966 256.462 6.04667 256.609 6.208C256.77 6.35467 256.851 6.56 256.851 6.824V17.164C256.851 17.4133 256.77 17.6187 256.609 17.78C256.462 17.9267 256.264 18 256.015 18ZM285.895 18C285.646 18 285.441 17.9267 285.279 17.78C285.118 17.6187 285.037 17.4133 285.037 17.164V10.828C285.037 9.78667 284.766 8.96533 284.223 8.364C283.681 7.748 282.984 7.44 282.133 7.44C281.224 7.44 280.476 7.748 279.889 8.364C279.317 8.96533 279.039 9.772 279.053 10.784H277.535C277.55 9.80133 277.763 8.936 278.173 8.188C278.584 7.44 279.149 6.86067 279.867 6.45C280.586 6.03933 281.4 5.834 282.309 5.834C283.175 5.834 283.937 6.03933 284.597 6.45C285.272 6.86067 285.793 7.44 286.159 8.188C286.541 8.936 286.731 9.816 286.731 10.828V17.164C286.731 17.4133 286.651 17.6187 286.489 17.78C286.343 17.9267 286.145 18 285.895 18ZM270.495 18C270.231 18 270.019 17.9267 269.857 17.78C269.711 17.6187 269.637 17.4133 269.637 17.164V6.824C269.637 6.57467 269.711 6.36933 269.857 6.208C270.019 6.04667 270.231 5.966 270.495 5.966C270.745 5.966 270.943 6.04667 271.089 6.208C271.251 6.36933 271.331 6.57467 271.331 6.824V17.164C271.331 17.4133 271.251 17.6187 271.089 17.78C270.943 17.9267 270.745 18 270.495 18ZM278.217 18C277.968 18 277.763 17.9267 277.601 17.78C277.44 17.6187 277.359 17.4133 277.359 17.164V10.828C277.359 9.78667 277.088 8.96533 276.545 8.364C276.003 7.748 275.306 7.44 274.455 7.44C273.546 7.44 272.798 7.74067 272.211 8.342C271.625 8.92867 271.331 9.69867 271.331 10.652H270.121C270.151 9.71333 270.356 8.88467 270.737 8.166C271.133 7.43267 271.669 6.86067 272.343 6.45C273.018 6.03933 273.781 5.834 274.631 5.834C275.497 5.834 276.259 6.03933 276.919 6.45C277.594 6.86067 278.115 7.44 278.481 8.188C278.863 8.936 279.053 9.816 279.053 10.828V17.164C279.053 17.4133 278.973 17.6187 278.811 17.78C278.665 17.9267 278.467 18 278.217 18ZM295.547 18.11C294.374 18.11 293.325 17.846 292.401 17.318C291.477 16.79 290.751 16.064 290.223 15.14C289.695 14.216 289.431 13.1673 289.431 11.994C289.431 10.806 289.695 9.75 290.223 8.826C290.751 7.902 291.477 7.176 292.401 6.648C293.325 6.12 294.374 5.856 295.547 5.856C296.721 5.856 297.762 6.12 298.671 6.648C299.595 7.176 300.321 7.902 300.849 8.826C301.377 9.75 301.649 10.806 301.663 11.994C301.663 13.1673 301.392 14.216 300.849 15.14C300.321 16.064 299.595 16.79 298.671 17.318C297.762 17.846 296.721 18.11 295.547 18.11ZM295.547 16.57C296.398 16.57 297.161 16.372 297.835 15.976C298.51 15.58 299.038 15.0373 299.419 14.348C299.801 13.6587 299.991 12.874 299.991 11.994C299.991 11.114 299.801 10.3293 299.419 9.64C299.038 8.936 298.51 8.386 297.835 7.99C297.161 7.594 296.398 7.396 295.547 7.396C294.697 7.396 293.934 7.594 293.259 7.99C292.585 8.386 292.049 8.936 291.653 9.64C291.272 10.3293 291.081 11.114 291.081 11.994C291.081 12.874 291.272 13.6587 291.653 14.348C292.049 15.0373 292.585 15.58 293.259 15.976C293.934 16.372 294.697 16.57 295.547 16.57ZM310.028 18.11C308.855 18.11 307.806 17.846 306.882 17.318C305.958 16.79 305.232 16.064 304.704 15.14C304.176 14.216 303.912 13.1673 303.912 11.994C303.912 10.806 304.176 9.75 304.704 8.826C305.232 7.902 305.958 7.176 306.882 6.648C307.806 6.12 308.855 5.856 310.028 5.856C311.201 5.856 312.243 6.12 313.152 6.648C314.076 7.176 314.802 7.902 315.33 8.826C315.858 9.75 316.129 10.806 316.144 11.994C316.144 13.1673 315.873 14.216 315.33 15.14C314.802 16.064 314.076 16.79 313.152 17.318C312.243 17.846 311.201 18.11 310.028 18.11ZM310.028 16.57C310.879 16.57 311.641 16.372 312.316 15.976C312.991 15.58 313.519 15.0373 313.9 14.348C314.281 13.6587 314.472 12.874 314.472 11.994C314.472 11.114 314.281 10.3293 313.9 9.64C313.519 8.936 312.991 8.386 312.316 7.99C311.641 7.594 310.879 7.396 310.028 7.396C309.177 7.396 308.415 7.594 307.74 7.99C307.065 8.386 306.53 8.936 306.134 9.64C305.753 10.3293 305.562 11.114 305.562 11.994C305.562 12.874 305.753 13.6587 306.134 14.348C306.53 15.0373 307.065 15.58 307.74 15.976C308.415 16.372 309.177 16.57 310.028 16.57ZM320.021 17.428L318.635 16.68L326.819 6.274L327.963 7.242L320.021 17.428ZM319.251 18C318.737 18 318.481 17.7433 318.481 17.23C318.481 16.7167 318.737 16.46 319.251 16.46H327.413C327.926 16.46 328.183 16.7167 328.183 17.23C328.183 17.7433 327.926 18 327.413 18H319.251ZM319.163 7.506C318.649 7.506 318.393 7.24933 318.393 6.736C318.393 6.22267 318.649 5.966 319.163 5.966H327.325C327.838 5.966 328.095 6.22267 328.095 6.736C328.095 7.24933 327.838 7.506 327.325 7.506H319.163ZM331.093 18.352C330.741 18.352 330.44 18.2273 330.191 17.978C329.941 17.7287 329.817 17.428 329.817 17.076C329.817 16.7093 329.941 16.4013 330.191 16.152C330.455 15.9027 330.755 15.778 331.093 15.778C331.445 15.778 331.745 15.91 331.995 16.174C332.244 16.4233 332.369 16.724 332.369 17.076C332.369 17.4133 332.244 17.714 331.995 17.978C331.76 18.2273 331.459 18.352 331.093 18.352ZM3.058 42C2.82333 42 2.618 41.9193 2.442 41.758C2.28067 41.582 2.2 41.3767 2.2 41.142V25.676C2.2 25.4267 2.28067 25.2213 2.442 25.06C2.618 24.8987 2.82333 24.818 3.058 24.818C3.41 24.818 3.66667 24.9647 3.828 25.258L11.242 39.998H10.494L17.776 25.258C17.952 24.9647 18.2087 24.818 18.546 24.818C18.7807 24.818 18.9787 24.8987 19.14 25.06C19.3013 25.2213 19.382 25.4267 19.382 25.676V41.142C19.382 41.3767 19.3013 41.582 19.14 41.758C18.9787 41.9193 18.7807 42 18.546 42C18.2967 42 18.084 41.9193 17.908 41.758C17.7467 41.582 17.666 41.3767 17.666 41.142V27.898L18.04 27.92L11.55 41.186C11.3887 41.4647 11.1393 41.604 10.802 41.604C10.4353 41.604 10.1713 41.428 10.01 41.076L3.476 28.008L3.916 27.898V41.142C3.916 41.3767 3.828 41.582 3.652 41.758C3.49067 41.9193 3.29267 42 3.058 42ZM28.4658 42.11C27.3365 42.11 26.3245 41.846 25.4298 41.318C24.5351 40.7753 23.8238 40.042 23.2958 39.118C22.7825 38.194 22.5258 37.1527 22.5258 35.994C22.5258 34.8207 22.7898 33.772 23.3178 32.848C23.8605 31.924 24.5938 31.198 25.5178 30.67C26.4418 30.1273 27.4831 29.856 28.6418 29.856C29.8005 29.856 30.8345 30.1273 31.7438 30.67C32.6678 31.198 33.3938 31.924 33.9218 32.848C34.4645 33.772 34.7431 34.8207 34.7578 35.994L34.0758 36.522C34.0758 37.578 33.8265 38.5313 33.3278 39.382C32.8438 40.218 32.1765 40.8853 31.3258 41.384C30.4898 41.868 29.5365 42.11 28.4658 42.11ZM28.6418 40.57C29.4925 40.57 30.2478 40.372 30.9078 39.976C31.5825 39.58 32.1105 39.0373 32.4918 38.348C32.8878 37.644 33.0858 36.8593 33.0858 35.994C33.0858 35.114 32.8878 34.3293 32.4918 33.64C32.1105 32.9507 31.5825 32.408 30.9078 32.012C30.2478 31.6013 29.4925 31.396 28.6418 31.396C27.8058 31.396 27.0505 31.6013 26.3758 32.012C25.7011 32.408 25.1658 32.9507 24.7698 33.64C24.3738 34.3293 24.1758 35.114 24.1758 35.994C24.1758 36.8593 24.3738 37.644 24.7698 38.348C25.1658 39.0373 25.7011 39.58 26.3758 39.976C27.0505 40.372 27.8058 40.57 28.6418 40.57ZM33.8998 42C33.6505 42 33.4451 41.9267 33.2838 41.78C33.1225 41.6187 33.0418 41.4133 33.0418 41.164V37.402L33.4598 35.664L34.7578 35.994V41.164C34.7578 41.4133 34.6771 41.6187 34.5158 41.78C34.3545 41.9267 34.1491 42 33.8998 42ZM39.0305 37.974L37.9965 36.852L45.5205 30.054C45.6965 29.8927 45.8798 29.8193 46.0705 29.834C46.2611 29.834 46.4371 29.922 46.5985 30.098C46.7598 30.274 46.8331 30.4647 46.8185 30.67C46.8185 30.8607 46.7305 31.0293 46.5545 31.176L39.0305 37.974ZM38.4805 42C38.2311 42 38.0258 41.9267 37.8645 41.78C37.7178 41.6187 37.6445 41.4133 37.6445 41.164V25.654C37.6445 25.4047 37.7178 25.2067 37.8645 25.06C38.0258 24.8987 38.2311 24.818 38.4805 24.818C38.7298 24.818 38.9278 24.8987 39.0745 25.06C39.2358 25.2067 39.3165 25.4047 39.3165 25.654V41.164C39.3165 41.4133 39.2358 41.6187 39.0745 41.78C38.9278 41.9267 38.7298 42 38.4805 42ZM46.6205 41.89C46.4298 42.0513 46.2318 42.1173 46.0265 42.088C45.8211 42.0733 45.6451 41.9707 45.4985 41.78L40.5925 35.752L41.7805 34.696L46.7305 40.79C46.8771 40.966 46.9431 41.1567 46.9285 41.362C46.9138 41.5527 46.8111 41.7287 46.6205 41.89ZM54.1866 42.11C52.9986 42.11 51.9426 41.8533 51.0186 41.34C50.1093 40.812 49.3906 40.086 48.8626 39.162C48.3493 38.238 48.0926 37.182 48.0926 35.994C48.0926 34.7913 48.3346 33.7353 48.8186 32.826C49.3173 31.902 49.9993 31.176 50.8646 30.648C51.7299 30.12 52.7273 29.856 53.8566 29.856C54.9713 29.856 55.9393 30.1127 56.7606 30.626C57.5966 31.1247 58.2419 31.8213 58.6966 32.716C59.1513 33.6107 59.3786 34.63 59.3786 35.774C59.3786 36.0087 59.3053 36.1993 59.1586 36.346C59.0119 36.478 58.8213 36.544 58.5866 36.544H49.2366V35.136H58.7626L57.8166 35.818C57.8313 34.9673 57.6773 34.2047 57.3546 33.53C57.0319 32.8553 56.5699 32.3273 55.9686 31.946C55.3819 31.5647 54.6779 31.374 53.8566 31.374C53.0206 31.374 52.2873 31.572 51.6566 31.968C51.0259 32.364 50.5346 32.914 50.1826 33.618C49.8453 34.3073 49.6766 35.0993 49.6766 35.994C49.6766 36.8887 49.8673 37.6807 50.2486 38.37C50.6446 39.0593 51.1799 39.602 51.8546 39.998C52.5293 40.394 53.3066 40.592 54.1866 40.592C54.7146 40.592 55.2426 40.504 55.7706 40.328C56.3133 40.1373 56.7459 39.9027 57.0686 39.624C57.2299 39.492 57.4133 39.426 57.6186 39.426C57.8239 39.4113 57.9999 39.4627 58.1466 39.58C58.3373 39.756 58.4326 39.9467 58.4326 40.152C58.4473 40.3573 58.3666 40.5333 58.1906 40.68C57.7066 41.0907 57.0906 41.4353 56.3426 41.714C55.5946 41.978 54.8759 42.11 54.1866 42.11ZM72.5816 42C71.8043 42 71.1076 41.8167 70.4916 41.45C69.8903 41.0833 69.4136 40.5847 69.0616 39.954C68.7096 39.3087 68.5336 38.5753 68.5336 37.754V26.996C68.5336 26.7467 68.6069 26.5413 68.7536 26.38C68.9149 26.2187 69.1203 26.138 69.3696 26.138C69.6189 26.138 69.8243 26.2187 69.9856 26.38C70.1469 26.5413 70.2276 26.7467 70.2276 26.996V37.754C70.2276 38.502 70.4476 39.118 70.8876 39.602C71.3276 40.0713 71.8923 40.306 72.5816 40.306H73.1756C73.4103 40.306 73.6009 40.3867 73.7476 40.548C73.8943 40.7093 73.9676 40.9147 73.9676 41.164C73.9676 41.4133 73.8796 41.6187 73.7036 41.78C73.5276 41.9267 73.3076 42 73.0436 42H72.5816ZM67.1036 31.88C66.8836 31.88 66.7003 31.814 66.5536 31.682C66.4069 31.5353 66.3336 31.3593 66.3336 31.154C66.3336 30.934 66.4069 30.758 66.5536 30.626C66.7003 30.4793 66.8836 30.406 67.1036 30.406H72.7136C72.9336 30.406 73.1169 30.4793 73.2636 30.626C73.4103 30.758 73.4836 30.934 73.4836 31.154C73.4836 31.3593 73.4103 31.5353 73.2636 31.682C73.1169 31.814 72.9336 31.88 72.7136 31.88H67.1036ZM77.1752 37.094C76.9112 37.094 76.6985 37.0133 76.5372 36.852C76.3905 36.6907 76.3172 36.4853 76.3172 36.236V25.676C76.3172 25.412 76.3905 25.2067 76.5372 25.06C76.6985 24.8987 76.9112 24.818 77.1752 24.818C77.4245 24.818 77.6225 24.8987 77.7692 25.06C77.9305 25.2067 78.0112 25.412 78.0112 25.676V36.236C78.0112 36.4853 77.9305 36.6907 77.7692 36.852C77.6225 37.0133 77.4245 37.094 77.1752 37.094ZM86.6352 42C86.3858 42 86.1805 41.9193 86.0192 41.758C85.8578 41.5967 85.7772 41.3987 85.7772 41.164V35.444C85.7772 34.5347 85.6012 33.7867 85.2492 33.2C84.9118 32.6133 84.4425 32.1733 83.8412 31.88C83.2545 31.5867 82.5872 31.44 81.8392 31.44C81.1205 31.44 80.4678 31.5793 79.8812 31.858C79.3092 32.1367 78.8545 32.518 78.5172 33.002C78.1798 33.486 78.0112 34.036 78.0112 34.652H76.8012C76.8305 33.728 77.0798 32.9067 77.5492 32.188C78.0185 31.4547 78.6418 30.8827 79.4192 30.472C80.1965 30.0467 81.0618 29.834 82.0152 29.834C83.0565 29.834 83.9878 30.054 84.8092 30.494C85.6305 30.9193 86.2758 31.55 86.7452 32.386C87.2292 33.222 87.4712 34.2413 87.4712 35.444V41.164C87.4712 41.3987 87.3905 41.5967 87.2292 41.758C87.0678 41.9193 86.8698 42 86.6352 42ZM77.1752 42C76.9112 42 76.6985 41.9267 76.5372 41.78C76.3905 41.6187 76.3172 41.4133 76.3172 41.164V30.824C76.3172 30.56 76.3905 30.3547 76.5372 30.208C76.6985 30.0467 76.9112 29.966 77.1752 29.966C77.4245 29.966 77.6225 30.0467 77.7692 30.208C77.9305 30.3547 78.0112 30.56 78.0112 30.824V41.164C78.0112 41.4133 77.9305 41.6187 77.7692 41.78C77.6225 41.9267 77.4245 42 77.1752 42ZM96.2538 42.11C95.0658 42.11 94.0098 41.8533 93.0858 41.34C92.1765 40.812 91.4578 40.086 90.9298 39.162C90.4165 38.238 90.1598 37.182 90.1598 35.994C90.1598 34.7913 90.4018 33.7353 90.8858 32.826C91.3845 31.902 92.0665 31.176 92.9318 30.648C93.7972 30.12 94.7945 29.856 95.9238 29.856C97.0385 29.856 98.0065 30.1127 98.8278 30.626C99.6638 31.1247 100.309 31.8213 100.764 32.716C101.218 33.6107 101.446 34.63 101.446 35.774C101.446 36.0087 101.372 36.1993 101.226 36.346C101.079 36.478 100.888 36.544 100.654 36.544H91.3038V35.136H100.83L99.8838 35.818C99.8985 34.9673 99.7445 34.2047 99.4218 33.53C99.0992 32.8553 98.6372 32.3273 98.0358 31.946C97.4492 31.5647 96.7452 31.374 95.9238 31.374C95.0878 31.374 94.3545 31.572 93.7238 31.968C93.0932 32.364 92.6018 32.914 92.2498 33.618C91.9125 34.3073 91.7438 35.0993 91.7438 35.994C91.7438 36.8887 91.9345 37.6807 92.3158 38.37C92.7118 39.0593 93.2472 39.602 93.9218 39.998C94.5965 40.394 95.3738 40.592 96.2538 40.592C96.7818 40.592 97.3098 40.504 97.8378 40.328C98.3805 40.1373 98.8132 39.9027 99.1358 39.624C99.2972 39.492 99.4805 39.426 99.6858 39.426C99.8912 39.4113 100.067 39.4627 100.214 39.58C100.404 39.756 100.5 39.9467 100.5 40.152C100.514 40.3573 100.434 40.5333 100.258 40.68C99.7738 41.0907 99.1578 41.4353 98.4098 41.714C97.6618 41.978 96.9432 42.11 96.2538 42.11ZM126.199 42C125.949 42 125.744 41.9267 125.583 41.78C125.421 41.6187 125.341 41.4133 125.341 41.164V34.828C125.341 33.7867 125.069 32.9653 124.527 32.364C123.984 31.748 123.287 31.44 122.437 31.44C121.527 31.44 120.779 31.748 120.193 32.364C119.621 32.9653 119.342 33.772 119.357 34.784H117.839C117.853 33.8013 118.066 32.936 118.477 32.188C118.887 31.44 119.452 30.8607 120.171 30.45C120.889 30.0393 121.703 29.834 122.613 29.834C123.478 29.834 124.241 30.0393 124.901 30.45C125.575 30.8607 126.096 31.44 126.463 32.188C126.844 32.936 127.035 33.816 127.035 34.828V41.164C127.035 41.4133 126.954 41.6187 126.793 41.78C126.646 41.9267 126.448 42 126.199 42ZM110.799 42C110.535 42 110.322 41.9267 110.161 41.78C110.014 41.6187 109.941 41.4133 109.941 41.164V30.824C109.941 30.5747 110.014 30.3693 110.161 30.208C110.322 30.0467 110.535 29.966 110.799 29.966C111.048 29.966 111.246 30.0467 111.393 30.208C111.554 30.3693 111.635 30.5747 111.635 30.824V41.164C111.635 41.4133 111.554 41.6187 111.393 41.78C111.246 41.9267 111.048 42 110.799 42ZM118.521 42C118.271 42 118.066 41.9267 117.905 41.78C117.743 41.6187 117.663 41.4133 117.663 41.164V34.828C117.663 33.7867 117.391 32.9653 116.849 32.364C116.306 31.748 115.609 31.44 114.759 31.44C113.849 31.44 113.101 31.7407 112.515 32.342C111.928 32.9287 111.635 33.6987 111.635 34.652H110.425C110.454 33.7133 110.659 32.8847 111.041 32.166C111.437 31.4327 111.972 30.8607 112.647 30.45C113.321 30.0393 114.084 29.834 114.935 29.834C115.8 29.834 116.563 30.0393 117.223 30.45C117.897 30.8607 118.418 31.44 118.785 32.188C119.166 32.936 119.357 33.816 119.357 34.828V41.164C119.357 41.4133 119.276 41.6187 119.115 41.78C118.968 41.9267 118.77 42 118.521 42ZM135.851 42.11C134.677 42.11 133.629 41.846 132.705 41.318C131.781 40.79 131.055 40.064 130.527 39.14C129.999 38.216 129.735 37.1673 129.735 35.994C129.735 34.806 129.999 33.75 130.527 32.826C131.055 31.902 131.781 31.176 132.705 30.648C133.629 30.12 134.677 29.856 135.851 29.856C137.024 29.856 138.065 30.12 138.975 30.648C139.899 31.176 140.625 31.902 141.153 32.826C141.681 33.75 141.952 34.806 141.967 35.994C141.967 37.1673 141.695 38.216 141.153 39.14C140.625 40.064 139.899 40.79 138.975 41.318C138.065 41.846 137.024 42.11 135.851 42.11ZM135.851 40.57C136.701 40.57 137.464 40.372 138.139 39.976C138.813 39.58 139.341 39.0373 139.723 38.348C140.104 37.6587 140.295 36.874 140.295 35.994C140.295 35.114 140.104 34.3293 139.723 33.64C139.341 32.936 138.813 32.386 138.139 31.99C137.464 31.594 136.701 31.396 135.851 31.396C135 31.396 134.237 31.594 133.563 31.99C132.888 32.386 132.353 32.936 131.957 33.64C131.575 34.3293 131.385 35.114 131.385 35.994C131.385 36.874 131.575 37.6587 131.957 38.348C132.353 39.0373 132.888 39.58 133.563 39.976C134.237 40.372 135 40.57 135.851 40.57ZM149.055 42.11C148.19 42.11 147.332 41.9633 146.481 41.67C145.631 41.3767 144.941 40.9367 144.413 40.35C144.252 40.174 144.186 39.976 144.215 39.756C144.245 39.536 144.355 39.3453 144.545 39.184C144.751 39.0373 144.963 38.9787 145.183 39.008C145.403 39.0373 145.587 39.1327 145.733 39.294C146.085 39.7047 146.547 40.02 147.119 40.24C147.706 40.46 148.351 40.57 149.055 40.57C150.141 40.57 150.925 40.3867 151.409 40.02C151.893 39.6387 152.143 39.184 152.157 38.656C152.157 38.128 151.908 37.6953 151.409 37.358C150.911 37.006 150.089 36.7347 148.945 36.544C147.464 36.3093 146.379 35.8987 145.689 35.312C145 34.7253 144.655 34.0287 144.655 33.222C144.655 32.474 144.853 31.8507 145.249 31.352C145.645 30.8533 146.173 30.4793 146.833 30.23C147.493 29.9807 148.219 29.856 149.011 29.856C149.994 29.856 150.837 30.0247 151.541 30.362C152.26 30.6993 152.839 31.154 153.279 31.726C153.426 31.9167 153.485 32.1147 153.455 32.32C153.426 32.5253 153.309 32.694 153.103 32.826C152.927 32.9287 152.722 32.9653 152.487 32.936C152.267 32.892 152.077 32.782 151.915 32.606C151.549 32.1807 151.123 31.8727 150.639 31.682C150.155 31.4767 149.598 31.374 148.967 31.374C148.161 31.374 147.515 31.5427 147.031 31.88C146.547 32.2027 146.305 32.6133 146.305 33.112C146.305 33.4493 146.393 33.7427 146.569 33.992C146.76 34.2413 147.075 34.4613 147.515 34.652C147.97 34.8427 148.601 35.004 149.407 35.136C150.507 35.312 151.373 35.576 152.003 35.928C152.649 36.2653 153.103 36.6687 153.367 37.138C153.646 37.5927 153.785 38.0913 153.785 38.634C153.785 39.3233 153.58 39.932 153.169 40.46C152.773 40.9733 152.216 41.3767 151.497 41.67C150.793 41.9633 149.979 42.11 149.055 42.11ZM161.013 42C160.235 42 159.539 41.8167 158.923 41.45C158.321 41.0833 157.845 40.5847 157.493 39.954C157.141 39.3087 156.965 38.5753 156.965 37.754V26.996C156.965 26.7467 157.038 26.5413 157.185 26.38C157.346 26.2187 157.551 26.138 157.801 26.138C158.05 26.138 158.255 26.2187 158.417 26.38C158.578 26.5413 158.659 26.7467 158.659 26.996V37.754C158.659 38.502 158.879 39.118 159.319 39.602C159.759 40.0713 160.323 40.306 161.013 40.306H161.607C161.841 40.306 162.032 40.3867 162.179 40.548C162.325 40.7093 162.399 40.9147 162.399 41.164C162.399 41.4133 162.311 41.6187 162.135 41.78C161.959 41.9267 161.739 42 161.475 42H161.013ZM155.535 31.88C155.315 31.88 155.131 31.814 154.985 31.682C154.838 31.5353 154.765 31.3593 154.765 31.154C154.765 30.934 154.838 30.758 154.985 30.626C155.131 30.4793 155.315 30.406 155.535 30.406H161.145C161.365 30.406 161.548 30.4793 161.695 30.626C161.841 30.758 161.915 30.934 161.915 31.154C161.915 31.3593 161.841 31.5353 161.695 31.682C161.548 31.814 161.365 31.88 161.145 31.88H155.535ZM176.264 42.11C175.09 42.11 174.042 41.846 173.118 41.318C172.194 40.79 171.468 40.064 170.94 39.14C170.412 38.216 170.148 37.1673 170.148 35.994C170.148 34.806 170.412 33.75 170.94 32.826C171.468 31.902 172.194 31.176 173.118 30.648C174.042 30.12 175.09 29.856 176.264 29.856C177.437 29.856 178.478 30.12 179.388 30.648C180.312 31.176 181.038 31.902 181.566 32.826C182.094 33.75 182.365 34.806 182.38 35.994C182.38 37.1673 182.108 38.216 181.566 39.14C181.038 40.064 180.312 40.79 179.388 41.318C178.478 41.846 177.437 42.11 176.264 42.11ZM176.264 40.57C177.114 40.57 177.877 40.372 178.552 39.976C179.226 39.58 179.754 39.0373 180.136 38.348C180.517 37.6587 180.708 36.874 180.708 35.994C180.708 35.114 180.517 34.3293 180.136 33.64C179.754 32.936 179.226 32.386 178.552 31.99C177.877 31.594 177.114 31.396 176.264 31.396C175.413 31.396 174.65 31.594 173.976 31.99C173.301 32.386 172.766 32.936 172.37 33.64C171.988 34.3293 171.798 35.114 171.798 35.994C171.798 36.874 171.988 37.6587 172.37 38.348C172.766 39.0373 173.301 39.58 173.976 39.976C174.65 40.372 175.413 40.57 176.264 40.57ZM190.502 42.132C189.461 42.132 188.53 41.9193 187.708 41.494C186.887 41.054 186.234 40.416 185.75 39.58C185.281 38.744 185.046 37.7247 185.046 36.522V30.802C185.046 30.5673 185.127 30.3693 185.288 30.208C185.45 30.0467 185.648 29.966 185.882 29.966C186.132 29.966 186.337 30.0467 186.498 30.208C186.66 30.3693 186.74 30.5673 186.74 30.802V36.522C186.74 37.4313 186.909 38.1793 187.246 38.766C187.598 39.3527 188.068 39.7927 188.654 40.086C189.256 40.3793 189.93 40.526 190.678 40.526C191.397 40.526 192.042 40.3867 192.614 40.108C193.201 39.8293 193.663 39.448 194 38.964C194.338 38.48 194.506 37.93 194.506 37.314H195.716C195.672 38.238 195.416 39.0667 194.946 39.8C194.492 40.5187 193.876 41.0907 193.098 41.516C192.321 41.9267 191.456 42.132 190.502 42.132ZM195.342 42C195.093 42 194.888 41.9267 194.726 41.78C194.58 41.6187 194.506 41.406 194.506 41.142V30.802C194.506 30.5527 194.58 30.3547 194.726 30.208C194.888 30.0467 195.093 29.966 195.342 29.966C195.592 29.966 195.797 30.0467 195.958 30.208C196.12 30.3547 196.2 30.5527 196.2 30.802V41.142C196.2 41.406 196.12 41.6187 195.958 41.78C195.797 41.9267 195.592 42 195.342 42ZM204.455 42C203.678 42 202.981 41.8167 202.365 41.45C201.764 41.0833 201.287 40.5847 200.935 39.954C200.583 39.3087 200.407 38.5753 200.407 37.754V26.996C200.407 26.7467 200.48 26.5413 200.627 26.38C200.788 26.2187 200.994 26.138 201.243 26.138C201.492 26.138 201.698 26.2187 201.859 26.38C202.02 26.5413 202.101 26.7467 202.101 26.996V37.754C202.101 38.502 202.321 39.118 202.761 39.602C203.201 40.0713 203.766 40.306 204.455 40.306H205.049C205.284 40.306 205.474 40.3867 205.621 40.548C205.768 40.7093 205.841 40.9147 205.841 41.164C205.841 41.4133 205.753 41.6187 205.577 41.78C205.401 41.9267 205.181 42 204.917 42H204.455ZM198.977 31.88C198.757 31.88 198.574 31.814 198.427 31.682C198.28 31.5353 198.207 31.3593 198.207 31.154C198.207 30.934 198.28 30.758 198.427 30.626C198.574 30.4793 198.757 30.406 198.977 30.406H204.587C204.807 30.406 204.99 30.4793 205.137 30.626C205.284 30.758 205.357 30.934 205.357 31.154C205.357 31.3593 205.284 31.5353 205.137 31.682C204.99 31.814 204.807 31.88 204.587 31.88H198.977ZM219.706 42.11C218.532 42.11 217.484 41.846 216.56 41.318C215.636 40.79 214.91 40.064 214.382 39.14C213.854 38.216 213.59 37.1673 213.59 35.994C213.59 34.806 213.854 33.75 214.382 32.826C214.91 31.902 215.636 31.176 216.56 30.648C217.484 30.12 218.532 29.856 219.706 29.856C220.879 29.856 221.92 30.12 222.83 30.648C223.754 31.176 224.48 31.902 225.008 32.826C225.536 33.75 225.807 34.806 225.822 35.994C225.822 37.1673 225.55 38.216 225.008 39.14C224.48 40.064 223.754 40.79 222.83 41.318C221.92 41.846 220.879 42.11 219.706 42.11ZM219.706 40.57C220.556 40.57 221.319 40.372 221.994 39.976C222.668 39.58 223.196 39.0373 223.578 38.348C223.959 37.6587 224.15 36.874 224.15 35.994C224.15 35.114 223.959 34.3293 223.578 33.64C223.196 32.936 222.668 32.386 221.994 31.99C221.319 31.594 220.556 31.396 219.706 31.396C218.855 31.396 218.092 31.594 217.418 31.99C216.743 32.386 216.208 32.936 215.812 33.64C215.43 34.3293 215.24 35.114 215.24 35.994C215.24 36.874 215.43 37.6587 215.812 38.348C216.208 39.0373 216.743 39.58 217.418 39.976C218.092 40.372 218.855 40.57 219.706 40.57ZM230.204 42C229.984 42 229.794 41.9267 229.632 41.78C229.471 41.6187 229.39 41.406 229.39 41.142V29.988C229.39 28.9613 229.566 28.0593 229.918 27.282C230.27 26.5047 230.791 25.9033 231.48 25.478C232.17 25.038 233.013 24.818 234.01 24.818C234.26 24.818 234.465 24.8913 234.626 25.038C234.788 25.1847 234.868 25.368 234.868 25.588C234.868 25.808 234.788 25.9913 234.626 26.138C234.465 26.2847 234.26 26.358 234.01 26.358C233.35 26.358 232.8 26.512 232.36 26.82C231.935 27.1133 231.612 27.5313 231.392 28.074C231.187 28.602 231.084 29.2107 231.084 29.9V41.142C231.084 41.406 231.004 41.6187 230.842 41.78C230.696 41.9267 230.483 42 230.204 42ZM227.982 31.88C227.748 31.88 227.557 31.814 227.41 31.682C227.278 31.5353 227.212 31.3593 227.212 31.154C227.212 30.934 227.278 30.758 227.41 30.626C227.557 30.4793 227.748 30.406 227.982 30.406H233.724C233.959 30.406 234.142 30.4793 234.274 30.626C234.421 30.758 234.494 30.934 234.494 31.154C234.494 31.3593 234.421 31.5353 234.274 31.682C234.142 31.814 233.959 31.88 233.724 31.88H227.982ZM244.462 47.236C244.345 47.236 244.213 47.2067 244.066 47.148C243.568 46.928 243.428 46.576 243.648 46.092L250.754 30.428C250.974 29.9587 251.326 29.8267 251.81 30.032C252.309 30.2373 252.448 30.582 252.228 31.066L245.1 46.73C244.954 47.0673 244.741 47.236 244.462 47.236ZM246.904 41.626C246.684 41.7287 246.479 41.7507 246.288 41.692C246.098 41.6187 245.944 41.472 245.826 41.252L240.92 31.088C240.818 30.868 240.803 30.6627 240.876 30.472C240.95 30.2813 241.096 30.1347 241.316 30.032C241.536 29.9293 241.742 29.9147 241.932 29.988C242.123 30.0467 242.27 30.186 242.372 30.406L247.19 40.57C247.308 40.79 247.344 40.9953 247.3 41.186C247.256 41.3767 247.124 41.5233 246.904 41.626ZM259.087 42.11C257.914 42.11 256.865 41.846 255.941 41.318C255.017 40.79 254.291 40.064 253.763 39.14C253.235 38.216 252.971 37.1673 252.971 35.994C252.971 34.806 253.235 33.75 253.763 32.826C254.291 31.902 255.017 31.176 255.941 30.648C256.865 30.12 257.914 29.856 259.087 29.856C260.261 29.856 261.302 30.12 262.211 30.648C263.135 31.176 263.861 31.902 264.389 32.826C264.917 33.75 265.189 34.806 265.203 35.994C265.203 37.1673 264.932 38.216 264.389 39.14C263.861 40.064 263.135 40.79 262.211 41.318C261.302 41.846 260.261 42.11 259.087 42.11ZM259.087 40.57C259.938 40.57 260.701 40.372 261.375 39.976C262.05 39.58 262.578 39.0373 262.959 38.348C263.341 37.6587 263.531 36.874 263.531 35.994C263.531 35.114 263.341 34.3293 262.959 33.64C262.578 32.936 262.05 32.386 261.375 31.99C260.701 31.594 259.938 31.396 259.087 31.396C258.237 31.396 257.474 31.594 256.799 31.99C256.125 32.386 255.589 32.936 255.193 33.64C254.812 34.3293 254.621 35.114 254.621 35.994C254.621 36.874 254.812 37.6587 255.193 38.348C255.589 39.0373 256.125 39.58 256.799 39.976C257.474 40.372 258.237 40.57 259.087 40.57ZM273.326 42.132C272.285 42.132 271.353 41.9193 270.532 41.494C269.711 41.054 269.058 40.416 268.574 39.58C268.105 38.744 267.87 37.7247 267.87 36.522V30.802C267.87 30.5673 267.951 30.3693 268.112 30.208C268.273 30.0467 268.471 29.966 268.706 29.966C268.955 29.966 269.161 30.0467 269.322 30.208C269.483 30.3693 269.564 30.5673 269.564 30.802V36.522C269.564 37.4313 269.733 38.1793 270.07 38.766C270.422 39.3527 270.891 39.7927 271.478 40.086C272.079 40.3793 272.754 40.526 273.502 40.526C274.221 40.526 274.866 40.3867 275.438 40.108C276.025 39.8293 276.487 39.448 276.824 38.964C277.161 38.48 277.33 37.93 277.33 37.314H278.54C278.496 38.238 278.239 39.0667 277.77 39.8C277.315 40.5187 276.699 41.0907 275.922 41.516C275.145 41.9267 274.279 42.132 273.326 42.132ZM278.166 42C277.917 42 277.711 41.9267 277.55 41.78C277.403 41.6187 277.33 41.406 277.33 41.142V30.802C277.33 30.5527 277.403 30.3547 277.55 30.208C277.711 30.0467 277.917 29.966 278.166 29.966C278.415 29.966 278.621 30.0467 278.782 30.208C278.943 30.3547 279.024 30.5527 279.024 30.802V41.142C279.024 41.406 278.943 41.6187 278.782 41.78C278.621 41.9267 278.415 42 278.166 42ZM283.275 34.586C283.319 33.6767 283.553 32.8627 283.979 32.144C284.419 31.4253 284.983 30.8607 285.673 30.45C286.377 30.0393 287.154 29.834 288.005 29.834C288.679 29.834 289.2 29.9293 289.567 30.12C289.933 30.3107 290.073 30.5893 289.985 30.956C289.926 31.176 289.823 31.3227 289.677 31.396C289.545 31.4693 289.376 31.4987 289.171 31.484C288.98 31.4693 288.76 31.4547 288.511 31.44C287.689 31.3667 286.956 31.4547 286.311 31.704C285.68 31.9387 285.174 32.3053 284.793 32.804C284.426 33.3027 284.243 33.8967 284.243 34.586H283.275ZM283.407 42C283.143 42 282.937 41.9267 282.791 41.78C282.644 41.6333 282.571 41.428 282.571 41.164V30.802C282.571 30.538 282.644 30.3327 282.791 30.186C282.937 30.0393 283.143 29.966 283.407 29.966C283.671 29.966 283.876 30.0393 284.023 30.186C284.169 30.3327 284.243 30.538 284.243 30.802V41.164C284.243 41.428 284.169 41.6333 284.023 41.78C283.876 41.9267 283.671 42 283.407 42ZM302.984 42C302.207 42 301.51 41.8167 300.894 41.45C300.293 41.0833 299.816 40.5847 299.464 39.954C299.112 39.3087 298.936 38.5753 298.936 37.754V26.996C298.936 26.7467 299.01 26.5413 299.156 26.38C299.318 26.2187 299.523 26.138 299.772 26.138C300.022 26.138 300.227 26.2187 300.388 26.38C300.55 26.5413 300.63 26.7467 300.63 26.996V37.754C300.63 38.502 300.85 39.118 301.29 39.602C301.73 40.0713 302.295 40.306 302.984 40.306H303.578C303.813 40.306 304.004 40.3867 304.15 40.548C304.297 40.7093 304.37 40.9147 304.37 41.164C304.37 41.4133 304.282 41.6187 304.106 41.78C303.93 41.9267 303.71 42 303.446 42H302.984ZM297.506 31.88C297.286 31.88 297.103 31.814 296.956 31.682C296.81 31.5353 296.736 31.3593 296.736 31.154C296.736 30.934 296.81 30.758 296.956 30.626C297.103 30.4793 297.286 30.406 297.506 30.406H303.116C303.336 30.406 303.52 30.4793 303.666 30.626C303.813 30.758 303.886 30.934 303.886 31.154C303.886 31.3593 303.813 31.5353 303.666 31.682C303.52 31.814 303.336 31.88 303.116 31.88H297.506ZM307.93 42C307.666 42 307.453 41.9267 307.292 41.78C307.145 41.6187 307.072 41.406 307.072 41.142V30.824C307.072 30.56 307.145 30.3547 307.292 30.208C307.453 30.0467 307.666 29.966 307.93 29.966C308.179 29.966 308.377 30.0467 308.524 30.208C308.685 30.3547 308.766 30.56 308.766 30.824V41.142C308.766 41.406 308.685 41.6187 308.524 41.78C308.377 41.9267 308.179 42 307.93 42ZM307.908 27.678C307.585 27.678 307.307 27.5607 307.072 27.326C306.837 27.0913 306.72 26.8053 306.72 26.468C306.72 26.1013 306.837 25.8153 307.072 25.61C307.321 25.39 307.607 25.28 307.93 25.28C308.238 25.28 308.509 25.39 308.744 25.61C308.993 25.8153 309.118 26.1013 309.118 26.468C309.118 26.8053 309.001 27.0913 308.766 27.326C308.531 27.5607 308.245 27.678 307.908 27.678ZM328.929 42C328.68 42 328.475 41.9267 328.313 41.78C328.152 41.6187 328.071 41.4133 328.071 41.164V34.828C328.071 33.7867 327.8 32.9653 327.257 32.364C326.715 31.748 326.018 31.44 325.167 31.44C324.258 31.44 323.51 31.748 322.923 32.364C322.351 32.9653 322.073 33.772 322.087 34.784H320.569C320.584 33.8013 320.797 32.936 321.207 32.188C321.618 31.44 322.183 30.8607 322.901 30.45C323.62 30.0393 324.434 29.834 325.343 29.834C326.209 29.834 326.971 30.0393 327.631 30.45C328.306 30.8607 328.827 31.44 329.193 32.188C329.575 32.936 329.765 33.816 329.765 34.828V41.164C329.765 41.4133 329.685 41.6187 329.523 41.78C329.377 41.9267 329.179 42 328.929 42ZM313.529 42C313.265 42 313.053 41.9267 312.891 41.78C312.745 41.6187 312.671 41.4133 312.671 41.164V30.824C312.671 30.5747 312.745 30.3693 312.891 30.208C313.053 30.0467 313.265 29.966 313.529 29.966C313.779 29.966 313.977 30.0467 314.123 30.208C314.285 30.3693 314.365 30.5747 314.365 30.824V41.164C314.365 41.4133 314.285 41.6187 314.123 41.78C313.977 41.9267 313.779 42 313.529 42ZM321.251 42C321.002 42 320.797 41.9267 320.635 41.78C320.474 41.6187 320.393 41.4133 320.393 41.164V34.828C320.393 33.7867 320.122 32.9653 319.579 32.364C319.037 31.748 318.34 31.44 317.489 31.44C316.58 31.44 315.832 31.7407 315.245 32.342C314.659 32.9287 314.365 33.6987 314.365 34.652H313.155C313.185 33.7133 313.39 32.8847 313.771 32.166C314.167 31.4327 314.703 30.8607 315.377 30.45C316.052 30.0393 316.815 29.834 317.665 29.834C318.531 29.834 319.293 30.0393 319.953 30.45C320.628 30.8607 321.149 31.44 321.515 32.188C321.897 32.936 322.087 33.816 322.087 34.828V41.164C322.087 41.4133 322.007 41.6187 321.845 41.78C321.699 41.9267 321.501 42 321.251 42ZM338.559 42.11C337.371 42.11 336.315 41.8533 335.391 41.34C334.482 40.812 333.763 40.086 333.235 39.162C332.722 38.238 332.465 37.182 332.465 35.994C332.465 34.7913 332.707 33.7353 333.191 32.826C333.69 31.902 334.372 31.176 335.237 30.648C336.102 30.12 337.1 29.856 338.229 29.856C339.344 29.856 340.312 30.1127 341.133 30.626C341.969 31.1247 342.614 31.8213 343.069 32.716C343.524 33.6107 343.751 34.63 343.751 35.774C343.751 36.0087 343.678 36.1993 343.531 36.346C343.384 36.478 343.194 36.544 342.959 36.544H333.609V35.136H343.135L342.189 35.818C342.204 34.9673 342.05 34.2047 341.727 33.53C341.404 32.8553 340.942 32.3273 340.341 31.946C339.754 31.5647 339.05 31.374 338.229 31.374C337.393 31.374 336.66 31.572 336.029 31.968C335.398 32.364 334.907 32.914 334.555 33.618C334.218 34.3073 334.049 35.0993 334.049 35.994C334.049 36.8887 334.24 37.6807 334.621 38.37C335.017 39.0593 335.552 39.602 336.227 39.998C336.902 40.394 337.679 40.592 338.559 40.592C339.087 40.592 339.615 40.504 340.143 40.328C340.686 40.1373 341.118 39.9027 341.441 39.624C341.602 39.492 341.786 39.426 341.991 39.426C342.196 39.4113 342.372 39.4627 342.519 39.58C342.71 39.756 342.805 39.9467 342.805 40.152C342.82 40.3573 342.739 40.5333 342.563 40.68C342.079 41.0907 341.463 41.4353 340.715 41.714C339.967 41.978 339.248 42.11 338.559 42.11ZM346.605 42.352C346.253 42.352 345.952 42.2273 345.703 41.978C345.453 41.7287 345.329 41.428 345.329 41.076C345.329 40.7093 345.453 40.4013 345.703 40.152C345.967 39.9027 346.267 39.778 346.605 39.778C346.957 39.778 347.257 39.91 347.507 40.174C347.756 40.4233 347.881 40.724 347.881 41.076C347.881 41.4133 347.756 41.714 347.507 41.978C347.272 42.2273 346.971 42.352 346.605 42.352Z" fill="black"/>
</svg>
