<svg width="384" height="285" viewBox="0 0 296 276" fill="none" xmlns="http://www.w3.org/2000/svg">
<g clip-path="url(#clip0_222_5021)">
<path d="M273.24 211.148L286.478 213.217C290.959 207.791 294.048 201.354 295.477 194.464C285.797 202.387 271.076 198.177 259.338 202.503C255.688 203.88 252.394 206.061 249.701 208.884C247.008 211.708 244.985 215.101 243.781 218.812L237.312 225.773C243.168 228.091 249.457 229.113 255.746 228.766C262.036 228.42 268.175 226.715 273.741 223.767C276.848 222.083 279.729 220.014 282.319 217.609C277.687 214.693 273.24 211.148 273.24 211.148Z" fill="#F2F2F2"/>
<path d="M268.54 189.976L281.312 185.924C282.903 179.069 282.797 171.93 281.002 165.125C275.872 176.534 260.819 179.331 252.242 188.437C249.589 191.298 247.614 194.719 246.462 198.447C245.311 202.175 245.014 206.115 245.592 209.973L242.906 219.089C249.181 218.552 255.266 216.661 260.74 213.547C266.215 210.432 270.949 206.167 274.617 201.047C276.646 198.154 278.303 195.017 279.548 191.71C274.101 191.165 268.54 189.976 268.54 189.976Z" fill="#F2F2F2"/>
<path d="M295.548 229.989C295.548 230.058 295.535 230.125 295.509 230.189C295.483 230.252 295.445 230.309 295.396 230.357C295.348 230.406 295.291 230.444 295.227 230.47C295.164 230.496 295.097 230.509 295.028 230.509H0.9718C0.83396 230.509 0.701764 230.454 0.604296 230.357C0.506828 230.259 0.452072 230.127 0.452072 229.989C0.452072 229.852 0.506828 229.719 0.604296 229.622C0.701764 229.524 0.83396 229.47 0.9718 229.47H295.028C295.097 229.469 295.164 229.483 295.227 229.509C295.291 229.535 295.348 229.573 295.396 229.621C295.445 229.67 295.483 229.727 295.509 229.79C295.535 229.853 295.548 229.921 295.548 229.989Z" fill="#CCCCCC"/>
<path d="M122.303 207.832C174.163 207.832 216.203 165.792 216.203 113.932C216.203 62.0723 174.163 20.0317 122.303 20.0317C70.4434 20.0317 28.4028 62.0723 28.4028 113.932C28.4028 165.792 70.4434 207.832 122.303 207.832Z" fill="#E6E6E6"/>
<path d="M203.101 113.932C203.11 126.539 200.165 138.974 194.502 150.238C188.839 161.501 180.615 171.281 170.489 178.793C169.812 179.3 169.122 179.793 168.428 180.274C154.888 189.685 138.793 194.73 122.303 194.73C105.813 194.73 89.7183 189.685 76.1784 180.274C75.484 179.793 74.7939 179.3 74.1169 178.793C63.9986 171.275 55.7796 161.493 50.117 150.231C44.4544 138.969 41.5052 126.538 41.5052 113.932C41.5052 101.326 44.4544 88.8953 50.117 77.6329C55.7796 66.3706 63.9986 56.5893 74.1169 49.0709C74.7939 48.5643 75.484 48.0708 76.1784 47.5904C89.7183 38.1786 105.813 33.1341 122.303 33.1341C138.793 33.1341 154.888 38.1786 168.428 47.5904C169.122 48.0708 169.812 48.5643 170.489 49.0709C180.615 56.5827 188.839 66.3626 194.502 77.6265C200.165 88.8903 203.11 101.325 203.101 113.932Z" fill="white"/>
<path d="M122.303 187.742C163.067 187.742 196.113 154.696 196.113 113.932C196.113 73.1679 163.067 40.122 122.303 40.122C81.5389 40.122 48.4931 73.1679 48.4931 113.932C48.4931 154.696 81.5389 187.742 122.303 187.742Z" fill="#FF495C"/>
<path opacity="0.2" d="M122.496 40.3283C121.377 40.3283 120.265 40.3576 119.158 40.4069C137.813 42.0461 155.147 50.7154 167.649 64.6582C180.151 78.601 186.886 96.7747 186.488 115.497C186.091 134.22 178.591 152.092 165.509 165.492C152.427 178.891 134.74 186.817 116.032 187.663C118.163 187.848 120.317 187.948 122.496 187.948C142.071 187.948 160.845 180.172 174.687 166.33C188.529 152.488 196.306 133.714 196.306 114.138C196.306 94.5627 188.529 75.7889 174.687 61.9468C160.845 48.1047 142.071 40.3284 122.496 40.3284V40.3283Z" fill="black"/>
<path d="M122.521 34.8811C121.885 34.8822 121.274 35.1356 120.824 35.5859C120.374 36.0361 120.12 36.6464 120.119 37.2832V47.7651C120.119 48.4021 120.372 49.0131 120.823 49.4636C121.273 49.9141 121.884 50.1672 122.521 50.1672C123.159 50.1672 123.77 49.9141 124.22 49.4636C124.67 49.0131 124.924 48.4021 124.924 47.7651V37.2832C124.922 36.6464 124.669 36.0361 124.219 35.5859C123.769 35.1356 123.158 34.8822 122.521 34.8811Z" fill="white"/>
<path d="M170.489 49.0709C169.812 48.5643 169.122 48.0708 168.428 47.5904C168.011 47.5632 167.595 47.6452 167.219 47.8282C166.844 48.0113 166.523 48.2891 166.288 48.6342L160.387 57.2948C160.029 57.8213 159.894 58.4686 160.013 59.0944C160.132 59.7201 160.494 60.2731 161.021 60.6316C161.547 60.9901 162.194 61.1248 162.82 61.006C163.446 60.8872 163.999 60.5248 164.357 59.9983L170.258 51.3376C170.482 51.0091 170.621 50.6296 170.661 50.2337C170.702 49.8378 170.643 49.4381 170.489 49.0709Z" fill="white"/>
<path d="M197.297 88.5615C197.178 88.2695 197.003 88.0037 196.782 87.7793C196.56 87.555 196.297 87.3765 196.006 87.254C195.716 87.1315 195.404 87.0675 195.089 87.0655C194.774 87.0635 194.461 87.1236 194.17 87.2425L184.456 91.1863C183.867 91.4265 183.397 91.8909 183.149 92.4775C182.902 93.0641 182.898 93.7249 183.137 94.3148C183.377 94.9046 183.841 95.3751 184.427 95.623C185.014 95.8709 185.674 95.8758 186.264 95.6367L195.978 91.6929C196.567 91.4515 197.037 90.9865 197.284 90.3996C197.531 89.8127 197.536 89.1517 197.297 88.5615Z" fill="white"/>
<path d="M84.2188 57.2949L78.3184 48.6342C78.0833 48.2891 77.7622 48.0113 77.3869 47.8283C77.0116 47.6452 76.5951 47.5632 76.1784 47.5904C75.484 48.0708 74.7939 48.5643 74.1169 49.0709C73.9635 49.4381 73.9043 49.8378 73.9447 50.2337C73.9851 50.6296 74.1239 51.0091 74.3484 51.3377L80.2488 59.9983C80.6073 60.5248 81.1603 60.8873 81.7861 61.006C82.4118 61.1248 83.0591 60.9901 83.5856 60.6316C84.112 60.2731 84.4745 59.7202 84.5933 59.0944C84.712 58.4686 84.5773 57.8213 84.2188 57.2949Z" fill="white"/>
<path d="M60.1498 91.1863L50.4366 87.2425C49.8465 87.0029 49.1853 87.0074 48.5985 87.2552C48.0118 87.503 47.5475 87.9737 47.3077 88.5638C47.068 89.1539 47.0724 89.8151 47.3201 90.4019C47.5678 90.9887 48.0384 91.4531 48.6285 91.6929L58.3417 95.6367C58.9317 95.8758 59.5925 95.8709 60.1789 95.623C60.7653 95.3751 61.2293 94.9045 61.4689 94.3147C61.7086 93.7249 61.7042 93.0641 61.4569 92.4775C61.2095 91.8909 60.7394 91.4265 60.1498 91.1863V91.1863Z" fill="white"/>
<path d="M122.521 177.697C121.885 177.698 121.274 177.951 120.824 178.402C120.374 178.852 120.12 179.462 120.119 180.099V190.581C120.119 191.218 120.372 191.829 120.823 192.279C121.273 192.73 121.884 192.983 122.521 192.983C123.159 192.983 123.77 192.73 124.22 192.279C124.67 191.829 124.924 191.218 124.924 190.581V180.099C124.922 179.462 124.669 178.852 124.219 178.402C123.769 177.951 123.158 177.698 122.521 177.697Z" fill="white"/>
<path d="M170.258 176.526L164.357 167.866C164.18 167.605 163.953 167.382 163.689 167.209C163.425 167.036 163.13 166.917 162.82 166.858C162.51 166.799 162.192 166.802 161.883 166.866C161.574 166.931 161.281 167.055 161.021 167.232C160.76 167.41 160.537 167.637 160.364 167.901C160.191 168.165 160.072 168.46 160.013 168.77C159.954 169.08 159.957 169.398 160.021 169.707C160.085 170.015 160.21 170.309 160.387 170.569L166.288 179.23C166.523 179.575 166.844 179.853 167.219 180.036C167.595 180.219 168.011 180.301 168.428 180.274C169.122 179.793 169.812 179.3 170.489 178.793C170.643 178.426 170.702 178.026 170.661 177.63C170.621 177.234 170.482 176.855 170.258 176.526Z" fill="white"/>
<path d="M195.978 136.171L186.264 132.227C185.674 131.988 185.013 131.992 184.426 132.24C183.84 132.488 183.375 132.958 183.136 133.549C182.896 134.139 182.9 134.8 183.148 135.387C183.396 135.973 183.866 136.438 184.456 136.678L194.17 140.622C194.76 140.861 195.42 140.856 196.007 140.608C196.593 140.36 197.057 139.889 197.297 139.3C197.536 138.71 197.532 138.049 197.285 137.462C197.037 136.876 196.567 136.411 195.978 136.171V136.171Z" fill="white"/>
<path d="M83.5856 167.232C83.0591 166.874 82.4118 166.74 81.7861 166.858C81.1604 166.977 80.6075 167.339 80.2489 167.866L74.3484 176.526C74.1239 176.855 73.9851 177.234 73.9447 177.63C73.9043 178.026 73.9635 178.426 74.117 178.793C74.7939 179.3 75.484 179.793 76.1784 180.274C76.5951 180.301 77.0117 180.219 77.387 180.036C77.7623 179.853 78.0833 179.575 78.3185 179.23L84.2189 170.569C84.3964 170.309 84.5209 170.015 84.5851 169.707C84.6494 169.398 84.6522 169.079 84.5934 168.77C84.5346 168.46 84.4153 168.165 84.2424 167.901C84.0695 167.637 83.8463 167.41 83.5856 167.232Z" fill="white"/>
<path d="M61.4688 133.546C61.3502 133.254 61.1752 132.988 60.9538 132.764C60.7324 132.54 60.469 132.361 60.1785 132.239C59.8881 132.116 59.5764 132.052 59.2613 132.05C58.9461 132.048 58.6336 132.108 58.3417 132.227L48.6285 136.171C48.0389 136.411 47.5688 136.876 47.3214 137.462C47.0741 138.049 47.0697 138.71 47.3094 139.3C47.549 139.889 48.013 140.36 48.5994 140.608C49.1858 140.856 49.8466 140.861 50.4366 140.622L60.1498 136.678C60.7391 136.436 61.2088 135.971 61.456 135.384C61.7032 134.797 61.7078 134.137 61.4688 133.546Z" fill="white"/>
<path d="M125.638 112.74C125.86 114.053 125.552 115.4 124.782 116.487C124.011 117.573 122.841 118.309 121.529 118.534L78.9034 125.784C78.2531 125.895 77.5875 125.876 76.9444 125.73C76.3014 125.583 75.6935 125.311 75.1555 124.93C74.6175 124.548 74.1599 124.064 73.8089 123.506C73.4579 122.947 73.2203 122.325 73.1097 121.675C72.9991 121.025 73.0176 120.359 73.1643 119.716C73.3109 119.073 73.5828 118.465 73.9644 117.927C74.346 117.389 74.8298 116.932 75.3882 116.581C75.9466 116.23 76.5687 115.992 77.2189 115.881L119.844 108.631C121.157 108.409 122.505 108.717 123.591 109.488C124.677 110.258 125.413 111.428 125.638 112.74Z" fill="#3F3D56"/>
<path d="M170.5 159.966C169.888 160.582 169.056 160.929 168.188 160.933C167.32 160.936 166.485 160.595 165.868 159.984L119.982 114.458C119.367 113.846 119.019 113.015 119.016 112.146C119.013 111.278 119.355 110.444 119.966 109.828C120.578 109.212 121.409 108.863 122.277 108.859C123.145 108.856 123.979 109.197 124.596 109.808L170.482 155.333C171.098 155.946 171.446 156.777 171.449 157.646C171.453 158.514 171.111 159.349 170.5 159.966Z" fill="#3F3D56"/>
<path d="M122.303 119.61C125.439 119.61 127.981 117.068 127.981 113.932C127.981 110.796 125.439 108.254 122.303 108.254C119.167 108.254 116.625 110.796 116.625 113.932C116.625 117.068 119.167 119.61 122.303 119.61Z" fill="#CCCCCC"/>
<path d="M83.1952 15.4803C74.48 29.1821 61.1826 38.2753 44.7835 44.2489C44.4595 44.4916 44.0908 44.6681 43.6985 44.7684C43.3063 44.8686 42.8981 44.8905 42.4974 44.833C42.0966 44.7755 41.7111 44.6396 41.3629 44.4331C41.0146 44.2266 40.7105 43.9535 40.4678 43.6295C31.56 31.7358 33.5714 14.7374 45.3278 5.64925C48.1701 3.45587 51.4198 1.84893 54.8882 0.921727C58.3566 -0.00547358 61.9747 -0.234471 65.5323 0.248036C69.0899 0.730543 72.5163 1.91494 75.6124 3.73246C78.7086 5.54999 81.4129 7.96444 83.5683 10.8356L83.8147 11.1646C84.0574 11.4887 84.2339 11.8573 84.3341 12.2496C84.4343 12.6419 84.4563 13.05 84.3987 13.4508C84.3412 13.8515 84.2053 14.237 83.9988 14.5852C83.7923 14.9335 83.5192 15.2376 83.1952 15.4803Z" fill="#E6E6E6"/>
<path d="M161.038 10.8356C163.193 7.96444 165.898 5.54998 168.994 3.73246C172.09 1.91493 175.516 0.730545 179.074 0.248038C182.631 -0.234469 186.25 -0.00547836 189.718 0.921723C193.186 1.84892 196.436 3.45586 199.278 5.64925C211.035 14.7374 213.046 31.7358 204.138 43.6295C203.896 43.9535 203.592 44.2266 203.243 44.4331C202.895 44.6396 202.51 44.7755 202.109 44.833C201.708 44.8905 201.3 44.8686 200.908 44.7684C200.515 44.6681 200.147 44.4916 199.823 44.2489C184.599 38.4204 172.115 28.3342 161.411 15.4803C160.757 14.9902 160.324 14.2601 160.207 13.4507C160.091 12.6414 160.301 11.819 160.791 11.1646L161.038 10.8356Z" fill="#E6E6E6"/>
<path d="M157.218 195.284C156.663 195.596 156.254 196.115 156.081 196.728C155.908 197.341 155.985 197.997 156.295 198.553L170.158 223.326C170.469 223.882 170.988 224.292 171.601 224.465C172.214 224.638 172.871 224.56 173.427 224.249C173.983 223.938 174.392 223.419 174.565 222.806C174.739 222.193 174.661 221.536 174.35 220.98L160.487 196.207C160.175 195.652 159.656 195.243 159.043 195.07C158.43 194.897 157.774 194.974 157.218 195.284Z" fill="#E6E6E6"/>
<path d="M84.119 196.207L70.2559 220.98C69.9449 221.536 69.8675 222.193 70.0407 222.806C70.2139 223.419 70.6234 223.938 71.1793 224.249C71.7352 224.56 72.3918 224.638 73.0049 224.465C73.6179 224.292 74.1371 223.882 74.4483 223.326L88.3114 198.553C88.4655 198.278 88.5639 197.975 88.601 197.662C88.638 197.348 88.6129 197.031 88.5272 196.727C88.4415 196.423 88.2969 196.14 88.1015 195.892C87.9061 195.644 87.6638 195.437 87.3885 195.283C87.1132 195.129 86.8102 195.031 86.4969 194.994C86.1836 194.957 85.866 194.982 85.5624 195.068C85.2588 195.154 84.9751 195.298 84.7274 195.494C84.4797 195.689 84.273 195.932 84.119 196.207H84.119Z" fill="#E6E6E6"/>
<path d="M172.966 229.67C177.066 229.67 180.39 226.345 180.39 222.245C180.39 218.144 177.066 214.82 172.966 214.82C168.865 214.82 165.541 218.144 165.541 222.245C165.541 226.345 168.865 229.67 172.966 229.67Z" fill="#E6E6E6"/>
<path d="M178.207 39.6853C182.307 39.6853 185.631 36.3611 185.631 32.2606C185.631 28.1601 182.307 24.8359 178.207 24.8359C174.106 24.8359 170.782 28.1601 170.782 32.2606C170.782 36.3611 174.106 39.6853 178.207 39.6853Z" fill="#E6E6E6"/>
<path d="M121.866 22.2155C125.967 22.2155 129.291 18.8913 129.291 14.7908C129.291 10.6903 125.967 7.36612 121.866 7.36612C117.766 7.36612 114.442 10.6903 114.442 14.7908C114.442 18.8913 117.766 22.2155 121.866 22.2155Z" fill="#E6E6E6"/>
<path d="M68.1466 38.8118C72.2472 38.8118 75.5713 35.4876 75.5713 31.3871C75.5713 27.2866 72.2472 23.9624 68.1466 23.9624C64.0461 23.9624 60.722 27.2866 60.722 31.3871C60.722 35.4876 64.0461 38.8118 68.1466 38.8118Z" fill="#E6E6E6"/>
<path d="M72.9508 229.67C77.0514 229.67 80.3755 226.345 80.3755 222.245C80.3755 218.144 77.0514 214.82 72.9508 214.82C68.8503 214.82 65.5262 218.144 65.5262 222.245C65.5262 226.345 68.8503 229.67 72.9508 229.67Z" fill="#E6E6E6"/>
<path d="M167.142 155.79C167.434 156.248 167.824 156.637 168.283 156.928C168.742 157.22 169.259 157.407 169.799 157.477C170.338 157.547 170.886 157.497 171.404 157.332C171.922 157.168 172.398 156.891 172.798 156.522L184.448 162.765L183.823 155.925L172.856 151.046C172.192 150.415 171.32 150.05 170.405 150.019C169.49 149.989 168.596 150.295 167.891 150.88C167.187 151.465 166.722 152.288 166.583 153.193C166.445 154.098 166.644 155.022 167.142 155.79H167.142Z" fill="#FFB7B7"/>
<path d="M175.63 158.177L180.196 151.875L202.19 162.273L229.56 157.137C230.913 156.883 232.305 156.93 233.638 157.275C234.97 157.62 236.21 158.254 237.271 159.132C238.331 160.01 239.184 161.11 239.771 162.356C240.358 163.601 240.664 164.96 240.666 166.336C240.668 168.822 239.684 171.208 237.929 172.969C236.174 174.73 233.793 175.723 231.306 175.731L199.941 175.789L175.63 158.177Z" fill="#3F3D56"/>
<path d="M168.599 267.026L163.979 264.817L170.325 245.509L177.142 248.77L168.599 267.026Z" fill="#FFB7B7"/>
<path d="M199.567 263.913C199.231 264.124 198.895 264.331 198.555 264.538C197.88 264.951 197.198 265.359 196.516 265.759C196.174 265.959 195.827 266.159 195.485 266.356V266.366L195.464 266.37L195.458 266.373L194.935 266.502L194.185 264.521L193.839 263.608L193.351 262.315L192.455 259.95L187.739 247.498L195.071 245.69L195.346 246.813H195.349L195.485 247.369L198.046 257.758L198.569 259.882L198.586 259.947L198.902 261.216L199.173 262.315L199.475 263.543L199.567 263.913Z" fill="#FFB7B7"/>
<path d="M243.306 220.184C242.841 220.931 242.366 221.674 241.888 222.41C240.999 223.781 240.086 225.131 239.149 226.461C239.149 226.464 239.146 226.464 239.143 226.468C238.596 226.974 237.993 227.415 237.344 227.781C237.317 227.801 237.287 227.815 237.26 227.832C236.782 228.096 236.274 228.3 235.746 228.439C235.556 228.487 235.363 228.534 235.173 228.582C234.488 228.744 233.809 228.884 233.134 229.006C231.933 229.22 230.745 229.372 229.564 229.467C229.469 229.477 229.374 229.484 229.279 229.491C224.424 229.847 219.698 229.274 214.764 228.334C212.328 227.872 209.841 227.319 207.266 226.746C206.424 226.556 205.58 226.369 204.725 226.183C204.66 226.169 204.592 226.152 204.524 226.139C203.303 225.871 202.061 225.606 200.789 225.345C199.187 225.016 197.535 224.697 195.818 224.395L195.94 226.814C196.042 228.675 196.429 230.509 197.087 232.253C197.82 234.397 198.4 236.094 197.175 239.626L196.585 241.336C196.891 242.185 196.996 243.093 196.892 243.99C196.788 244.887 196.477 245.747 195.984 246.503L195.866 246.683L200.789 259.139L201.108 259.946H198.587L195.486 259.95H190.23L182.647 244.736L182.284 244.009V243.972L183.067 214.735C183.077 214.477 183.098 214.216 183.132 213.958C183.27 212.786 183.64 211.653 184.221 210.625C184.802 209.598 185.582 208.696 186.515 207.973C187.409 207.274 188.433 206.76 189.527 206.461C190.622 206.161 191.765 206.082 192.89 206.229L195.486 206.565L200.789 207.25L204.524 207.735L204.599 207.745L215.616 209.171L216.407 205.947L216.552 205.893L221.191 204.193L237.232 198.313L237.273 198.299L238.328 197.913L238.454 198.116C238.491 198.177 238.529 198.238 238.563 198.299C239.605 200.169 240.455 202.141 241.097 204.183C242.177 207.519 243.066 210.914 243.761 214.352C243.791 214.501 243.818 214.637 243.842 214.759L243.852 214.796C243.862 214.854 243.869 214.891 243.872 214.901C244.242 216.442 243.984 218.321 243.306 220.184Z" fill="#2F2E41"/>
<path d="M243.983 209.409C243.932 209.192 243.868 208.972 243.8 208.758C243.261 207.139 242.634 205.551 241.92 204.001C241.119 202.237 240.159 200.347 239.016 198.301C238.463 197.31 237.868 196.28 237.231 195.21C236.912 194.674 236.581 194.127 236.237 193.571C236.223 193.545 236.209 193.52 236.193 193.496L236.094 193.333L220.222 195.457L214.312 196.248L213.959 199.193L213.874 199.923C213.87 199.923 213.87 199.923 213.874 199.926L213.636 201.914V201.918L213.321 204.544L213.294 204.54L204.523 203.404L195.484 202.233L190.629 201.606C189.504 201.459 188.36 201.538 187.266 201.837C186.171 202.136 185.147 202.651 184.253 203.35C183.321 204.073 182.541 204.974 181.96 206.002C181.379 207.03 181.009 208.163 180.871 209.335C180.84 209.572 180.82 209.816 180.81 210.057L176.229 220.911C173.488 227.403 171.743 234.271 171.051 241.283L167.692 252.022L168.171 252.066L175.289 252.727L177.169 252.904L181.308 246.861C181.78 246.172 182.228 245.463 182.645 244.737C183.332 243.551 183.943 242.322 184.474 241.059L193.428 219.751C194.12 219.87 194.805 219.983 195.484 220.09C198.623 220.599 201.635 221.014 204.523 221.336C213.911 222.384 222.041 222.465 229.278 221.576C231.31 221.329 233.275 221.003 235.171 220.599C235.867 220.453 236.554 220.296 237.231 220.128C237.39 220.09 237.547 220.053 237.703 220.012C239.105 219.651 240.394 218.943 241.452 217.954C242.51 216.966 243.303 215.727 243.759 214.353C244.303 212.76 244.381 211.045 243.983 209.409Z" fill="#2F2E41"/>
<path d="M170.074 263.873L165.076 261.478L164.293 261.101L163.041 264.175L154.3 266.099C153.868 266.194 153.478 266.424 153.186 266.757C152.894 267.089 152.716 267.506 152.678 267.947C152.64 268.388 152.744 268.829 152.975 269.207C153.206 269.584 153.551 269.878 153.961 270.045L162.501 273.529L165.212 271.09L164.547 274.364L167.764 275.677L171.289 264.457L170.074 263.873Z" fill="#2F2E41"/>
<path d="M200.789 259.139L201.108 259.946H200.789V259.139Z" fill="#2F2E41"/>
<path d="M199.048 260.119L193.811 261.933L192.989 262.217L194.263 265.282L189.406 272.799C189.165 273.17 189.05 273.609 189.076 274.051C189.103 274.492 189.27 274.914 189.553 275.254C189.837 275.594 190.221 275.834 190.651 275.94C191.08 276.046 191.532 276.011 191.941 275.842L200.461 272.309L200.671 268.668L202.502 271.462L205.712 270.132L200.322 259.679L199.048 260.119Z" fill="#2F2E41"/>
<path d="M242.677 214.325C242.366 214.324 242.06 214.249 241.785 214.104L214.15 199.664L213.831 198.357L213.229 194.22L213.237 194.181L215.865 182.064C215.817 181.96 215.716 181.79 215.603 181.597C214.429 179.609 210.859 173.558 217.674 165.227L229.638 151.278L239.907 150.836L240.024 150.984C242.77 154.43 244.622 158.502 245.415 162.836C246.208 167.171 245.918 171.634 244.571 175.83L243.502 195.141L244.649 199.041C245.319 201.333 245.208 203.783 244.333 206.005L244.596 212.32C244.607 212.578 244.565 212.837 244.473 213.079C244.381 213.321 244.241 213.543 244.062 213.73C243.883 213.917 243.668 214.066 243.43 214.168C243.192 214.271 242.936 214.324 242.677 214.325L242.677 214.325Z" fill="#3F3D56"/>
<path d="M218.706 230.251C219.174 229.975 219.576 229.599 219.883 229.15C220.19 228.702 220.395 228.191 220.484 227.655C220.572 227.118 220.542 226.569 220.395 226.045C220.249 225.522 219.989 225.037 219.634 224.624L226.278 213.198L219.421 213.584L214.163 224.376C213.51 225.017 213.114 225.876 213.052 226.789C212.99 227.703 213.265 228.607 213.825 229.331C214.385 230.056 215.191 230.549 216.09 230.719C216.99 230.888 217.921 230.722 218.706 230.251L218.706 230.251Z" fill="#FFB7B7"/>
<path d="M221.387 221.851L215.247 217.069L226.403 195.449L222.223 167.918C222.017 166.557 222.112 165.167 222.503 163.847C222.894 162.528 223.571 161.31 224.485 160.281C225.399 159.252 226.529 158.437 227.794 157.894C229.058 157.351 230.427 157.093 231.803 157.138C234.288 157.222 236.637 158.289 238.337 160.104C240.036 161.919 240.945 164.334 240.866 166.819L239.833 198.167L221.387 221.851Z" fill="#3F3D56"/>
<path d="M223.051 145.482V135.32C223.049 131.709 224.481 128.245 227.033 125.689C229.585 123.134 233.048 121.697 236.659 121.695C240.27 121.693 243.735 123.125 246.29 125.677C248.845 128.229 250.282 131.691 250.284 135.303V135.32C252.684 140.321 251.183 142.699 250.284 145.482C250.283 145.966 250.091 146.431 249.748 146.774C249.405 147.116 248.941 147.309 248.456 147.31H224.881C224.396 147.309 223.931 147.117 223.588 146.774C223.245 146.431 223.052 145.967 223.051 145.482Z" fill="#2F2E41"/>
<path d="M232.203 146.65C237.832 146.65 242.396 142.086 242.396 136.457C242.396 130.828 237.832 126.265 232.203 126.265C226.574 126.265 222.011 130.828 222.011 136.457C222.011 142.086 226.574 146.65 232.203 146.65Z" fill="#FFB7B7"/>
<path d="M242.87 139.129C242.778 139.115 242.685 139.095 242.593 139.081C241.003 138.799 239.413 138.522 237.828 138.235L237.682 134.642L235.762 137.86C231.381 139.314 227.283 138.492 223.427 136.679C222.155 136.075 220.921 135.395 219.732 134.642C220.056 132.655 220.82 130.765 221.968 129.111C223.117 127.457 224.62 126.081 226.369 125.083C226.515 125 226.655 124.928 226.801 124.855C226.802 124.855 226.803 124.854 226.803 124.854C226.804 124.854 226.804 124.854 226.805 124.853C226.805 124.853 226.806 124.852 226.806 124.852C226.806 124.851 226.806 124.85 226.806 124.85C227.054 124.733 227.307 124.621 227.56 124.519C229.539 123.746 231.697 123.55 233.784 123.954C235.87 124.359 237.798 125.347 239.345 126.804C242.457 129.775 243.857 134.681 242.87 139.129Z" fill="#2F2E41"/>
</g>
<defs>
<clipPath id="clip0_222_5021">
<rect width="295.096" height="276" fill="white" transform="translate(0.452057)"/>
</clipPath>
</defs>
</svg>
