<svg width="384" height="285" viewBox="0 0 384 285" fill="none" xmlns="http://www.w3.org/2000/svg">
<g clip-path="url(#clip0_222_5203)">
<path d="M38.038 76.0575C58.8568 76.0575 75.7337 59.1806 75.7337 38.3618C75.7337 17.543 58.8568 0.666077 38.038 0.666077C17.2192 0.666077 0.342285 17.543 0.342285 38.3618C0.342285 59.1806 17.2192 76.0575 38.038 76.0575Z" fill="#F0F0F0"/>
<path d="M345.962 160.532C366.781 160.532 383.658 143.655 383.658 122.837C383.658 102.018 366.781 85.1408 345.962 85.1408C325.143 85.1408 308.266 102.018 308.266 122.837C308.266 143.655 325.143 160.532 345.962 160.532Z" fill="#F0F0F0"/>
<path d="M228.204 281.282L221.577 278.491L217.031 245.268H156.488L151.56 278.355L145.631 281.32C145.348 281.462 145.12 281.695 144.986 281.983C144.851 282.27 144.818 282.594 144.891 282.903C144.964 283.212 145.139 283.487 145.387 283.683C145.636 283.88 145.944 283.987 146.261 283.987H227.658C227.983 283.987 228.298 283.875 228.55 283.669C228.801 283.463 228.974 283.177 229.038 282.858C229.103 282.539 229.055 282.208 228.903 281.921C228.751 281.634 228.504 281.408 228.204 281.282Z" fill="#E6E6E6"/>
<path d="M335.792 249.689H38.3914C36.831 249.685 35.3358 249.063 34.2337 247.958C33.1315 246.854 32.5126 245.357 32.5126 243.796V201.859H341.671V243.796C341.671 245.357 341.052 246.854 339.95 247.958C338.848 249.063 337.353 249.685 335.792 249.689Z" fill="#CCCCCC"/>
<path d="M341.982 221.68H32.2411V42.2384C32.2433 40.3553 32.9923 38.5499 34.3239 37.2183C35.6555 35.8868 37.4609 35.1378 39.3441 35.1357H334.879C336.762 35.1378 338.567 35.8868 339.899 37.2183C341.231 38.5499 341.98 40.3553 341.982 42.2384V221.68Z" fill="#3F3D56"/>
<path d="M323.482 208.656H50.7408C49.289 208.654 47.8971 208.077 46.8705 207.05C45.844 206.024 45.2665 204.632 45.2649 203.18V53.6353C45.2665 52.1835 45.8439 50.7916 46.8705 49.765C47.8971 48.7384 49.289 48.1609 50.7408 48.1592H323.482C324.934 48.1609 326.326 48.7384 327.353 49.765C328.379 50.7916 328.957 52.1835 328.958 53.6353V203.18C328.957 204.632 328.379 206.024 327.353 207.05C326.326 208.077 324.934 208.654 323.482 208.656Z" fill="white"/>
<path d="M263.602 284.334H110.345C110.188 284.337 110.034 284.289 109.908 284.195C109.781 284.102 109.689 283.97 109.646 283.819C109.619 283.716 109.616 283.609 109.637 283.505C109.658 283.4 109.702 283.303 109.767 283.218C109.832 283.134 109.915 283.066 110.01 283.019C110.106 282.972 110.21 282.948 110.317 282.948H263.545C263.711 282.942 263.873 282.992 264.007 283.091C264.14 283.189 264.236 283.33 264.279 283.49C264.302 283.591 264.301 283.696 264.278 283.797C264.254 283.899 264.208 283.993 264.143 284.074C264.078 284.155 263.996 284.221 263.902 284.266C263.808 284.31 263.706 284.334 263.602 284.334Z" fill="#CCCCCC"/>
<path d="M301.469 166.634H214.694C214.477 166.653 214.263 166.585 214.096 166.447C213.929 166.309 213.823 166.11 213.8 165.895V95.8751C213.823 95.6594 213.929 95.4611 214.096 95.3228C214.263 95.1845 214.477 95.1172 214.694 95.1354H301.469C301.685 95.1172 301.899 95.1845 302.067 95.3228C302.234 95.4611 302.34 95.6594 302.362 95.8751V165.895C302.34 166.11 302.234 166.309 302.067 166.447C301.899 166.585 301.685 166.653 301.469 166.634Z" fill="#F0F0F0"/>
<path d="M292.037 102.88H224.126C223.889 102.88 223.662 102.974 223.494 103.142C223.327 103.309 223.233 103.537 223.232 103.773V156.394C223.233 156.631 223.327 156.858 223.494 157.026C223.662 157.193 223.889 157.288 224.126 157.288H292.037C292.274 157.288 292.501 157.193 292.668 157.026C292.836 156.858 292.93 156.631 292.93 156.394V103.773C292.93 103.537 292.836 103.309 292.668 103.142C292.501 102.974 292.274 102.88 292.037 102.88Z" fill="white"/>
<path d="M274.797 157.288C275.18 155.908 275.478 154.719 275.631 153.877C275.678 153.617 275.683 153.351 275.645 153.09C275.073 149.022 264.743 145.582 263.419 145.157L263.099 141.615L250.097 140.215L248.451 144.746L243.784 146.496C243.615 146.558 243.455 146.641 243.306 146.742C242.914 147.006 242.613 147.384 242.443 147.825C242.273 148.265 242.242 148.747 242.355 149.206L244.342 157.288H274.797L274.797 157.288Z" fill="#FF495C"/>
<path d="M247.843 157.288H237.754C238.115 155.036 238.439 153.045 238.649 151.778C239.42 147.167 242.779 146.774 243.306 146.742C243.347 146.738 243.373 146.738 243.375 146.738H245.498L247.843 157.288Z" fill="#FF495C"/>
<path d="M274.797 157.288H277.243C277.124 155.764 276.569 154.307 275.645 153.09C275.181 152.477 274.582 151.979 273.895 151.635L273.711 151.555L271.56 157.288H274.797Z" fill="#FF495C"/>
<path d="M256.09 137.973C261.26 137.973 265.452 133.781 265.452 128.611C265.452 123.44 261.26 119.249 256.09 119.249C250.919 119.249 246.728 123.44 246.728 128.611C246.728 133.781 250.919 137.973 256.09 137.973Z" fill="#A0616A"/>
<path d="M249.806 124.05C250.775 125.197 252.415 125.52 253.928 125.652C257.465 125.847 261.012 125.558 264.471 124.791C264.687 126.868 264.101 129.108 265.324 130.817C265.898 128.748 266.231 126.62 266.318 124.475C266.409 123.555 266.289 122.626 265.967 121.759C265.795 121.325 265.504 120.948 265.128 120.67C264.752 120.393 264.305 120.227 263.839 120.191C264.537 119.662 265.354 119.312 266.218 119.174L263.246 117.68L264.009 116.896L258.627 116.567L260.186 115.577C257.839 115.255 255.465 115.18 253.102 115.354C251.999 115.355 250.916 115.656 249.971 116.225C249.082 116.86 248.569 118.123 249.12 119.056C248.43 119.169 247.779 119.457 247.231 119.892C246.683 120.327 246.255 120.895 245.988 121.542C245.649 122.57 245.568 123.665 245.75 124.732C245.952 126.443 246.35 128.126 246.935 129.748" fill="#2F2E41"/>
<path d="M64.8337 179.355V77.5915C64.8694 77.2757 65.0272 76.9865 65.2735 76.7856C65.5197 76.5847 65.8348 76.4881 66.1513 76.5166H194.103C194.42 76.4881 194.735 76.5847 194.981 76.7856C195.227 76.9865 195.385 77.2757 195.421 77.5915V179.355C195.385 179.671 195.227 179.96 194.981 180.161C194.735 180.362 194.42 180.458 194.103 180.43H66.1513C65.8348 180.458 65.5197 180.362 65.2735 180.161C65.0272 179.96 64.8694 179.671 64.8337 179.355Z" fill="#E4E4E4"/>
<path d="M78.7415 89.2535V166.845C78.742 167.194 78.881 167.529 79.1279 167.776C79.3749 168.023 79.7098 168.162 80.059 168.162H180.195C180.545 168.162 180.88 168.023 181.127 167.776C181.373 167.529 181.512 167.194 181.513 166.845V89.2535C181.512 88.9042 181.373 88.5694 181.127 88.3224C180.88 88.0754 180.545 87.9364 180.195 87.9359H80.059C79.7098 87.9364 79.3749 88.0754 79.1279 88.3224C78.881 88.5694 78.742 88.9042 78.7415 89.2535Z" fill="white"/>
<path d="M120.275 168.162H140.428L139.172 149.312L131.902 150.99L124.831 148.27L124.643 148.199L124.631 148.193C124.629 148.199 124.627 148.205 124.626 148.211C124.514 148.659 122.295 157.545 120.275 168.162Z" fill="#FF495C"/>
<path d="M108.129 152.389L110.012 168.162H126.997L124.831 148.27L124.81 148.076L124.643 148.199L124.626 148.211L120.435 151.268L108.129 152.389Z" fill="#2F2E41"/>
<path d="M137.447 168.162H152.658L152.877 155.745L141.684 152.032L139.172 149.312C139.172 149.312 138.378 157.496 137.447 168.162Z" fill="#2F2E41"/>
<path d="M100.807 168.162H113.412L112.603 156.863L108.13 152.389C108.13 152.389 104.59 159.814 100.807 168.162Z" fill="#2F2E41"/>
<path d="M149.071 168.162H155.721C155.691 164.543 155.674 162.043 155.674 161.337C155.707 160.246 155.469 159.164 154.981 158.188C154.493 157.212 153.77 156.372 152.878 155.745L149.519 156.863L149.071 168.162Z" fill="#2F2E41"/>
<path d="M150.109 143.38H114.874V128.53C114.874 123.44 118.46 117.321 122.867 114.89C129.053 111.477 135.815 111.417 141.421 114.726C144.059 116.288 146.247 118.508 147.769 121.17C149.292 123.831 150.098 126.842 150.109 129.908V143.38Z" fill="#2F2E41"/>
<path d="M144.356 136.392C147.727 130.225 145.461 122.492 139.293 119.121C133.126 115.75 125.393 118.016 122.022 124.183C118.651 130.351 120.917 138.083 127.085 141.455C133.252 144.826 140.984 142.559 144.356 136.392Z" fill="#FFB8B8"/>
<path d="M145.286 130.944H127.13L127.087 130.738C126.876 129.656 126.605 128.587 126.273 127.535C125.552 128.591 124.887 129.685 124.281 130.811L124.207 130.944H120.678C120.461 130.944 120.247 130.899 120.049 130.811C119.851 130.724 119.673 130.596 119.527 130.436C119.431 130.33 119.207 130.082 120.136 118.734C120.162 118.464 120.257 118.205 120.413 117.982C120.569 117.76 120.78 117.582 121.025 117.466C128.991 113.747 137.064 113.845 145.021 117.76H145.163L145.213 117.957C146.783 130.036 146.557 130.297 146.46 130.408C146.315 130.577 146.134 130.712 145.931 130.804C145.729 130.897 145.508 130.945 145.286 130.944Z" fill="#2F2E41"/>
</g>
<defs>
<clipPath id="clip0_222_5203">
<rect width="383.316" height="283.668" fill="white" transform="translate(0.342285 0.666077)"/>
</clipPath>
</defs>
</svg>
