<svg width="277" height="158" viewBox="0 0 277 158" fill="none" xmlns="http://www.w3.org/2000/svg">
<g clip-path="url(#clip0_40_1008)">
<path d="M207.738 0.000248031H152.241C149.563 0.000247006 146.965 0.910753 144.873 2.5821C142.782 4.25344 141.321 6.58617 140.732 9.19682L112.691 133.491C112.385 134.847 112.38 136.253 112.675 137.611C112.971 138.969 113.56 140.246 114.402 141.352C115.243 142.459 116.317 143.368 117.547 144.016C118.777 144.664 120.134 145.035 121.523 145.103L178.574 147.912C181.629 148.063 184.635 147.097 187.029 145.196C189.424 143.295 191.045 140.588 191.59 137.58L207.496 49.7029L208.68 50.0408L211.723 33.3847L210.505 33.0804L214.945 8.55071C215.136 7.50006 215.092 6.42041 214.816 5.38874C214.541 4.35708 214.041 3.39879 213.353 2.5822C212.665 1.76561 211.805 1.11083 210.834 0.664539C209.863 0.218243 208.806 -0.00857789 207.738 0.000248031Z" fill="#3F3D56"/>
<path d="M159.547 2.67969H153.069C151.209 2.67969 149.404 3.31551 147.955 4.48161C146.506 5.64771 145.5 7.27394 145.103 9.09034L118.188 132.37C118.033 133.08 118.033 133.815 118.188 134.525C118.343 135.234 118.65 135.902 119.087 136.483C119.524 137.063 120.082 137.542 120.721 137.888C121.361 138.233 122.068 138.437 122.793 138.484L179.659 142.209C181.264 142.314 182.85 141.825 184.117 140.835C185.384 139.846 186.241 138.425 186.526 136.843L209.494 9.42148C209.642 8.59675 209.608 7.74947 209.393 6.93943C209.178 6.12939 208.788 5.37632 208.251 4.73339C207.713 4.09045 207.04 3.57331 206.281 3.21846C205.521 2.86361 204.693 2.67969 203.854 2.67969H197.708C197.114 2.67969 196.535 2.87564 196.063 3.2372C195.591 3.59876 195.252 4.10577 195.097 4.67972C194.96 5.18642 194.661 5.63402 194.244 5.95321C193.827 6.27241 193.317 6.4454 192.791 6.4454H163.616C162.588 6.4454 161.598 6.05754 160.843 5.35938C160.089 4.66122 159.626 3.7042 159.547 2.67969L159.547 2.67969Z" fill="#FF495C"/>
<path d="M241.744 109.633C232.87 123.646 235.594 141.278 235.594 141.278C235.594 141.278 252.706 136.19 261.58 122.178C270.454 108.165 267.73 90.5336 267.73 90.5336C267.73 90.5336 250.618 95.6208 241.744 109.633Z" fill="#FF8B97"/>
<path d="M248.586 111.996C248.095 128.572 235.965 141.663 235.965 141.663C235.965 141.663 224.632 127.878 225.122 111.303C225.613 94.7271 237.743 81.6367 237.743 81.6367C237.743 81.6367 249.077 95.4208 248.586 111.996Z" fill="#FF495C"/>
<path d="M26.7439 91.0903C29.5462 91.0903 31.818 89.545 31.818 87.6388C31.818 85.7326 29.5462 84.1874 26.7439 84.1874C23.9415 84.1874 21.6697 85.7326 21.6697 87.6388C21.6697 89.545 23.9415 91.0903 26.7439 91.0903Z" fill="#FF495C"/>
<path d="M26.7438 87.6389C26.7438 87.6389 50.8459 129.488 50.2116 135.528L26.7438 87.6389Z" fill="#FF495C"/>
<path d="M42.6005 90.5257V115.007C37.5518 108.016 27.4819 100.818 8.61157 94.9741L42.6005 141.628V141.983C42.6005 141.983 42.6647 141.948 42.7842 141.881L42.8421 141.96C42.8421 141.96 42.8906 141.895 42.9774 141.77C46.9373 139.478 80.149 118.809 42.6005 90.5257Z" fill="#3F3D56"/>
<path d="M211.721 91.0903C214.523 91.0903 216.795 89.545 216.795 87.6388C216.795 85.7326 214.523 84.1874 211.721 84.1874C208.918 84.1874 206.647 85.7326 206.647 87.6388C206.647 89.545 208.918 91.0903 211.721 91.0903Z" fill="#FF495C"/>
<path d="M211.721 87.6389C211.721 87.6389 235.823 129.488 235.188 135.528L211.721 87.6389Z" fill="#FF495C"/>
<path d="M227.577 90.5257V115.007C222.529 108.016 212.459 100.818 193.588 94.9741L227.577 141.628V141.983C227.577 141.983 227.641 141.948 227.761 141.881L227.819 141.96C227.819 141.96 227.867 141.895 227.954 141.77C231.914 139.478 265.126 118.809 227.577 90.5257Z" fill="#3F3D56"/>
<path d="M10.4788 134.837C13.1427 139.774 18.7965 141.894 18.7965 141.894C18.7965 141.894 20.1312 136.009 17.4673 131.072C14.8033 126.135 9.14956 124.015 9.14956 124.015C9.14956 124.015 7.81483 129.9 10.4788 134.837Z" fill="#FF8B97"/>
<path d="M12.3098 133.213C17.1193 136.105 18.9715 141.848 18.9715 141.848C18.9715 141.848 13.0261 142.904 8.21664 140.012C3.40716 137.12 1.55487 131.377 1.55487 131.377C1.55487 131.377 7.5003 130.322 12.3098 133.213Z" fill="#FF495C"/>
<path d="M169.623 134.837C172.287 139.774 177.941 141.894 177.941 141.894C177.941 141.894 179.276 136.009 176.612 131.072C173.948 126.135 168.294 124.015 168.294 124.015C168.294 124.015 166.959 129.9 169.623 134.837Z" fill="#3F3D56"/>
<path d="M171.454 133.213C176.264 136.105 178.116 141.848 178.116 141.848C178.116 141.848 172.171 142.904 167.361 140.012C162.552 137.12 160.7 131.377 160.7 131.377C160.7 131.377 166.645 130.322 171.454 133.213Z" fill="#3F3D56"/>
<path d="M104.582 131.15C107.246 136.087 112.899 138.206 112.899 138.206C112.899 138.206 114.234 132.321 111.57 127.384C108.906 122.447 103.252 120.328 103.252 120.328C103.252 120.328 101.918 126.213 104.582 131.15Z" fill="#3F3D56"/>
<path d="M106.413 129.525C111.222 132.417 113.074 138.16 113.074 138.16C113.074 138.16 107.129 139.216 102.32 136.324C97.5101 133.433 95.6578 127.689 95.6578 127.689C95.6578 127.689 101.603 126.634 106.413 129.525Z" fill="#FF495C"/>
<path d="M75.7511 131.15C78.4151 136.087 84.0689 138.206 84.0689 138.206C84.0689 138.206 85.4036 132.321 82.7397 127.384C80.0757 122.447 74.4219 120.328 74.4219 120.328C74.4219 120.328 73.0872 126.213 75.7511 131.15Z" fill="#FF8B97"/>
<path d="M77.5822 129.525C82.3917 132.417 84.2439 138.16 84.2439 138.16C84.2439 138.16 78.2985 139.216 73.489 136.324C68.6795 133.433 66.8272 127.689 66.8272 127.689C66.8272 127.689 72.7727 126.634 77.5822 129.525Z" fill="#FF495C"/>
<path d="M266.494 134.837C263.83 139.774 258.176 141.894 258.176 141.894C258.176 141.894 256.842 136.009 259.506 131.072C262.169 126.135 267.823 124.015 267.823 124.015C267.823 124.015 269.158 129.9 266.494 134.837Z" fill="#3F3D56"/>
<path d="M264.663 133.213C259.854 136.105 258.001 141.848 258.001 141.848C258.001 141.848 263.947 142.904 268.756 140.012C273.566 137.12 275.418 131.377 275.418 131.377C275.418 131.377 269.473 130.322 264.663 133.213Z" fill="#FF495C"/>
<path d="M277 145.49C277 145.49 270.366 143.526 257.171 141.638L257.408 137.603C259.394 114.884 243.83 81.0369 243.83 81.0369C249.825 97.8758 252.798 115.64 252.614 133.512C250.55 130.016 246.6 126.265 239.07 124.027C239.07 124.027 248.93 132.265 251.833 140.927C241.883 139.697 228.992 138.619 213.184 138.303L216.442 130.552L210.089 137.061C210.089 137.061 207.198 117.807 201.512 117.122L205.912 135.979C205.912 135.979 200.944 132.259 199.814 132.651L202.684 138.211C200.919 138.215 199.123 138.229 197.297 138.252C198.659 115.561 183.631 82.8808 183.631 82.8808C189.627 99.7197 192.6 117.484 192.416 135.356C190.352 131.859 186.402 128.109 178.872 125.871C178.872 125.871 185.651 131.535 189.622 138.409C179.637 138.685 168.802 139.267 157.122 140.249C155.766 140.209 154.387 140.175 152.986 140.147L154.51 136.519L155.1 135.377C155.067 135.366 155.034 135.359 155 135.355L156.243 132.395L152.203 136.535C151.295 137.086 150.385 137.712 149.768 138.15C149.702 137.761 149.609 137.239 149.491 136.612L153.402 119.847C150.882 120.151 148.912 124.102 147.498 128.408C146.069 123.774 144.005 119.29 141.313 118.966L145.413 136.534C145.346 136.865 145.285 137.178 145.23 137.469C143.97 136.562 140.617 134.239 139.653 134.487L138.472 133.277L141.323 140.06C139.956 140.066 138.571 140.078 137.168 140.095C136.935 140.069 136.702 140.043 136.47 140.018L138.528 135.121L134.008 139.752C133.273 139.673 132.54 139.597 131.81 139.521C130.869 134.505 128.116 122.236 123.598 121.691L127.661 139.108C126.989 139.043 126.319 138.98 125.653 138.918C124.201 137.974 122.504 137.011 121.9 137.22L122.634 138.642C104.539 137.04 88.4297 136.398 74.3165 136.367L77.1862 130.807C76.0556 130.415 71.0884 134.135 71.0884 134.135L75.4884 115.278C71.9524 115.704 69.4977 123.311 68.1466 129.003C66.8764 126.052 65.2931 123.763 63.3993 123.535L65.8783 134.159L60.5584 128.708L63.816 136.459C48.0083 136.775 35.1173 137.854 25.1674 139.083C28.0699 130.421 37.9302 122.183 37.9302 122.183C30.4 124.421 26.45 128.172 24.386 131.668C24.2016 113.796 27.1753 96.0319 33.1704 79.193C33.1704 79.193 17.6058 113.04 19.5918 135.759L19.8293 139.794C6.63401 141.682 0 143.646 0 143.646L64.4833 144.454L65.0545 145.561C56.5731 146.685 47.7401 148.021 38.5555 149.567L216.802 147.334C216.802 147.334 215.41 146.923 212.643 146.296L277 145.49Z" fill="#3F3D56"/>
<path d="M51.0262 158C51.0262 158 93.4647 151.777 119.758 158H51.0262Z" fill="#3F3D56"/>
<path d="M213.4 152.682C213.4 152.682 238.535 146.312 254.109 152.682H213.4Z" fill="#3F3D56"/>
<path d="M174.815 118.803C174.705 118.803 174.595 118.799 174.484 118.792L170.551 118.534L132.008 116.01C131.368 115.969 130.747 115.774 130.198 115.441C129.649 115.109 129.188 114.648 128.856 114.1C128.315 113.223 128.137 112.171 128.359 111.165L148.465 19.081C148.778 17.6763 149.559 16.4195 150.681 15.5168C151.803 14.6141 153.198 14.1189 154.638 14.1125H192.572C193.232 14.1127 193.884 14.2577 194.482 14.5372C195.08 14.8167 195.609 15.2238 196.033 15.7299C196.456 16.236 196.763 16.8288 196.932 17.4664C197.101 18.104 197.128 18.7708 197.011 19.42L179.856 114.595C179.697 115.469 179.315 116.287 178.745 116.969L178.697 117.084L178.647 117.085C178.226 117.558 177.722 117.949 177.158 118.239L177.13 118.252C176.412 118.615 175.619 118.803 174.815 118.803ZM154.638 14.5735C153.303 14.5794 152.01 15.0384 150.97 15.8753C149.93 16.7121 149.206 17.8771 148.915 19.1793L128.81 111.263C128.626 112.116 128.762 113.005 129.193 113.764C129.623 114.522 130.318 115.095 131.144 115.375C131.434 115.472 131.735 115.531 132.04 115.55L174.514 118.332C175.345 118.387 176.175 118.218 176.918 117.843L176.944 117.831C177.453 117.569 177.91 117.217 178.292 116.79L178.367 116.703C178.899 116.076 179.256 115.321 179.402 114.513L196.557 19.3383L196.784 19.3791L196.557 19.3383C196.662 18.7555 196.638 18.1569 196.486 17.5845C196.334 17.0121 196.058 16.48 195.679 16.0257C195.299 15.5713 194.824 15.2058 194.287 14.9549C193.75 14.7039 193.165 14.5738 192.572 14.5735H154.638Z" fill="#3F3D56"/>
<path d="M133.663 108.028C133.663 108.028 126.425 116.464 127.947 117.015C129.468 117.565 136.57 111.538 136.114 109.407L133.663 108.028Z" fill="#FFB9B9"/>
<path d="M176.265 115.846C176.265 115.846 180.195 126.241 178.577 126.241C176.959 126.241 172.336 118.156 173.492 116.308L176.265 115.846Z" fill="#FFB9B9"/>
<path d="M178.71 52.9272C178.061 52.0103 177.263 51.209 176.579 50.3185C175 48.2655 174.454 45.5299 172.336 43.9555C170.239 42.3977 166.913 40.8644 164.29 40.9872C160.833 41.1491 158.091 43.8291 155.707 46.3369C153.886 48.2534 152.065 50.1698 150.244 52.0862C148.927 53.4727 147.56 54.9445 147.086 56.7967C146.629 58.5767 147.075 60.489 147.91 62.1259C148.778 63.7864 149.996 65.2392 151.48 66.3844C153.309 63.8679 155.871 60.393 155.871 60.393L156.467 69.0362C159.566 70.0624 162.894 70.2641 166.159 70.0373L167.126 66.4935L168.141 69.841C172.043 69.3241 175.963 67.9777 178.379 64.9349C181.049 61.5709 181.191 56.4332 178.71 52.9272Z" fill="#2F2E41"/>
<path d="M163.783 60.6379C167.741 60.6379 170.949 57.4319 170.949 53.4771C170.949 49.5222 167.741 46.3162 163.783 46.3162C159.826 46.3162 156.617 49.5222 156.617 53.4771C156.617 57.4319 159.826 60.6379 163.783 60.6379Z" fill="#FFB9B9"/>
<path d="M159.16 56.942C159.16 56.942 159.622 62.4859 156.617 62.9479C153.612 63.4099 150.376 62.9479 150.376 64.7959C150.376 66.6438 152.688 83.5065 152.688 83.5065L158.467 83.0445L166.557 75.1906L170.949 66.6438C170.949 66.6438 165.632 64.3339 167.944 57.404L159.16 56.942Z" fill="#FFB9B9"/>
<path d="M155.693 80.2725L153.381 74.0357L153.844 65.4888C153.844 65.4888 158.919 64.7959 158.808 60.6379L154.999 62.2549L146.215 63.6409V71.7257C146.215 71.7257 143.21 76.5766 146.678 81.4275L148.296 91.5913L164.939 90.4363L170.255 83.5065L176.959 70.3397L170.024 65.2579L170.949 63.8719L167.412 61.5667L167.944 65.9508L166.326 68.7228C166.326 68.7228 158.929 70.1088 155.693 80.2725Z" fill="white"/>
<path d="M147.602 64.1029L146.215 63.6409C146.215 63.6409 143.442 64.7958 143.442 68.4918C143.442 72.1877 132.346 108.685 132.346 108.685L137.432 110.071L144.366 93.2083L148.527 79.1176L147.602 64.1029Z" fill="white"/>
<path d="M175.11 70.3397H176.959C176.959 70.3397 178.115 69.4157 177.883 76.1146C177.652 82.8135 178.577 118.156 178.577 118.156L171.873 117.694L170.255 79.5795L175.11 70.3397Z" fill="white"/>
<path d="M170.566 118.304L157.934 117.477L154.864 117.276L147.873 116.818C147.767 116.442 147.675 116.117 147.601 115.845C145.29 107.298 147.834 95.2877 147.834 95.2877C147.834 95.2877 147.371 94.133 147.834 93.4392C148.295 92.7455 148.065 92.9783 147.14 92.054C146.215 91.1298 147.14 92.054 147.601 90.8993C148.065 89.7423 147.601 90.8993 147.601 89.9751C147.625 89.4714 147.461 88.9768 147.14 88.5875C147.33 88.4377 147.538 88.3108 147.758 88.2095C152.156 86.1029 166.274 88.6959 166.274 88.6959C166.274 88.6959 166.265 88.7074 166.249 88.7304C166.138 88.8918 165.718 89.5971 166.325 90.2055C167.019 90.8993 165.864 90.8993 165.633 91.5907C165.4 92.2845 165.633 91.5907 165.864 92.2845C166.094 92.9783 165.4 93.9002 165.4 93.9002C171.351 98.8972 171.664 109.345 170.566 118.304Z" fill="#2F2E41"/>
<path d="M157.934 117.477L154.864 117.276C155.385 114.909 155.692 113.535 155.692 113.535L157.934 117.477Z" fill="#2F2E41"/>
<path d="M156.039 48.2797C156.039 48.2797 161.818 55.2095 173.376 51.2826L170.14 45.5077L162.512 43.1978L156.039 48.2797Z" fill="#2F2E41"/>
<path d="M102.629 150.196C102.629 150.196 105.895 152.944 107.614 152.772C109.333 152.6 112.598 152.6 111.223 154.49C109.848 156.379 104.176 157.41 101.77 157.582C99.3637 157.753 94.0354 157.925 94.3792 156.895C94.7229 155.864 95.0667 151.055 96.4417 150.711C97.8167 150.368 102.629 150.196 102.629 150.196Z" fill="#575A89"/>
<path d="M83.886 147.498C83.886 147.498 86.2924 151.022 87.9942 151.318C89.6959 151.614 92.8415 152.491 91.0089 153.942C89.1763 155.392 83.4358 154.862 81.0718 154.381C78.7079 153.9 73.5294 152.634 74.1377 151.734C74.746 150.834 76.3705 146.294 77.7874 146.332C79.2042 146.371 83.886 147.498 83.886 147.498Z" fill="#575A89"/>
<path d="M104.542 97.0971C104.542 97.0971 106.755 112.236 106.239 114.985C105.723 117.733 105.379 122.027 105.379 122.027C105.379 122.027 105.723 125.634 105.379 127.351C105.036 129.069 102.973 145.386 102.973 145.73C102.973 146.074 103.317 147.104 102.973 147.963C102.629 148.822 101.942 148.135 102.973 149.509C104.004 150.883 103.317 151.226 103.145 151.226C102.973 151.226 96.2698 151.913 95.9261 151.226C95.5823 150.539 96.098 150.368 95.9261 149.509C95.7542 148.65 95.5823 148.478 95.2386 148.306C94.8948 148.135 94.2073 148.478 94.7229 147.619C95.2386 146.761 96.4417 145.73 96.098 145.215C95.7542 144.699 96.2698 140.921 96.2698 140.921C96.2698 140.921 96.6136 132.504 96.7855 127.351C96.9574 122.199 95.2386 116.874 95.2386 116.874C95.0245 121.09 93.4575 125.125 90.7697 128.382C86.3008 133.707 84.0664 143.669 84.0664 143.669C84.0664 143.669 83.0351 145.215 83.5508 146.589C84.0664 147.963 85.6133 147.104 84.0664 147.963C82.5195 148.822 77.1912 147.619 76.6756 147.104C76.16 146.589 77.3631 145.902 77.0193 144.528C76.6756 143.154 75.3006 143.497 76.5037 142.81C77.7069 142.123 78.0506 142.295 78.0506 141.608C78.0506 140.921 81.1445 125.977 85.9571 121.683L86.3008 106.053C86.3008 106.053 82.0039 95.0602 86.4727 94.0296C90.9416 92.9991 104.542 97.0971 104.542 97.0971Z" fill="#2F2E41"/>
<path d="M101.426 56.4138C101.426 56.4138 98.5043 63.6278 99.1918 64.6584C99.8793 65.6889 90.7697 61.2231 90.7697 61.2231C90.7697 61.2231 93.6916 54.0091 93.6916 53.1503C93.6916 52.2915 101.426 56.4138 101.426 56.4138Z" fill="#FFB9B9"/>
<path d="M99.2777 58.2172C102.79 58.2172 105.637 55.3719 105.637 51.862C105.637 48.3522 102.79 45.5068 99.2777 45.5068C95.7654 45.5068 92.9182 48.3522 92.9182 51.862C92.9182 55.3719 95.7654 58.2172 99.2777 58.2172Z" fill="#FFB9B9"/>
<path d="M90.7697 58.3031C90.7697 58.3031 95.2386 57.7878 97.473 60.536C99.7074 63.2842 100.051 63.9713 100.051 63.9713C100.051 63.9713 105.379 72.5594 104.348 76.8534C104.097 77.2411 103.867 77.6425 103.661 78.0557C103.317 78.7428 103.317 88.3615 103.661 89.9073C104.004 91.4532 104.348 91.9685 104.004 94.2014C103.661 96.4343 106.754 100.041 103.145 100.728C99.5355 101.415 96.7855 100.9 95.5823 99.3542C94.3792 97.8084 95.4104 96.7778 91.6291 96.7778C87.8477 96.7778 85.4414 94.2014 85.4414 94.2014C85.4414 94.2014 87.3321 92.1402 86.6446 91.7967C85.9571 91.4532 86.6446 90.5944 86.9883 89.7356C87.3321 88.8767 87.3321 88.1897 86.8165 88.1897C86.3008 88.1897 86.6446 87.8462 86.9883 86.9874C87.3321 86.1286 80.9726 71.357 84.7539 67.063C88.5353 62.7689 90.4259 60.3643 90.4259 60.3643C90.4259 60.3643 89.7384 57.7878 90.7697 58.3031Z" fill="#2F2E41"/>
<path d="M100.567 74.6205V82.178L106.067 100.385C106.067 100.385 109.676 109.832 106.067 109.832C102.457 109.832 102.651 100.815 102.651 100.815L94.8948 87.1591C94.8948 87.1591 91.8009 76.3381 92.1447 75.4793C92.4885 74.6205 100.567 74.6205 100.567 74.6205Z" fill="#FFB9B9"/>
<path d="M97.6449 63.456C97.6449 63.456 102.801 65.5172 101.426 71.0135C100.051 76.5099 101.426 76.3382 101.426 76.3382C101.426 76.3382 94.3791 75.6511 92.1447 77.197L91.6291 75.1358C91.6291 75.1358 89.5665 63.2843 97.6449 63.456Z" fill="#2F2E41"/>
<path d="M101.449 47.0911C101.846 47.2318 102.272 47.2716 102.688 47.2069C103.104 47.1422 103.497 46.975 103.833 46.7204C104.481 46.187 104.755 45.2027 104.374 44.4553C104.045 43.8098 103.341 43.4557 102.666 43.1917C101.177 42.6096 99.6088 42.2557 98.014 42.1419C97.2536 42.0879 96.4551 42.0964 95.7766 42.4435C95.4408 42.6153 95.1492 42.8631 94.8167 43.041C94.2053 43.3682 93.4939 43.4409 92.8332 43.6514C92.1572 43.8718 91.5365 44.2347 91.013 44.7155C90.4895 45.1964 90.0755 45.784 89.799 46.4386C89.6193 46.8831 89.4939 47.3476 89.4252 47.8221C89.2276 49.1212 89.3657 50.4492 89.8263 51.68C90.559 53.6294 92.0956 55.3336 92.1824 57.4142C93.1229 56.7323 93.4717 55.5015 94.2254 54.6177C94.7861 53.9645 95.552 53.5205 96.3979 53.3585C96.632 53.3442 96.857 53.2623 97.0454 53.1225C97.1766 52.9659 97.2589 52.7742 97.2819 52.5712L97.9255 49.5347C98.0565 48.9167 98.222 48.243 98.7302 47.8675C99.0467 47.6652 99.4057 47.5388 99.7791 47.4982C100.667 47.3432 101.565 47.2613 102.466 47.2534" fill="#2F2E41"/>
</g>
<defs>
<clipPath id="clip0_40_1008">
<rect width="277" height="158" fill="white"/>
</clipPath>
</defs>
</svg>
