<svg width="317" height="302" viewBox="0 0 317 302" fill="none" xmlns="http://www.w3.org/2000/svg">
<path d="M10.0467 188.104C11.6176 172.034 21.1128 155.992 36.2206 150.381C30.638 167.025 31.1098 185.113 37.5527 201.442C40.0602 207.731 43.5026 214.464 41.4658 220.921C40.1985 224.939 36.9242 228.073 33.2251 230.076C29.5258 232.079 25.3889 233.096 21.3036 234.093L20.5125 234.784C13.6065 220.195 8.47566 204.175 10.0467 188.104Z" fill="#F0F0F0"/>
<path d="M36.3798 150.68C27.8496 160.77 22.4808 173.657 21.5421 186.868C21.3391 189.724 21.3813 192.639 22.0758 195.431C22.7736 198.147 24.1844 200.627 26.1616 202.612C27.9681 204.5 30.0341 206.221 31.3513 208.516C32.7396 210.935 32.863 213.722 32.0241 216.352C30.9976 219.57 28.8786 222.226 26.7164 224.752C24.3156 227.556 21.7776 230.431 20.8213 234.09C20.7054 234.534 20.0257 234.328 20.1414 233.885C21.8052 227.518 27.8325 223.769 30.6034 218.001C31.8963 215.31 32.3878 212.211 31.038 209.441C29.8577 207.019 27.7287 205.242 25.8831 203.346C23.9452 201.356 22.4418 199.156 21.627 196.475C20.7935 193.732 20.6376 190.812 20.7668 187.964C21.1078 181.506 22.4599 175.141 24.7735 169.104C27.376 162.2 31.1377 155.792 35.8962 150.158C36.1908 149.81 36.6725 150.333 36.3798 150.68L36.3798 150.68Z" fill="white"/>
<path d="M21.6213 182.557C19.4138 182.081 17.4472 180.834 16.0727 179.038C14.6981 177.243 14.0052 175.016 14.1175 172.756C14.1229 172.664 14.1638 172.578 14.2316 172.515C14.2993 172.453 14.3887 172.419 14.4807 172.421C14.5728 172.423 14.6604 172.461 14.7251 172.527C14.7898 172.592 14.8266 172.681 14.8276 172.773C14.7191 174.878 15.3648 176.952 16.6482 178.621C17.9316 180.29 19.7681 181.445 21.8263 181.876C22.2734 181.97 22.0659 182.651 21.6213 182.557V182.557Z" fill="white"/>
<path d="M25.1199 201.775C29.0201 199.301 31.8465 195.444 33.0354 190.974C33.1528 190.531 33.8326 190.737 33.7153 191.18C32.4694 195.829 29.52 199.837 25.4557 202.402C25.0682 202.647 24.7345 202.018 25.1199 201.775Z" fill="white"/>
<path d="M28.0523 162.856C28.8681 163.219 29.761 163.373 30.6508 163.304C31.5406 163.236 32.3995 162.947 33.1503 162.463C33.5346 162.214 33.8679 162.843 33.4862 163.09C32.6541 163.62 31.7052 163.939 30.7222 164.017C29.7393 164.094 28.7522 163.93 27.8473 163.538C27.7589 163.508 27.6851 163.445 27.641 163.363C27.5969 163.281 27.5858 163.184 27.6098 163.094C27.6374 163.004 27.6994 162.929 27.7822 162.884C27.8651 162.839 27.9621 162.829 28.0523 162.856H28.0523Z" fill="white"/>
<path d="M83.4294 177.778C83.1938 177.94 82.9583 178.102 82.7227 178.271C79.5674 180.47 76.5956 182.923 73.8367 185.605C73.6201 185.809 73.4037 186.019 73.1934 186.229C66.6153 192.761 61.3045 200.46 57.5309 208.935C56.0324 212.309 54.7922 215.792 53.821 219.355C52.48 224.275 51.4166 229.716 48.6147 233.785C48.3271 234.213 48.0134 234.622 47.6753 235.011L21.4155 235.698C21.3551 235.669 21.2945 235.647 21.2337 235.618L20.1865 235.694C20.2238 235.506 20.2665 235.313 20.3038 235.126C20.325 235.017 20.352 234.908 20.3732 234.799C20.3891 234.727 20.4054 234.654 20.4157 234.588C20.4209 234.564 20.4264 234.54 20.4318 234.522C20.4421 234.455 20.4586 234.395 20.4691 234.334C20.7047 233.253 20.9483 232.171 21.1999 231.089C21.1998 231.083 21.1998 231.083 21.2055 231.076C23.1436 222.836 25.7852 214.686 29.5772 207.196C29.6914 206.971 29.8051 206.74 29.9312 206.514C31.6592 203.148 33.6588 199.928 35.9101 196.888C37.1481 195.228 38.4693 193.631 39.8684 192.104C43.4913 188.167 47.7096 184.824 52.3687 182.2C61.6575 176.971 72.5117 174.776 82.6564 177.557C82.9158 177.629 83.1697 177.7 83.4294 177.778Z" fill="#F0F0F0"/>
<path d="M83.379 178.113C70.5064 181.023 58.4779 188.073 49.7918 198.055C47.9139 200.213 46.1963 202.566 45.0736 205.214C43.9989 207.804 43.6359 210.635 44.0222 213.413C44.3305 216.01 44.9459 218.631 44.6188 221.258C44.2739 224.028 42.6984 226.327 40.4486 227.921C37.6958 229.871 34.408 230.713 31.1643 231.425C27.5628 232.216 23.8094 232.979 20.8474 235.324C20.4886 235.608 20.0697 235.034 20.428 234.75C25.5814 230.67 32.6462 231.313 38.3236 228.38C40.9728 227.011 43.2264 224.834 43.8128 221.808C44.3255 219.162 43.6932 216.458 43.3584 213.831C43.0069 211.073 43.1282 208.409 44.0884 205.776C45.0705 203.084 46.6999 200.658 48.5146 198.462C52.6665 193.511 57.5694 189.246 63.0435 185.821C69.2694 181.878 76.1224 179.032 83.3061 177.405C83.7508 177.305 83.8208 178.013 83.3791 178.113H83.379Z" fill="white"/>
<path d="M52.4444 194.661C50.9681 192.948 50.1472 190.766 50.1283 188.503C50.1094 186.24 50.8937 184.044 52.3412 182.307C52.6353 181.957 53.1925 182.398 52.898 182.749C51.5471 184.364 50.8167 186.41 50.8386 188.517C50.8605 190.624 51.6332 192.654 53.0174 194.24C53.3178 194.585 52.7431 195.004 52.4444 194.661V194.661Z" fill="white"/>
<path d="M43.6927 212.116C48.2932 212.494 52.8667 211.12 56.5014 208.268C56.8612 207.986 57.2802 208.56 56.9208 208.843C53.133 211.803 48.3706 213.223 43.5841 212.82C43.1279 212.781 43.239 212.078 43.6927 212.116H43.6927Z" fill="white"/>
<path d="M69.4147 182.811C69.8481 183.593 70.4686 184.254 71.2203 184.736C71.972 185.219 72.8314 185.506 73.7213 185.573C74.1778 185.606 74.0662 186.309 73.6127 186.276C72.6298 186.198 71.6811 185.879 70.8494 185.348C70.0177 184.817 69.3284 184.09 68.8417 183.231C68.789 183.154 68.7676 183.06 68.7819 182.967C68.7962 182.875 68.845 182.791 68.9184 182.734C68.9946 182.678 69.0894 182.656 69.1824 182.67C69.2753 182.684 69.3588 182.735 69.4147 182.811V182.811Z" fill="white"/>
<path d="M237.551 44.1002C237.159 42.9399 232.242 38.996 235.255 38.3331L237.726 41.6347L249.085 30.2507L250.227 31.3957L237.551 44.1002Z" fill="#FF495C"/>
<path d="M237.551 82.8104C237.159 81.6502 232.242 77.7062 235.255 77.0433L237.726 80.3449L249.085 68.9609L250.227 70.1059L237.551 82.8104Z" fill="#FF495C"/>
<path d="M237.551 122.074C237.159 120.914 232.242 116.97 235.255 116.307L237.726 119.608L249.085 108.224L250.227 109.369L237.551 122.074Z" fill="#FF495C"/>
<path d="M227.091 90.3303C229.027 90.3303 230.596 88.7575 230.596 86.8174C230.596 84.8772 229.027 83.3044 227.091 83.3044C225.155 83.3044 223.586 84.8772 223.586 86.8174C223.586 88.7575 225.155 90.3303 227.091 90.3303Z" fill="#3F3D56"/>
<path d="M227.091 52.0395C229.027 52.0395 230.596 50.4667 230.596 48.5266C230.596 46.5865 229.027 45.0137 227.091 45.0137C225.155 45.0137 223.586 46.5865 223.586 48.5266C223.586 50.4667 225.155 52.0395 227.091 52.0395Z" fill="#3F3D56"/>
<path d="M317 40.4468H260.566V41.1494H317V40.4468Z" fill="#3F3D56"/>
<path d="M228.843 131.148C230.779 131.148 232.349 129.576 232.349 127.635C232.349 125.695 230.779 124.123 228.843 124.123C226.907 124.123 225.338 125.695 225.338 127.635C225.338 129.576 226.907 131.148 228.843 131.148Z" fill="#3F3D56"/>
<path d="M317 79.157H260.566V79.8596H317V79.157Z" fill="#3F3D56"/>
<path d="M317 118.42H260.566V119.123H317V118.42Z" fill="#3F3D56"/>
<path d="M246.404 127.308H228.878V109.392H240.796V110.095H229.579V126.605H245.703V118.526H246.404V127.308Z" fill="#3F3D56"/>
<path d="M246.404 87.9633H228.878V70.0474H240.796V70.7499H229.579V87.2607H245.703V79.181H246.404V87.9633Z" fill="#3F3D56"/>
<path d="M246.404 47.9159H228.878V30H240.796V30.7026H229.579V47.2133H245.703V39.1336H246.404V47.9159Z" fill="#3F3D56"/>
<path d="M131.974 93.8549C131.974 93.8549 127.29 113.675 133.015 113.675C138.74 113.675 152.271 91.247 152.271 91.247L147.587 85.5095L139.18 97.2075L138.74 91.247L131.974 93.8549Z" fill="#A0616A"/>
<path d="M151.023 92.1087C153.54 92.1087 155.58 90.0641 155.58 87.5419C155.58 85.0197 153.54 82.9751 151.023 82.9751C148.506 82.9751 146.466 85.0197 146.466 87.5419C146.466 90.0641 148.506 92.1087 151.023 92.1087Z" fill="#A0616A"/>
<path d="M128.002 228.849L134.067 228.848L136.953 205.401L128.001 205.401L128.002 228.849Z" fill="#A0616A"/>
<path d="M127.789 235.19L146.441 235.189V234.953C146.441 233.023 145.676 231.172 144.314 229.808C142.953 228.444 141.106 227.677 139.181 227.677H139.181L135.773 225.086L129.417 227.677L127.788 227.677L127.789 235.19Z" fill="#2F2E41"/>
<path d="M62.7571 221.264L68.1842 223.979L81.2139 204.29L73.2037 200.284L62.7571 221.264Z" fill="#A0616A"/>
<path d="M59.74 226.843L76.4295 235.19L76.5349 234.978C77.3946 233.252 77.5348 231.254 76.9246 229.424C76.3143 227.593 75.0037 226.081 73.281 225.219L73.2806 225.219L71.3864 221.376L64.5441 220.85L63.0872 220.121L59.74 226.843Z" fill="#2F2E41"/>
<path d="M199.746 235.213H0V236H199.746V235.213Z" fill="#CCCCCC"/>
<path d="M88.787 129.812C88.787 129.812 86.363 159.022 85.8426 165.281C85.4857 169.204 84.6106 173.063 83.2403 176.756C83.2403 176.756 82.1994 178.842 82.1994 180.928L70.4026 202.415C70.4026 202.415 66.7978 205.07 67.3182 207.157C67.8386 209.243 65.1448 210.494 65.1448 210.494L77.5679 212.894C77.5679 212.894 77.0474 211.329 78.6088 210.808C80.1701 210.286 81.413 205.762 81.413 205.762L98.8537 177.277L111.344 151.198C111.344 151.198 118.631 174.669 120.192 177.277C120.192 177.277 125.917 206.486 126.958 209.094C127.999 211.702 128.519 211.702 127.999 212.745C127.478 213.788 127.478 214.832 127.999 215.353C128.519 215.875 138.408 215.353 138.408 215.353L135.805 178.32L131.121 133.985L107.181 126.683L88.787 129.812Z" fill="#2F2E41"/>
<path d="M112.226 60.0818C118.262 60.0818 123.155 55.1778 123.155 49.1284C123.155 43.079 118.262 38.175 112.226 38.175C106.19 38.175 101.297 43.079 101.297 49.1284C101.297 55.1778 106.19 60.0818 112.226 60.0818Z" fill="#A0616A"/>
<path d="M132.162 76.0888L119.152 68.1888C119.152 68.1888 118.791 63.283 115.084 63.0522C113.223 62.9363 110.43 62.7591 106.238 62.4883C105.353 62.4311 104.755 67.2877 103.74 67.2218L90.0061 70.873L92.0879 106.341C92.0879 106.341 88.9652 120.424 90.0061 123.032C91.047 125.64 87.4039 126.683 88.4447 127.204C89.4856 127.726 88.4447 131.377 88.4447 131.377C88.4447 131.377 108.742 141.809 131.121 133.985L129.04 127.204C129.323 126.318 129.376 125.374 129.194 124.461C129.012 123.549 128.6 122.698 127.999 121.989C127.999 121.989 130.08 118.859 127.478 116.251C127.478 116.251 128.519 111.557 125.917 109.47L125.396 102.168L126.958 98.5171L132.162 76.0888Z" fill="#E6E6E6"/>
<path d="M102.742 55.3857L102.437 54.6746C102.397 54.5826 98.5322 45.4254 101.958 39.7769C103.544 37.1619 106.428 35.6856 110.529 35.3892C116.946 34.9241 121.338 36.4497 123.586 39.9203C123.963 40.5085 124.175 41.1876 124.2 41.8863C124.224 42.5849 124.061 43.2773 123.726 43.8905C123.391 44.5038 122.897 45.0154 122.297 45.3714C121.697 45.7274 121.012 45.9147 120.314 45.9137H120.228L119.049 44.3794L118.98 44.5286C118.553 45.4542 117.573 45.9609 116.425 45.8499C116.23 45.8358 116.056 46.0048 115.917 46.3664C115.871 46.5245 115.782 46.6672 115.662 46.7793C115.541 46.8914 115.392 46.9689 115.231 47.0036C114.383 47.1691 113.174 46.0981 112.632 45.5643C112.611 45.6872 112.564 45.8041 112.494 45.9072C112.425 46.0103 112.334 46.0972 112.227 46.1619C111.657 46.4918 110.769 46.0609 110.514 45.9237C108.484 46.3559 107.17 46.2403 106.607 45.5804C106.225 48.2867 105.406 53.1578 104.424 53.4277C104.321 53.4514 104.214 53.4413 104.117 53.3991C104.021 53.3568 103.94 53.2845 103.888 53.1929C103.651 52.8852 103.44 52.7318 103.308 52.7749C102.989 52.8768 102.8 53.9314 102.773 54.612L102.742 55.3857Z" fill="#2F2E41"/>
<path d="M126.437 76.6105L131.629 75.7651C135.369 79.3664 137.917 84.0306 138.928 89.1286C140.49 97.474 141.01 99.0388 141.01 99.0388L128.519 102.168L121.753 89.1286L126.437 76.6105Z" fill="#E6E6E6"/>
<path d="M103.4 87.4654L100.192 128.227L182.069 134.7L185.277 93.9383L103.4 87.4654Z" fill="white"/>
<path d="M112.147 90.6235C110.144 89.1894 107.6 89.0857 106.628 89.1064C106.924 90.0338 107.846 92.4126 109.849 93.8472C111.858 95.2849 114.399 95.3854 115.369 95.3653C115.073 94.4382 114.151 92.0585 112.147 90.6235Z" fill="#FF495C"/>
<path d="M120.052 116.561L106.905 115.522C106.517 115.491 106.126 115.537 105.755 115.658C105.385 115.778 105.041 115.971 104.745 116.225C104.449 116.478 104.205 116.788 104.028 117.136C103.851 117.484 103.744 117.863 103.714 118.252C103.683 118.642 103.729 119.033 103.849 119.405C103.97 119.776 104.162 120.12 104.415 120.417C104.668 120.714 104.977 120.958 105.324 121.136C105.671 121.313 106.05 121.42 106.438 121.451V121.451L119.585 122.49C120.37 122.552 121.147 122.299 121.745 121.787C122.344 121.275 122.715 120.546 122.777 119.759C122.839 118.973 122.586 118.195 122.075 117.595C121.564 116.995 120.837 116.623 120.052 116.561V116.561Z" fill="#FF495C"/>
<path d="M182.049 89.9762L108.338 84.1482C107.48 84.0805 106.618 84.1828 105.8 84.4491C104.982 84.7154 104.225 85.1406 103.571 85.7003C102.917 86.26 102.379 86.9434 101.989 87.7114C101.598 88.4793 101.362 89.3168 101.295 90.1761L98.4601 126.166C98.3239 127.902 98.881 129.621 100.009 130.945C101.137 132.269 102.744 133.09 104.476 133.228L178.187 139.056C179.045 139.123 179.907 139.021 180.725 138.755C181.543 138.489 182.3 138.063 182.954 137.504C183.608 136.944 184.146 136.261 184.536 135.493C184.927 134.725 185.162 133.887 185.23 133.028L187.924 98.8206L187.978 98.1217L188.064 97.0342C188.131 96.175 188.029 95.3108 187.764 94.4911C187.498 93.6714 187.074 92.9121 186.515 92.2567C185.957 91.6013 185.275 91.0626 184.509 90.6713C183.742 90.28 182.907 90.0438 182.049 89.9762V89.9762ZM179.873 121.29L179.406 127.219C179.32 128.266 178.825 129.237 178.027 129.919C177.229 130.601 176.195 130.939 175.15 130.859L165.288 130.08C164.243 129.994 163.275 129.498 162.594 128.698C161.914 127.899 161.576 126.862 161.656 125.815L162.124 119.885C162.209 118.838 162.705 117.868 163.502 117.186C164.3 116.504 165.334 116.166 166.379 116.246L176.237 117.025C177.282 117.111 178.251 117.608 178.932 118.407C179.613 119.205 179.951 120.242 179.873 121.29V121.29ZM103.061 118.198C103.138 117.238 103.591 116.349 104.321 115.723C105.051 115.098 105.999 114.789 106.957 114.864L120.103 115.904C120.578 115.941 121.041 116.071 121.466 116.287C121.891 116.503 122.269 116.801 122.579 117.164C122.888 117.526 123.124 117.947 123.271 118.4C123.419 118.854 123.476 119.333 123.439 119.809C123.402 120.285 123.271 120.749 123.055 121.174C122.839 121.6 122.542 121.978 122.18 122.288C121.818 122.598 121.398 122.834 120.945 122.981C120.492 123.129 120.014 123.186 119.54 123.148L119.533 123.15L106.386 122.11C105.911 122.072 105.449 121.941 105.024 121.724C104.6 121.507 104.223 121.208 103.914 120.845C103.605 120.482 103.371 120.061 103.225 119.607C103.078 119.152 103.023 118.674 103.061 118.198V118.198ZM105.876 88.8713L105.786 88.5027L106.164 88.468C106.312 88.4521 109.809 88.1374 112.531 90.0863C115.253 92.0351 116.088 95.4543 116.124 95.5973L116.211 95.9667L115.834 96.0049C115.298 96.0448 114.76 96.0412 114.225 95.9942C112.523 95.8944 110.879 95.338 109.465 94.3832C106.743 92.4344 105.908 89.0152 105.876 88.8713V88.8713Z" fill="#FF495C"/>
<path d="M168.813 125.222L164.54 124.884C164.236 124.861 163.934 124.959 163.702 125.158C163.469 125.358 163.325 125.641 163.301 125.946C163.277 126.252 163.375 126.554 163.574 126.787C163.772 127.021 164.054 127.165 164.359 127.19L168.632 127.528C168.937 127.551 169.238 127.453 169.471 127.254C169.703 127.055 169.847 126.771 169.871 126.466C169.895 126.16 169.797 125.858 169.599 125.625C169.4 125.391 169.118 125.247 168.813 125.222V125.222Z" fill="#FF495C"/>
<path d="M176.702 125.846L172.429 125.508C172.124 125.484 171.823 125.583 171.591 125.782C171.358 125.981 171.215 126.265 171.191 126.57C171.167 126.875 171.264 127.178 171.462 127.411C171.661 127.644 171.943 127.789 172.247 127.814L176.52 128.151C176.825 128.175 177.126 128.076 177.358 127.877C177.591 127.678 177.734 127.394 177.758 127.089C177.782 126.784 177.685 126.482 177.487 126.248C177.288 126.015 177.006 125.87 176.702 125.846V125.846Z" fill="#FF495C"/>
<path d="M169.047 122.257L164.774 121.92C164.469 121.896 164.168 121.995 163.936 122.194C163.703 122.393 163.56 122.677 163.536 122.982C163.512 123.287 163.609 123.589 163.807 123.823C164.006 124.056 164.288 124.201 164.592 124.225L168.865 124.563C169.17 124.587 169.472 124.488 169.704 124.289C169.936 124.09 170.08 123.807 170.104 123.501C170.128 123.196 170.03 122.893 169.832 122.66C169.634 122.427 169.351 122.282 169.047 122.257V122.257Z" fill="#FF495C"/>
<path d="M176.935 122.881L172.662 122.543C172.357 122.52 172.056 122.618 171.823 122.817C171.591 123.017 171.447 123.3 171.423 123.605C171.399 123.911 171.497 124.213 171.695 124.446C171.893 124.68 172.176 124.824 172.481 124.849L176.753 125.187C177.058 125.21 177.36 125.112 177.592 124.913C177.824 124.713 177.968 124.43 177.993 124.125C178.017 123.819 177.919 123.517 177.72 123.284C177.522 123.05 177.24 122.906 176.935 122.881V122.881Z" fill="#FF495C"/>
<path d="M169.28 119.293L165.007 118.955C164.702 118.932 164.401 119.03 164.168 119.229C163.936 119.428 163.792 119.712 163.768 120.017C163.744 120.323 163.842 120.625 164.04 120.858C164.238 121.091 164.521 121.236 164.826 121.261L169.098 121.599C169.403 121.622 169.705 121.523 169.937 121.324C170.169 121.125 170.313 120.842 170.337 120.536C170.361 120.231 170.263 119.929 170.065 119.696C169.867 119.463 169.584 119.318 169.28 119.293V119.293Z" fill="#FF495C"/>
<path d="M177.168 119.916L172.895 119.579C172.591 119.555 172.289 119.654 172.057 119.853C171.825 120.052 171.681 120.335 171.657 120.641C171.633 120.946 171.731 121.248 171.929 121.482C172.127 121.715 172.409 121.86 172.714 121.884L176.987 122.222C177.291 122.245 177.593 122.147 177.825 121.948C178.057 121.749 178.201 121.465 178.225 121.16C178.249 120.855 178.151 120.552 177.953 120.319C177.755 120.086 177.473 119.941 177.168 119.916V119.916Z" fill="#FF495C"/>
<path d="M100.199 101.532L100.145 102.233L186.672 109.045L186.727 108.344L100.199 101.532Z" fill="white"/>
<path d="M187.978 98.1217L187.924 98.8207L184.912 98.584L152.828 96.0582L152.886 95.3584L184.967 97.8849L187.978 98.1217Z" fill="#3F3D56"/>
<path d="M82.1996 90.6933C82.1996 90.6933 77.5155 110.514 83.2405 110.514C88.9654 110.514 102.497 88.0854 102.497 88.0854L97.8129 82.3479L89.4056 94.0459L88.9653 88.0854L82.1996 90.6933Z" fill="#A0616A"/>
<path d="M101.249 88.9471C103.765 88.9471 105.806 86.9025 105.806 84.3803C105.806 81.8581 103.765 79.8135 101.249 79.8135C98.732 79.8135 96.6919 81.8581 96.6919 84.3803C96.6919 86.9025 98.732 88.9471 101.249 88.9471Z" fill="#A0616A"/>
<path d="M93.7973 74.0026L90.6746 70.873C90.6746 70.873 84.4293 74.5242 83.9088 78.1753C83.3884 81.8264 80.7861 93.3014 80.7861 93.3014L90.4144 94.0837L93.5371 89.3894L93.7973 74.0026Z" fill="#E6E6E6"/>
</svg>
