<svg width="251" height="235" viewBox="0 0 251 235" fill="none" xmlns="http://www.w3.org/2000/svg">
<g clip-path="url(#clip0_39_804)">
<path d="M232.025 179.782L243.285 181.543C247.097 176.924 249.724 171.443 250.939 165.576C242.706 172.323 230.185 168.737 220.201 172.421C217.096 173.593 214.295 175.45 212.004 177.854C209.713 180.258 207.993 183.147 206.969 186.308L201.466 192.234C206.447 194.208 211.797 195.078 217.146 194.783C222.495 194.488 227.717 193.036 232.452 190.526C235.094 189.092 237.545 187.331 239.748 185.283C235.808 182.8 232.025 179.782 232.025 179.782Z" fill="#F2F2F2"/>
<path d="M228.028 161.755L238.891 158.304C240.244 152.468 240.154 146.389 238.628 140.596C234.264 150.31 221.46 152.691 214.165 160.445C211.909 162.881 210.228 165.794 209.249 168.968C208.27 172.142 208.017 175.496 208.509 178.782L206.224 186.543C211.562 186.086 216.737 184.476 221.394 181.824C226.05 179.172 230.077 175.541 233.197 171.181C234.923 168.718 236.332 166.047 237.391 163.231C232.758 162.767 228.028 161.755 228.028 161.755Z" fill="#F2F2F2"/>
<path d="M251 195.824C251 195.883 250.989 195.94 250.967 195.994C250.945 196.048 250.912 196.097 250.871 196.138C250.83 196.179 250.781 196.211 250.727 196.234C250.674 196.256 250.616 196.267 250.558 196.267H0.442066C0.324823 196.267 0.21238 196.22 0.129477 196.137C0.0465739 196.054 0 195.942 0 195.824C0 195.707 0.0465739 195.594 0.129477 195.511C0.21238 195.428 0.324823 195.382 0.442066 195.382H250.558C250.616 195.382 250.674 195.393 250.727 195.415C250.781 195.437 250.83 195.47 250.871 195.511C250.912 195.552 250.945 195.601 250.967 195.655C250.989 195.709 251 195.766 251 195.824V195.824Z" fill="#CCCCCC"/>
<path d="M103.643 176.959C147.753 176.959 183.512 141.163 183.512 97.0073C183.512 52.8513 147.753 17.0559 103.643 17.0559C59.5327 17.0559 23.7742 52.8513 23.7742 97.0073C23.7742 141.163 59.5327 176.959 103.643 176.959Z" fill="#E6E6E6"/>
<path d="M172.367 97.0072C172.375 107.742 169.871 118.329 165.053 127.92C160.236 137.51 153.241 145.837 144.629 152.233C144.053 152.665 143.466 153.085 142.875 153.494C131.359 161.507 117.669 165.803 103.643 165.803C89.6174 165.803 75.9274 161.507 64.4107 153.494C63.8201 153.085 63.2331 152.665 62.6573 152.233C54.051 145.832 47.0602 137.503 42.2437 127.914C37.4272 118.325 34.9187 107.74 34.9187 97.0072C34.9187 86.2741 37.4272 75.6897 42.2437 66.1004C47.0602 56.5111 54.051 48.1828 62.6573 41.7813C63.2331 41.35 63.8201 40.9298 64.4107 40.5207C75.9274 32.507 89.6174 28.2119 103.643 28.2119C117.669 28.2119 131.359 32.507 142.875 40.5207C143.466 40.9298 144.053 41.35 144.629 41.7813C153.241 48.1772 160.236 56.5043 165.053 66.0949C169.871 75.6855 172.375 86.2726 172.367 97.0072V97.0072Z" fill="white"/>
<path d="M103.643 159.853C138.316 159.853 166.424 131.716 166.424 97.0073C166.424 62.2987 138.316 34.1619 103.643 34.1619C68.9702 34.1619 40.8623 62.2987 40.8623 97.0073C40.8623 131.716 68.9702 159.853 103.643 159.853Z" fill="#FF495C"/>
<path opacity="0.2" d="M103.807 34.3376C102.855 34.3376 101.909 34.3626 100.968 34.4045C116.835 35.8003 131.579 43.1817 142.213 55.0533C152.847 66.9249 158.575 82.3989 158.237 98.3403C157.899 114.282 151.52 129.499 140.393 140.908C129.265 152.317 114.222 159.066 98.3093 159.786C100.121 159.943 101.954 160.029 103.807 160.029C120.457 160.029 136.426 153.407 148.199 141.622C159.973 129.836 166.587 113.851 166.587 97.1831C166.587 80.5155 159.973 64.5305 148.199 52.7447C136.426 40.9589 120.457 34.3377 103.807 34.3377V34.3376Z" fill="black"/>
<path d="M103.829 29.6995C103.287 29.7004 102.768 29.9162 102.385 30.2996C102.002 30.6829 101.787 31.2026 101.786 31.7447V40.6695C101.786 41.212 102.001 41.7322 102.384 42.1158C102.767 42.4993 103.287 42.7148 103.829 42.7148C104.371 42.7148 104.89 42.4993 105.274 42.1158C105.657 41.7322 105.872 41.212 105.872 40.6695V31.7447C105.871 31.2026 105.655 30.6829 105.272 30.2996C104.89 29.9162 104.37 29.7004 103.829 29.6995V29.6995Z" fill="white"/>
<path d="M144.629 41.7813C144.053 41.3499 143.466 40.9297 142.875 40.5207C142.521 40.4976 142.166 40.5674 141.847 40.7232C141.528 40.8791 141.255 41.1156 141.055 41.4094L136.036 48.7836C135.731 49.2318 135.617 49.783 135.718 50.3158C135.819 50.8486 136.127 51.3194 136.575 51.6246C137.023 51.9299 137.573 52.0445 138.105 51.9434C138.638 51.8423 139.108 51.5337 139.413 51.0854L144.432 43.7113C144.623 43.4315 144.741 43.1084 144.775 42.7714C144.809 42.4343 144.759 42.0939 144.629 41.7813V41.7813Z" fill="white"/>
<path d="M167.43 75.4056C167.329 75.157 167.18 74.9307 166.992 74.7397C166.804 74.5487 166.58 74.3967 166.333 74.2924C166.086 74.1881 165.821 74.1336 165.553 74.1319C165.284 74.1302 165.019 74.1814 164.77 74.2826L156.509 77.6405C156.007 77.845 155.607 78.2405 155.397 78.7399C155.186 79.2394 155.183 79.8021 155.387 80.3043C155.59 80.8065 155.985 81.2071 156.484 81.4182C156.983 81.6292 157.545 81.6334 158.047 81.4299L166.308 78.0719C166.81 77.8664 167.209 77.4704 167.419 76.9707C167.63 76.471 167.634 75.9082 167.43 75.4056Z" fill="white"/>
<path d="M71.2496 48.7836L66.2309 41.4094C66.0309 41.1156 65.7578 40.8791 65.4386 40.7232C65.1194 40.5674 64.7651 40.4976 64.4106 40.5207C63.82 40.9297 63.233 41.3499 62.6573 41.7813C62.5267 42.0939 62.4764 42.4343 62.5107 42.7713C62.5451 43.1084 62.6632 43.4315 62.8541 43.7113L67.8729 51.0854C68.1778 51.5337 68.6481 51.8423 69.1804 51.9434C69.7126 52.0445 70.2632 51.9299 70.711 51.6246C71.1588 51.3194 71.4671 50.8486 71.5681 50.3158C71.6691 49.783 71.5546 49.2318 71.2496 48.7836V48.7836Z" fill="white"/>
<path d="M50.7772 77.6405L42.5154 74.2826C42.0135 74.0785 41.4511 74.0824 40.952 74.2934C40.453 74.5044 40.058 74.9052 39.8541 75.4076C39.6502 75.91 39.654 76.473 39.8646 76.9726C40.0753 77.4722 40.4756 77.8677 40.9775 78.0719L49.2393 81.4298C49.7411 81.6334 50.3032 81.6292 50.802 81.4181C51.3007 81.2071 51.6954 80.8064 51.8992 80.3042C52.103 79.802 52.0993 79.2394 51.889 78.7399C51.6786 78.2404 51.2787 77.845 50.7772 77.6405V77.6405Z" fill="white"/>
<path d="M103.829 151.3C103.287 151.301 102.768 151.517 102.385 151.9C102.002 152.283 101.787 152.803 101.786 153.345V162.27C101.786 162.812 102.001 163.333 102.384 163.716C102.767 164.1 103.287 164.315 103.829 164.315C104.371 164.315 104.89 164.1 105.274 163.716C105.657 163.333 105.872 162.812 105.872 162.27V153.345C105.871 152.803 105.655 152.283 105.272 151.9C104.89 151.517 104.37 151.301 103.829 151.3V151.3Z" fill="white"/>
<path d="M144.432 150.303L139.413 142.929C139.262 142.707 139.069 142.517 138.844 142.37C138.62 142.223 138.369 142.121 138.105 142.071C137.842 142.021 137.571 142.023 137.308 142.078C137.046 142.133 136.797 142.239 136.575 142.39C136.353 142.541 136.163 142.734 136.016 142.959C135.869 143.183 135.768 143.435 135.718 143.699C135.668 143.963 135.67 144.234 135.725 144.496C135.779 144.759 135.885 145.009 136.036 145.231L141.055 152.605C141.255 152.899 141.528 153.135 141.847 153.291C142.166 153.447 142.521 153.517 142.875 153.494C143.466 153.085 144.053 152.665 144.629 152.233C144.759 151.921 144.81 151.58 144.775 151.243C144.741 150.906 144.623 150.583 144.432 150.303Z" fill="white"/>
<path d="M166.308 115.943L158.047 112.585C157.545 112.381 156.982 112.385 156.483 112.596C155.984 112.807 155.589 113.207 155.385 113.71C155.181 114.212 155.185 114.775 155.396 115.275C155.607 115.774 156.007 116.17 156.509 116.374L164.771 119.732C165.272 119.936 165.834 119.931 166.333 119.72C166.832 119.509 167.227 119.109 167.43 118.606C167.634 118.104 167.631 117.542 167.42 117.042C167.21 116.543 166.81 116.147 166.308 115.943V115.943Z" fill="white"/>
<path d="M70.711 142.39C70.2632 142.085 69.7126 141.97 69.1804 142.071C68.6482 142.172 68.1779 142.481 67.8729 142.929L62.8541 150.303C62.6632 150.583 62.5451 150.906 62.5107 151.243C62.4764 151.58 62.5267 151.921 62.6573 152.233C63.2331 152.665 63.82 153.085 64.4107 153.494C64.7651 153.517 65.1194 153.447 65.4386 153.291C65.7578 153.135 66.0309 152.899 66.2309 152.605L71.2497 145.231C71.4007 145.009 71.5065 144.759 71.5612 144.497C71.6158 144.234 71.6182 143.963 71.5682 143.699C71.5182 143.435 71.4167 143.184 71.2696 142.959C71.1226 142.734 70.9327 142.541 70.711 142.39V142.39Z" fill="white"/>
<path d="M51.8992 113.708C51.7983 113.459 51.6494 113.233 51.4611 113.042C51.2728 112.851 51.0487 112.699 50.8017 112.595C50.5547 112.49 50.2896 112.436 50.0215 112.434C49.7534 112.432 49.4877 112.484 49.2394 112.585L40.9776 115.943C40.4761 116.147 40.0762 116.543 39.8658 117.042C39.6554 117.542 39.6517 118.104 39.8556 118.607C40.0594 119.109 40.454 119.509 40.9528 119.72C41.4516 119.931 42.0137 119.936 42.5155 119.732L50.7773 116.374C51.2786 116.169 51.678 115.773 51.8883 115.273C52.0986 114.773 52.1025 114.21 51.8992 113.708V113.708Z" fill="white"/>
<path d="M106.48 95.9925C106.668 97.1104 106.406 98.2576 105.751 99.1824C105.096 100.107 104.101 100.734 102.984 100.925L66.7284 107.099C66.1754 107.193 65.6092 107.177 65.0622 107.052C64.5152 106.928 63.9982 106.696 63.5406 106.371C63.083 106.046 62.6938 105.634 62.3952 105.159C62.0967 104.683 61.8946 104.154 61.8005 103.6C61.7064 103.047 61.7222 102.48 61.8469 101.932C61.9717 101.385 62.2029 100.867 62.5275 100.409C62.852 99.9509 63.2635 99.5613 63.7385 99.2625C64.2135 98.9636 64.7426 98.7613 65.2957 98.6671L101.552 92.4937C102.669 92.3048 103.815 92.5671 104.738 93.223C105.662 93.879 106.288 94.8749 106.48 95.9925V95.9925Z" fill="#3F3D56"/>
<path d="M144.638 136.203C144.117 136.727 143.41 137.023 142.671 137.026C141.933 137.029 141.223 136.739 140.698 136.218L101.669 97.4553C101.145 96.9342 100.85 96.2262 100.847 95.4869C100.844 94.7477 101.135 94.0377 101.655 93.5129C102.175 92.9881 102.882 92.6915 103.621 92.6883C104.359 92.685 105.069 92.9754 105.594 93.4956L144.623 132.259C145.146 132.78 145.442 133.488 145.445 134.227C145.448 134.967 145.158 135.677 144.638 136.203V136.203Z" fill="#3F3D56"/>
<path d="M103.643 101.842C106.31 101.842 108.472 99.6773 108.472 97.0074C108.472 94.3375 106.31 92.1731 103.643 92.1731C100.976 92.1731 98.8137 94.3375 98.8137 97.0074C98.8137 99.6773 100.976 101.842 103.643 101.842Z" fill="#CCCCCC"/>
<path d="M70.3789 13.1806C62.966 24.847 51.6556 32.5894 37.7071 37.6756C37.4314 37.8823 37.1178 38.0326 36.7842 38.1179C36.4505 38.2032 36.1034 38.2219 35.7625 38.173C35.4216 38.124 35.0937 38.0083 34.7975 37.8325C34.5014 37.6566 34.2427 37.4241 34.0362 37.1482V37.1482C26.4595 27.0213 28.1703 12.5481 38.17 4.80997C40.5876 2.94241 43.3517 1.57418 46.3018 0.78472C49.2519 -0.00474439 52.3293 -0.199724 55.3554 0.211106C58.3814 0.621936 61.2957 1.63039 63.9292 3.17792C66.5627 4.72545 68.8629 6.78123 70.6963 9.22592L70.9058 9.50601C71.1123 9.78193 71.2624 10.0958 71.3476 10.4298C71.4329 10.7638 71.4515 11.1113 71.4026 11.4526C71.3537 11.7938 71.2381 12.122 71.0624 12.4185C70.8868 12.715 70.6545 12.974 70.3789 13.1806V13.1806Z" fill="#E6E6E6"/>
<path d="M136.59 9.22591C138.423 6.78123 140.723 4.72545 143.357 3.17792C145.99 1.63038 148.905 0.621938 151.931 0.211108C154.957 -0.199723 158.034 -0.00474847 160.984 0.784716C163.934 1.57418 166.698 2.94241 169.116 4.80996C179.116 12.548 180.826 27.0213 173.25 37.1482C173.043 37.4241 172.785 37.6566 172.488 37.8324C172.192 38.0083 171.864 38.124 171.523 38.173C171.183 38.2219 170.835 38.2032 170.502 38.1179C170.168 38.0326 169.854 37.8823 169.579 37.6756C156.63 32.7129 146.011 24.125 136.907 13.1806C136.35 12.7633 135.982 12.1417 135.883 11.4525C135.784 10.7634 135.963 10.0632 136.38 9.506L136.59 9.22591Z" fill="#E6E6E6"/>
<path d="M133.34 166.274C132.868 166.54 132.521 166.982 132.373 167.504C132.226 168.025 132.292 168.584 132.555 169.058L144.347 190.151C144.612 190.624 145.053 190.973 145.575 191.12C146.096 191.268 146.655 191.202 147.127 190.937C147.6 190.672 147.948 190.23 148.096 189.708C148.243 189.186 148.177 188.627 147.913 188.154L136.121 167.06C135.856 166.588 135.414 166.24 134.893 166.092C134.372 165.945 133.814 166.01 133.34 166.274V166.274Z" fill="#E6E6E6"/>
<path d="M71.1646 167.06L59.373 188.154C59.1085 188.627 59.0427 189.186 59.19 189.708C59.3373 190.23 59.6856 190.672 60.1585 190.937C60.6313 191.202 61.1898 191.268 61.7112 191.12C62.2326 190.973 62.6743 190.624 62.9389 190.151L74.7305 169.058C74.8616 168.824 74.9453 168.566 74.9768 168.299C75.0083 168.032 74.987 167.762 74.9141 167.503C74.8412 167.245 74.7182 167.003 74.552 166.792C74.3858 166.581 74.1797 166.405 73.9455 166.274C73.7113 166.143 73.4536 166.059 73.1871 166.028C72.9206 165.996 72.6506 166.017 72.3923 166.09C72.1341 166.164 71.8927 166.287 71.6821 166.453C71.4714 166.62 71.2956 166.826 71.1646 167.06H71.1646Z" fill="#E6E6E6"/>
<path d="M146.735 195.552C150.223 195.552 153.05 192.722 153.05 189.23C153.05 185.739 150.223 182.908 146.735 182.908C143.247 182.908 140.42 185.739 140.42 189.23C140.42 192.722 143.247 195.552 146.735 195.552Z" fill="#E6E6E6"/>
<path d="M151.193 33.7899C154.681 33.7899 157.508 30.9596 157.508 27.4682C157.508 23.9768 154.681 21.1465 151.193 21.1465C147.705 21.1465 144.878 23.9768 144.878 27.4682C144.878 30.9596 147.705 33.7899 151.193 33.7899Z" fill="#E6E6E6"/>
<path d="M103.272 18.9154C106.759 18.9154 109.587 16.0851 109.587 12.5937C109.587 9.10231 106.759 6.27197 103.272 6.27197C99.7837 6.27197 96.9563 9.10231 96.9563 12.5937C96.9563 16.0851 99.7837 18.9154 103.272 18.9154Z" fill="#E6E6E6"/>
<path d="M57.5791 33.0463C61.0669 33.0463 63.8943 30.216 63.8943 26.7246C63.8943 23.2332 61.0669 20.4028 57.5791 20.4028C54.0913 20.4028 51.2639 23.2332 51.2639 26.7246C51.2639 30.216 54.0913 33.0463 57.5791 33.0463Z" fill="#E6E6E6"/>
<path d="M61.6653 195.552C65.1531 195.552 67.9805 192.722 67.9805 189.23C67.9805 185.739 65.1531 182.908 61.6653 182.908C58.1775 182.908 55.3501 185.739 55.3501 189.23C55.3501 192.722 58.1775 195.552 61.6653 195.552Z" fill="#E6E6E6"/>
<path d="M141.781 132.647C142.03 133.038 142.362 133.368 142.752 133.616C143.142 133.865 143.583 134.024 144.041 134.083C144.5 134.143 144.966 134.101 145.407 133.961C145.847 133.82 146.252 133.585 146.592 133.271L156.502 138.586L155.97 132.762L146.641 128.608C146.077 128.071 145.335 127.76 144.557 127.734C143.779 127.708 143.018 127.969 142.419 128.467C141.82 128.965 141.424 129.665 141.306 130.436C141.189 131.206 141.358 131.993 141.781 132.647H141.781Z" fill="#FFB7B7"/>
<path d="M149.002 134.68L152.885 129.314L171.593 138.167L194.873 133.794C196.023 133.578 197.207 133.618 198.341 133.912C199.474 134.205 200.529 134.745 201.431 135.493C202.333 136.24 203.059 137.177 203.558 138.238C204.057 139.298 204.317 140.455 204.319 141.627V141.627C204.321 143.744 203.484 145.775 201.991 147.274C200.499 148.774 198.473 149.62 196.358 149.626L169.68 149.675L149.002 134.68Z" fill="#3F3D56"/>
<path d="M143.021 227.359L139.092 225.478L144.489 209.039L150.287 211.815L143.021 227.359Z" fill="#FFB7B7"/>
<path d="M169.361 224.709C169.075 224.888 168.79 225.064 168.501 225.24C167.927 225.593 167.347 225.939 166.767 226.28C166.475 226.451 166.181 226.621 165.889 226.789V226.797L165.872 226.8L165.866 226.803L165.422 226.913L164.784 225.226L164.489 224.449L164.074 223.348L163.312 221.334L159.301 210.732L165.537 209.192L165.771 210.148H165.774L165.889 210.622L168.068 219.468L168.513 221.277L168.527 221.331L168.795 222.412L169.026 223.348L169.283 224.394L169.361 224.709Z" fill="#FFB7B7"/>
<path d="M206.565 187.476C206.169 188.111 205.765 188.744 205.358 189.371C204.602 190.538 203.826 191.688 203.029 192.82C203.029 192.823 203.026 192.823 203.023 192.826C202.559 193.257 202.045 193.632 201.494 193.944C201.471 193.961 201.445 193.973 201.422 193.987C201.016 194.212 200.583 194.386 200.135 194.504C199.973 194.545 199.808 194.585 199.647 194.626C199.064 194.764 198.487 194.883 197.912 194.987C196.891 195.169 195.881 195.299 194.876 195.38C194.796 195.388 194.715 195.394 194.634 195.4C190.504 195.703 186.484 195.215 182.288 194.415C180.216 194.022 178.1 193.551 175.91 193.063C175.194 192.901 174.476 192.742 173.748 192.583C173.694 192.572 173.636 192.557 173.578 192.546C172.539 192.317 171.483 192.092 170.401 191.87C169.038 191.589 167.633 191.318 166.173 191.061L166.277 193.121C166.363 194.705 166.692 196.267 167.252 197.752C167.875 199.577 168.369 201.022 167.327 204.029L166.825 205.485C167.085 206.208 167.175 206.982 167.086 207.745C166.997 208.509 166.733 209.241 166.314 209.885L166.213 210.038L170.401 220.643L170.672 221.331H168.528L165.89 221.334H161.42L154.969 208.38L154.661 207.762V207.73L155.327 182.836C155.336 182.616 155.353 182.394 155.382 182.174C155.5 181.176 155.815 180.212 156.309 179.337C156.803 178.462 157.466 177.694 158.259 177.078C159.02 176.483 159.891 176.046 160.822 175.791C161.753 175.536 162.725 175.469 163.682 175.593L165.89 175.879L170.401 176.463L173.578 176.876L173.642 176.885L183.012 178.098L183.685 175.354L183.809 175.307L187.754 173.86L201.399 168.854L201.433 168.842L202.331 168.513L202.438 168.686C202.469 168.738 202.501 168.79 202.53 168.842C203.417 170.434 204.139 172.113 204.686 173.851C205.605 176.692 206.361 179.583 206.951 182.51C206.977 182.637 207 182.752 207.02 182.856L207.029 182.888C207.038 182.937 207.044 182.969 207.046 182.978C207.361 184.289 207.142 185.89 206.565 187.476Z" fill="#2F2E41"/>
<path d="M207.14 178.302C207.097 178.117 207.042 177.929 206.985 177.747C206.526 176.368 205.993 175.016 205.386 173.697C204.705 172.194 203.888 170.585 202.915 168.843C202.445 168 201.939 167.122 201.397 166.211C201.126 165.755 200.844 165.29 200.552 164.816C200.54 164.794 200.528 164.773 200.514 164.752L200.431 164.614L186.93 166.422L181.903 167.095L181.603 169.603L181.53 170.224C181.528 170.224 181.528 170.224 181.53 170.227L181.328 171.92V171.923L181.06 174.159L181.037 174.156L173.577 173.188L165.889 172.191L161.759 171.657C160.802 171.532 159.829 171.599 158.898 171.854C157.967 172.109 157.096 172.547 156.336 173.142C155.543 173.758 154.88 174.525 154.386 175.4C153.892 176.275 153.577 177.24 153.459 178.238C153.433 178.44 153.416 178.648 153.407 178.853L149.511 188.095C147.179 193.622 145.695 199.47 145.107 205.44L142.25 214.584L142.657 214.621L148.711 215.185L150.31 215.335L153.831 210.19C154.232 209.603 154.613 208.999 154.968 208.381C155.553 207.371 156.072 206.325 156.524 205.25L164.14 187.107C164.728 187.208 165.311 187.304 165.889 187.396C168.558 187.829 171.121 188.183 173.577 188.456C181.562 189.349 188.477 189.418 194.633 188.661C196.361 188.45 198.032 188.173 199.646 187.829C200.237 187.705 200.821 187.571 201.397 187.428C201.533 187.396 201.666 187.364 201.798 187.329C202.991 187.022 204.088 186.419 204.988 185.577C205.888 184.735 206.562 183.681 206.95 182.511C207.413 181.154 207.479 179.694 207.14 178.302V178.302Z" fill="#2F2E41"/>
<path d="M144.276 224.675L140.025 222.635L139.358 222.314L138.293 224.932L130.859 226.57C130.491 226.651 130.159 226.847 129.911 227.13C129.663 227.413 129.511 227.768 129.479 228.143C129.447 228.519 129.535 228.895 129.732 229.216C129.928 229.537 130.222 229.787 130.57 229.93L137.834 232.897L140.14 230.819L139.574 233.607L142.31 234.725L145.309 225.172L144.276 224.675Z" fill="#2F2E41"/>
<path d="M170.4 220.643L170.672 221.331H170.4V220.643Z" fill="#2F2E41"/>
<path d="M168.92 221.478L164.466 223.023L163.767 223.264L164.85 225.874L160.719 232.275C160.514 232.591 160.416 232.964 160.438 233.34C160.461 233.716 160.603 234.075 160.844 234.365C161.085 234.654 161.412 234.859 161.777 234.949C162.143 235.039 162.527 235.01 162.875 234.865L170.122 231.857L170.301 228.757L171.858 231.136L174.588 230.004L170.004 221.103L168.92 221.478Z" fill="#2F2E41"/>
<path d="M206.029 182.487C205.765 182.487 205.505 182.422 205.271 182.299L181.765 170.004L181.494 168.891L180.982 165.368L180.989 165.335L183.224 155.019C183.183 154.93 183.098 154.785 183.001 154.621C182.003 152.928 178.966 147.776 184.762 140.683L194.939 128.806L203.674 128.429L203.773 128.555C206.109 131.49 207.684 134.956 208.358 138.647C209.033 142.337 208.786 146.138 207.64 149.71L206.731 166.153L207.706 169.473C208.277 171.425 208.182 173.511 207.438 175.403L207.662 180.779C207.671 181 207.635 181.22 207.557 181.426C207.479 181.632 207.36 181.821 207.208 181.98C207.055 182.139 206.873 182.266 206.67 182.354C206.468 182.441 206.25 182.486 206.029 182.487L206.029 182.487Z" fill="#3F3D56"/>
<path d="M185.64 196.047C186.038 195.812 186.38 195.492 186.642 195.11C186.903 194.728 187.077 194.293 187.153 193.836C187.228 193.38 187.202 192.912 187.077 192.466C186.953 192.02 186.732 191.607 186.43 191.256L192.081 181.527L186.248 181.856L181.776 191.045C181.221 191.591 180.884 192.322 180.831 193.1C180.778 193.877 181.012 194.647 181.488 195.264C181.965 195.881 182.65 196.301 183.416 196.445C184.181 196.59 184.972 196.448 185.64 196.047L185.64 196.047Z" fill="#FFB7B7"/>
<path d="M187.921 188.895L182.698 184.823L192.188 166.415L188.632 142.973C188.456 141.815 188.538 140.631 188.87 139.508C189.202 138.384 189.778 137.347 190.556 136.471C191.333 135.595 192.294 134.901 193.37 134.439C194.446 133.976 195.61 133.756 196.78 133.795V133.795C198.894 133.867 200.892 134.775 202.338 136.321C203.783 137.866 204.557 139.922 204.489 142.038L203.611 168.729L187.921 188.895Z" fill="#3F3D56"/>
<path d="M189.336 123.87V115.218C189.334 112.144 190.553 109.194 192.723 107.018C194.894 104.843 197.839 103.619 200.911 103.617C203.982 103.615 206.929 104.835 209.102 107.008C211.276 109.18 212.498 112.129 212.5 115.203V115.218C214.541 119.476 213.264 121.501 212.5 123.87C212.499 124.283 212.335 124.679 212.044 124.97C211.752 125.262 211.357 125.426 210.945 125.427H190.892C190.48 125.427 190.085 125.263 189.793 124.971C189.501 124.679 189.337 124.283 189.336 123.87V123.87Z" fill="#2F2E41"/>
<path d="M197.121 124.865C201.909 124.865 205.79 120.98 205.79 116.187C205.79 111.394 201.909 107.508 197.121 107.508C192.333 107.508 188.451 111.394 188.451 116.187C188.451 120.98 192.333 124.865 197.121 124.865Z" fill="#FFB7B7"/>
<path d="M206.194 118.462C206.115 118.449 206.037 118.433 205.958 118.42C204.606 118.18 203.253 117.944 201.905 117.7L201.781 114.641L200.148 117.381C196.422 118.619 192.936 117.919 189.656 116.375C188.574 115.861 187.525 115.282 186.513 114.641C186.789 112.949 187.439 111.34 188.415 109.932C189.392 108.523 190.671 107.352 192.158 106.502C192.282 106.432 192.402 106.37 192.526 106.307C192.527 106.307 192.527 106.307 192.528 106.307C192.528 106.307 192.529 106.307 192.529 106.306C192.529 106.306 192.53 106.305 192.53 106.305C192.53 106.304 192.53 106.304 192.53 106.303C192.741 106.204 192.956 106.109 193.171 106.022C194.855 105.363 196.69 105.196 198.465 105.541C200.239 105.885 201.88 106.727 203.196 107.967C205.842 110.497 207.033 114.674 206.194 118.462Z" fill="#2F2E41"/>
</g>
<defs>
<clipPath id="clip0_39_804">
<rect width="251" height="235" fill="white"/>
</clipPath>
</defs>
</svg>
