<svg width="30" height="30" viewBox="0 0 30 30" fill="none" xmlns="http://www.w3.org/2000/svg">
<path fill-rule="evenodd" clip-rule="evenodd" d="M3 15C3 14.4477 3.44772 14 4 14L26 14C26.5523 14 27 14.4477 27 15C27 15.5523 26.5523 16 26 16L4 16C3.44772 16 3 15.5523 3 15Z" fill="white"/>
<path fill-rule="evenodd" clip-rule="evenodd" d="M3 23C3 22.4477 3.44772 22 4 22L26 22C26.5523 22 27 22.4477 27 23C27 23.5523 26.5523 24 26 24L4 24C3.44772 24 3 23.5523 3 23Z" fill="white"/>
<path fill-rule="evenodd" clip-rule="evenodd" d="M3 7C3 6.44772 3.44772 6 4 6L26 6C26.5523 6 27 6.44772 27 7C27 7.55228 26.5523 8 26 8L4 8C3.44772 8 3 7.55228 3 7Z" fill="white"/>
</svg>
