<svg width="198" height="255" viewBox="0 0 198 255" fill="none" xmlns="http://www.w3.org/2000/svg">
<g clip-path="url(#clip0_39_906)">
<path d="M198 164.582L162.548 138.896C162.548 138.896 142.24 104.647 138.798 82.7272C135.356 60.8078 119.867 21.7638 119.867 21.7638V1.21437C119.867 1.21437 101.968 -5.63544 100.592 13.2015C99.2148 32.0385 104.378 56.3554 104.378 56.3554C104.378 56.3554 109.541 87.1796 97.838 95.0568L55.1572 164.582C55.1572 164.582 96.117 201.914 128.128 206.709L198 255V164.582Z" fill="#FFB8B8"/>
<path d="M13.6811 66.1165H12.5124C1.983 66.1165 -3.93573 78.4857 2.98301 86.3836C5.20987 88.9255 8.59456 90.6854 13.6811 90.7758V66.1165Z" fill="#FFB8B8"/>
<path d="M13.6811 90.7756H12.5124C1.983 90.7756 -3.93573 103.145 2.98301 111.043C5.20987 113.585 8.59456 115.345 13.6811 115.435V90.7756Z" fill="#FFB8B8"/>
<path d="M13.6811 115.435H12.5124C1.983 115.435 -3.93573 127.804 2.98301 135.702C5.20987 138.244 8.59456 140.004 13.6811 140.094V115.435Z" fill="#FFB8B8"/>
<path d="M13.6811 140.094H12.5124C1.983 140.094 -3.93573 152.464 2.98301 160.361C5.20987 162.903 8.59456 164.663 13.6811 164.754V140.094Z" fill="#FFB8B8"/>
<path d="M105.066 60.2285H104.042V32.3057C104.042 30.1834 103.622 28.0819 102.805 26.1212C101.989 24.1604 100.793 22.3789 99.2846 20.8782C97.7765 19.3775 95.986 18.1871 94.0155 17.3749C92.045 16.5628 89.933 16.1448 87.8001 16.1448H28.3468C26.214 16.1448 24.102 16.5628 22.1314 17.3749C20.1609 18.1871 18.3705 19.3775 16.8623 20.8782C15.3541 22.3789 14.1578 24.1604 13.3415 26.1212C12.5253 28.0819 12.1052 30.1834 12.1052 32.3057V185.492C12.1052 187.614 12.5253 189.716 13.3415 191.677C14.1578 193.637 15.3541 195.419 16.8623 196.92C18.3705 198.42 20.1609 199.611 22.1314 200.423C24.102 201.235 26.214 201.653 28.3468 201.653H87.8001C89.933 201.653 92.045 201.235 94.0155 200.423C95.986 199.611 97.7765 198.42 99.2846 196.92C100.793 195.419 101.989 193.637 102.805 191.677C103.622 189.716 104.042 187.614 104.042 185.492V80.1044H105.066V60.2285Z" fill="#3F3D56"/>
<path d="M100.585 32.4187V185.379C100.582 187.168 100.181 188.934 99.4112 190.55C98.6411 192.167 97.5208 193.594 96.1308 194.729C95.8233 194.979 95.5028 195.214 95.1704 195.431C93.1819 196.75 90.8448 197.452 88.4551 197.448H28.7158C27.7474 197.45 26.7823 197.335 25.8417 197.105C23.2018 196.465 20.8545 194.961 19.1762 192.834C17.4979 190.708 16.5858 188.082 16.5862 185.379V32.4187C16.5865 29.2178 17.8645 26.1481 20.1392 23.8847C22.4139 21.6213 25.4989 20.3497 28.7158 20.3494H35.9646C35.6077 21.2199 35.4715 22.1644 35.5679 23.0997C35.6643 24.035 35.9904 24.9323 36.5175 25.7126C37.0446 26.4929 37.7565 27.1322 38.5905 27.5742C39.4244 28.0162 40.3548 28.2473 41.2997 28.2472H75.3583C76.3029 28.2462 77.2327 28.0144 78.0662 27.5721C78.8996 27.1299 79.6112 26.4908 80.1383 25.7109C80.6655 24.931 80.9921 24.0343 81.0895 23.0994C81.1869 22.1646 81.052 21.2202 80.6968 20.3494H88.4551C91.672 20.3497 94.757 21.6213 97.0317 23.8847C99.3064 26.1481 100.584 29.2178 100.585 32.4187V32.4187Z" fill="#FF495C"/>
<path d="M46.0486 135.616C46.0486 135.616 51.9127 151.824 47.3517 160.901C42.7907 169.978 54.519 180.351 54.519 180.351C54.519 180.351 85.1427 164.791 81.2333 157.011C77.3239 149.231 70.8082 138.858 72.1113 132.374L46.0486 135.616Z" fill="#FFB8B8"/>
<path d="M57.4513 141.775C68.9665 141.775 78.3014 132.486 78.3014 121.028C78.3014 109.57 68.9665 100.282 57.4513 100.282C45.936 100.282 36.6011 109.57 36.6011 121.028C36.6011 132.486 45.936 141.775 57.4513 141.775Z" fill="#FFB8B8"/>
<path d="M97.9893 193.828C97.4412 194.525 96.8179 195.159 96.1306 195.719C95.8232 195.97 95.5027 196.204 95.1703 196.421C93.2462 197.695 90.9401 198.096 88.455 198.096H35.6892L36.6013 172.895L42.4665 159.929C43.7832 160.956 45.1924 161.861 46.6761 162.631C47.0271 162.819 47.3989 163.008 47.7878 163.193C53.2812 165.833 62.2614 168.155 70.9662 161.689C73.7061 159.655 76.4183 156.747 78.9895 152.706L95.2426 161.874L96.0962 171.806L97.9893 193.828Z" fill="white"/>
<path d="M49.0339 150.226L48.2182 158.709L47.7879 163.193L47.1443 169.868L44.3941 198.438H28.7158C27.7474 198.44 26.7823 198.325 25.8417 198.096L19.6599 169.652L19.8389 169.535L49.0339 150.226Z" fill="#2F2E41"/>
<path d="M100.585 156.055V186.369C100.582 188.158 100.181 189.924 99.4111 191.541C98.6411 193.157 97.5208 194.584 96.1307 195.719C95.8233 195.97 95.5027 196.204 95.1704 196.421C93.1819 197.74 90.8448 198.442 88.455 198.438H67.4761C67.9339 188.859 68.7427 179.509 69.6893 171.364C70.0955 167.895 70.5257 164.645 70.9663 161.689C72.3844 152.161 73.9057 145.691 74.9968 144.818L82.2113 149.555L100.585 156.055Z" fill="#2F2E41"/>
<path d="M34.6463 192.993L33.896 198.438H28.7158C27.7474 198.44 26.7823 198.325 25.8417 198.096C23.2018 197.455 20.8545 195.951 19.1762 193.825C17.4979 191.698 16.5858 189.073 16.5862 186.369V185.273L19.0093 169.652L19.8389 169.536L23.57 169.005L34.6463 192.993Z" fill="#2F2E41"/>
<path d="M100.585 160.007V186.369C100.582 188.158 100.181 189.924 99.4112 191.541C98.6411 193.157 97.5208 194.584 96.1308 195.719C95.8233 195.97 95.5028 196.204 95.1704 196.421L91.9832 182.619L96.0963 171.806L100.585 160.007Z" fill="#2F2E41"/>
<path d="M77.3341 102.264C74.1812 97.1698 69.2459 93.4156 63.4783 91.7245L59.242 95.0966L60.889 91.1634C59.5039 90.9531 58.1021 90.8725 56.702 90.9226L52.8904 95.7989L54.468 91.0896C47.8819 91.9251 41.6206 95.4947 37.8253 100.94C32.9741 107.9 32.1555 117.58 36.9268 124.594C38.2366 120.589 39.8263 116.831 41.1361 112.826C41.4384 112.955 42.5837 112.946 44.2396 112.841L45.8331 109.141L46.2783 112.684C51.2174 112.256 58.5434 111.316 63.2259 110.455L62.7706 107.737L65.4947 109.996C66.9294 109.667 67.7811 109.369 67.7107 109.141C71.1932 114.727 74.6438 118.296 78.1262 123.882C79.4482 116.002 81.7818 109.452 77.3341 102.264Z" fill="#2F2E41"/>
<path d="M76.1793 123.186C76.9588 123.186 77.5907 121.928 77.5907 120.377C77.5907 118.825 76.9588 117.568 76.1793 117.568C75.3998 117.568 74.7678 118.825 74.7678 120.377C74.7678 121.928 75.3998 123.186 76.1793 123.186Z" fill="#FFB8B8"/>
<path d="M122.104 193.694C136.456 193.694 148.091 167.78 148.091 135.813C148.091 103.847 136.456 77.9324 122.104 77.9324C107.752 77.9324 96.1169 103.847 96.1169 135.813C96.1169 167.78 107.752 193.694 122.104 193.694Z" fill="#FFB8B8"/>
<path opacity="0.2" d="M28.6403 63.5478C27.2788 63.5478 25.9479 63.146 24.8158 62.3934C23.6837 61.6407 22.8014 60.5709 22.2804 59.3193C21.7593 58.0676 21.623 56.6904 21.8886 55.3616C22.1542 54.0329 22.8099 52.8124 23.7726 51.8544C24.7354 50.8964 25.962 50.2441 27.2973 49.9798C28.6327 49.7155 30.0169 49.8511 31.2747 50.3696C32.5326 50.888 33.6077 51.766 34.3642 52.8924C35.1206 54.0189 35.5243 55.3432 35.5243 56.698C35.5222 58.514 34.7963 60.2551 33.5058 61.5392C32.2152 62.8233 30.4654 63.5457 28.6403 63.5478V63.5478ZM28.6403 50.5331C27.415 50.5331 26.2171 50.8947 25.1983 51.5721C24.1794 52.2495 23.3853 53.2123 22.9164 54.3388C22.4474 55.4653 22.3247 56.7048 22.5638 57.9007C22.8029 59.0965 23.3929 60.195 24.2594 61.0572C25.1259 61.9193 26.2298 62.5065 27.4316 62.7443C28.6335 62.9822 29.8792 62.8601 31.0113 62.3935C32.1434 61.9269 33.111 61.1368 33.7918 60.123C34.4726 59.1092 34.8359 57.9172 34.8359 56.698C34.8341 55.0635 34.1808 53.4965 33.0193 52.3408C31.8578 51.1851 30.2829 50.535 28.6403 50.5331V50.5331Z" fill="black"/>
<path opacity="0.2" d="M25.8866 56.013C26.4569 56.013 26.9192 55.5529 26.9192 54.9855C26.9192 54.418 26.4569 53.958 25.8866 53.958C25.3163 53.958 24.854 54.418 24.854 54.9855C24.854 55.5529 25.3163 56.013 25.8866 56.013Z" fill="black"/>
<path opacity="0.2" d="M31.0497 56.013C31.62 56.013 32.0823 55.5529 32.0823 54.9855C32.0823 54.418 31.62 53.958 31.0497 53.958C30.4794 53.958 30.0171 54.418 30.0171 54.9855C30.0171 55.5529 30.4794 56.013 31.0497 56.013Z" fill="black"/>
<path opacity="0.2" d="M31.0497 59.0954H25.8867C25.7954 59.0954 25.7078 59.0593 25.6433 58.9951C25.5787 58.9308 25.5425 58.8437 25.5425 58.7529C25.5425 58.6621 25.5787 58.5749 25.6433 58.5107C25.7078 58.4465 25.7954 58.4104 25.8867 58.4104H31.0497C31.141 58.4104 31.2285 58.4465 31.2931 58.5107C31.3576 58.5749 31.3939 58.6621 31.3939 58.7529C31.3939 58.8437 31.3576 58.9308 31.2931 58.9951C31.2285 59.0593 31.141 59.0954 31.0497 59.0954V59.0954Z" fill="black"/>
<path opacity="0.2" d="M88.531 63.5478C87.1694 63.5478 85.8385 63.146 84.7064 62.3934C83.5744 61.6407 82.692 60.5709 82.171 59.3193C81.65 58.0676 81.5136 56.6904 81.7792 55.3616C82.0449 54.0329 82.7005 52.8124 83.6632 51.8544C84.626 50.8964 85.8526 50.2441 87.188 49.9798C88.5233 49.7155 89.9075 49.8511 91.1654 50.3696C92.4232 50.888 93.4984 51.766 94.2548 52.8924C95.0112 54.0189 95.4149 55.3432 95.4149 56.698C95.4129 58.514 94.687 60.2551 93.3964 61.5392C92.1059 62.8234 90.3561 63.5457 88.531 63.5478V63.5478ZM88.531 50.5331C87.3056 50.5331 86.1077 50.8947 85.0889 51.5721C84.07 52.2495 83.2759 53.2123 82.807 54.3388C82.338 55.4653 82.2154 56.7048 82.4544 57.9007C82.6935 59.0965 83.2835 60.195 84.15 61.0572C85.0165 61.9193 86.1204 62.5065 87.3223 62.7443C88.5241 62.9822 89.7698 62.8601 90.9019 62.3935C92.034 61.9269 93.0016 61.1368 93.6824 60.123C94.3632 59.1092 94.7266 57.9172 94.7266 56.698C94.7247 55.0635 94.0713 53.4966 92.9098 52.3408C91.7483 51.1851 90.1736 50.535 88.531 50.5331V50.5331Z" fill="black"/>
<path opacity="0.2" d="M85.7775 56.013C86.3478 56.013 86.8101 55.5529 86.8101 54.9855C86.8101 54.418 86.3478 53.958 85.7775 53.958C85.2072 53.958 84.7449 54.418 84.7449 54.9855C84.7449 55.5529 85.2072 56.013 85.7775 56.013Z" fill="black"/>
<path opacity="0.2" d="M90.9403 56.013C91.5106 56.013 91.9729 55.5529 91.9729 54.9855C91.9729 54.418 91.5106 53.958 90.9403 53.958C90.37 53.958 89.9077 54.418 89.9077 54.9855C89.9077 55.5529 90.37 56.013 90.9403 56.013Z" fill="black"/>
<path opacity="0.2" d="M90.9402 59.7802C90.88 59.7802 90.8209 59.7644 90.7687 59.7345C90.0481 59.2798 89.2123 59.0384 88.359 59.0384C87.5057 59.0384 86.6699 59.2798 85.9493 59.7345C85.9101 59.7571 85.8668 59.7717 85.8219 59.7776C85.7771 59.7835 85.7315 59.7806 85.6877 59.7689C85.644 59.7572 85.603 59.7371 85.5671 59.7097C85.5312 59.6822 85.5011 59.648 85.4785 59.609C85.456 59.5699 85.4413 59.5268 85.4355 59.4822C85.4296 59.4375 85.4327 59.3921 85.4446 59.3486C85.4564 59.3052 85.4767 59.2644 85.5044 59.2288C85.532 59.1931 85.5665 59.1632 85.6057 59.1408C86.4317 58.6282 87.3856 58.3564 88.359 58.3564C89.3324 58.3564 90.2863 58.6282 91.1122 59.1408C91.178 59.1785 91.2294 59.2367 91.2585 59.3064C91.2876 59.3761 91.2927 59.4534 91.2731 59.5263C91.2534 59.5992 91.2102 59.6636 91.15 59.7095C91.0898 59.7554 91.016 59.7803 90.9402 59.7802V59.7802Z" fill="black"/>
<path d="M58.93 70.6052C56.1657 70.6052 53.4634 69.7895 51.165 68.2614C48.8665 66.7332 47.0751 64.5612 46.0173 62.02C44.9594 59.4788 44.6826 56.6825 45.2219 53.9848C45.7612 51.2871 47.0924 48.8091 49.047 46.8641C51.0017 44.9191 53.4921 43.5946 56.2033 43.058C58.9145 42.5214 61.7247 42.7968 64.2786 43.8494C66.8325 44.902 69.0153 46.6845 70.5511 48.9716C72.0868 51.2586 72.9066 53.9474 72.9066 56.698C72.9023 60.3851 71.4284 63.92 68.8082 66.5272C66.188 69.1344 62.6355 70.601 58.93 70.6052ZM58.93 44.1815C56.4421 44.1815 54.0101 44.9156 51.9415 46.2909C49.8729 47.6662 48.2606 49.621 47.3085 51.9081C46.3565 54.1952 46.1074 56.7119 46.5927 59.1398C47.0781 61.5678 48.2761 63.798 50.0353 65.5485C51.7945 67.2989 54.0359 68.491 56.4759 68.9739C58.916 69.4569 61.4452 69.209 63.7437 68.2617C66.0422 67.3144 68.0068 65.7101 69.389 63.6518C70.7712 61.5934 71.5089 59.1735 71.5089 56.698C71.5051 53.3795 70.1787 50.1981 67.8205 47.8516C65.4623 45.5051 62.265 44.1852 58.93 44.1815V44.1815Z" fill="white"/>
<path d="M53.3392 55.3072C54.497 55.3072 55.4357 54.3732 55.4357 53.2211C55.4357 52.069 54.497 51.135 53.3392 51.135C52.1813 51.135 51.2427 52.069 51.2427 53.2211C51.2427 54.3732 52.1813 55.3072 53.3392 55.3072Z" fill="white"/>
<path d="M63.8216 55.3072C64.9794 55.3072 65.9181 54.3732 65.9181 53.2211C65.9181 52.069 64.9794 51.135 63.8216 51.135C62.6637 51.135 61.7251 52.069 61.7251 53.2211C61.7251 54.3732 62.6637 55.3072 63.8216 55.3072Z" fill="white"/>
<path d="M58.9372 63.4875C57.0574 63.4875 55.0647 62.8094 52.9589 61.4534C52.8037 61.3529 52.6949 61.1953 52.6564 61.0151C52.6179 60.8349 52.6528 60.6469 52.7536 60.4923C52.8543 60.3377 53.0126 60.2292 53.1936 60.1907C53.3747 60.1521 53.5637 60.1867 53.7192 60.2867C57.4232 62.676 60.5792 62.6933 63.3698 60.3397C63.5112 60.2207 63.6942 60.1625 63.8787 60.1777C64.0633 60.193 64.2342 60.2805 64.3539 60.421C64.4736 60.5616 64.5324 60.7437 64.5173 60.9273C64.5022 61.1109 64.4144 61.2811 64.2733 61.4004C62.6245 62.7918 60.8409 63.4875 58.9372 63.4875Z" fill="white"/>
<path d="M81.9913 79.6446H72.9065V78.2542H80.5936V70.6052H81.9913V79.6446Z" fill="white"/>
<path d="M37.2661 42.7907H35.8684V33.751H44.9532V35.1417H37.2661V42.7907Z" fill="white"/>
</g>
<defs>
<clipPath id="clip0_39_906">
<rect width="198" height="255" fill="white"/>
</clipPath>
</defs>
</svg>
