<svg width="1440" height="558" viewBox="0 0 1440 558" fill="none" xmlns="http://www.w3.org/2000/svg">
<path d="M1438.36 0.609941C1298.18 0.609983 86.1114 5.75141e-05 0 0C0 416.198 19.2464 478.508 103.133 531.259C146 558.215 282.282 574.382 382.495 531.259C529.5 468 630.5 321 717 381C803.5 441 817.5 434 835.5 434C853.5 434 869.5 412.887 892.5 375.193C915.5 337.5 944.878 433.406 968 453.282C1059.45 531.891 1223.25 290.204 1328 350C1455 422.5 1440.2 256.085 1440.36 245.806C1441.4 180.313 1441.45 66.3307 1438.36 0.609941Z" fill="#3DDC97"/>
</svg>
